<svg xmlns="http://www.w3.org/2000/svg" xmlns:xlink="http://www.w3.org/1999/xlink" width="500" zoomAndPan="magnify" viewBox="0 0 375 374.999991" height="500" preserveAspectRatio="xMidYMid meet" version="1.0"><defs><clipPath id="6b1669baee"><path d="M 30 27.453125 L 348.789062 27.453125 L 348.789062 347.609375 L 30 347.609375 Z M 30 27.453125 " clip-rule="nonzero"/></clipPath><clipPath id="dbb6b737b7"><path d="M 348.789062 205.972656 C 344.558594 242.808594 327.832031 275.84375 302.949219 300.722656 C 273.980469 329.691406 233.960938 347.609375 189.753906 347.609375 C 145.550781 347.609375 105.53125 329.691406 76.5625 300.722656 C 49.859375 274.019531 32.542969 237.914062 30 197.800781 C 32.609375 199.011719 35.316406 199.757812 38.136719 199.988281 C 41.140625 237.035156 57.410156 270.320312 82.191406 295.101562 C 109.71875 322.628906 147.753906 339.660156 189.757812 339.660156 C 231.765625 339.660156 269.800781 322.636719 297.328125 295.101562 C 320.3125 272.113281 335.976562 241.804688 340.519531 207.972656 C 343.402344 207.90625 346.148438 207.210938 348.789062 205.972656 M 216.089844 156.125 L 187.765625 131.574219 L 203.277344 118.128906 L 231.597656 142.6875 Z M 156.738281 180.371094 L 156.738281 169.480469 L 145.847656 169.480469 L 145.847656 180.371094 Z M 156.738281 165.550781 L 156.738281 154.648438 L 145.847656 154.648438 L 145.847656 165.550781 Z M 160.671875 165.550781 L 171.5625 165.550781 L 171.5625 154.648438 L 160.671875 154.648438 Z M 160.671875 169.480469 L 160.671875 180.371094 L 171.5625 180.371094 L 171.5625 169.480469 Z M 244.171875 154.675781 L 244.171875 162.605469 L 252.105469 162.605469 L 252.105469 154.675781 Z M 252.105469 165.46875 L 244.171875 165.46875 L 244.171875 173.398438 L 252.105469 173.398438 Z M 254.964844 165.46875 L 254.964844 173.398438 L 262.894531 173.398438 L 262.894531 165.46875 Z M 254.964844 162.605469 L 262.894531 162.605469 L 262.894531 154.675781 L 254.964844 154.675781 Z M 158.707031 119.335938 L 236.304688 186.613281 L 251.25 186.613281 L 223.554688 162.605469 L 253.53125 136.617188 L 290.867188 168.664062 C 292.105469 163.28125 292.011719 163.386719 293.035156 158.394531 C 291.277344 156.722656 289.121094 154.515625 287.109375 152.773438 L 287.109375 137.933594 L 277.289062 137.933594 L 277.289062 144.257812 L 253.53125 123.664062 L 239.0625 136.207031 L 203.269531 105.171875 L 180.289062 125.097656 L 158.707031 106.382812 L 118.28125 141.429688 L 118.28125 133.875 L 108.457031 133.875 L 108.457031 149.945312 L 103.6875 154.078125 L 106.972656 158.992188 L 103.828125 162.875 L 106.007812 165.015625 Z M 189.757812 27.453125 C 233.96875 27.453125 273.980469 45.375 302.957031 74.339844 C 305.527344 76.910156 308.011719 79.578125 310.410156 82.316406 L 304.445312 87.574219 C 302.160156 84.957031 299.792969 82.417969 297.335938 79.960938 C 269.800781 52.433594 231.765625 35.410156 189.757812 35.410156 C 152.425781 35.410156 118.234375 48.859375 91.761719 71.175781 L 88.027344 66.382812 C 87.683594 65.796875 87.292969 65.304688 86.871094 64.894531 C 114.691406 41.53125 150.578125 27.453125 189.757812 27.453125 Z M 189.757812 27.453125 " clip-rule="nonzero"/></clipPath><linearGradient x1="264.879629" gradientTransform="matrix(0.673189, 0, 0, 0.673177, 19.712086, 27.453309)" y1="487.106514" x2="239.238137" gradientUnits="userSpaceOnUse" y2="-11.516968" id="44ee6d78a7"><stop stop-opacity="1" stop-color="rgb(21.598816%, 57.998657%, 25.898743%)" offset="0"/><stop stop-opacity="1" stop-color="rgb(21.72699%, 58.053589%, 25.891113%)" offset="0.03125"/><stop stop-opacity="1" stop-color="rgb(21.955872%, 58.151245%, 25.87738%)" offset="0.0390625"/><stop stop-opacity="1" stop-color="rgb(22.158813%, 58.236694%, 25.865173%)" offset="0.046875"/><stop stop-opacity="1" stop-color="rgb(22.360229%, 58.322144%, 25.85144%)" offset="0.0487098"/><stop stop-opacity="1" stop-color="rgb(22.460938%, 58.364868%, 25.845337%)" offset="0.0546875"/><stop stop-opacity="1" stop-color="rgb(22.561646%, 58.407593%, 25.839233%)" offset="0.0625"/><stop stop-opacity="1" stop-color="rgb(22.763062%, 58.493042%, 25.827026%)" offset="0.0703125"/><stop stop-opacity="1" stop-color="rgb(22.966003%, 58.580017%, 25.814819%)" offset="0.078125"/><stop stop-opacity="1" stop-color="rgb(23.167419%, 58.665466%, 25.802612%)" offset="0.0859375"/><stop stop-opacity="1" stop-color="rgb(23.368835%, 58.750916%, 25.790405%)" offset="0.09375"/><stop stop-opacity="1" stop-color="rgb(23.571777%, 58.836365%, 25.776672%)" offset="0.101562"/><stop stop-opacity="1" stop-color="rgb(23.773193%, 58.921814%, 25.764465%)" offset="0.109375"/><stop stop-opacity="1" stop-color="rgb(23.974609%, 59.008789%, 25.752258%)" offset="0.117188"/><stop stop-opacity="1" stop-color="rgb(24.176025%, 59.094238%, 25.740051%)" offset="0.125"/><stop stop-opacity="1" stop-color="rgb(24.378967%, 59.179688%, 25.727844%)" offset="0.132812"/><stop stop-opacity="1" stop-color="rgb(24.580383%, 59.265137%, 25.715637%)" offset="0.140625"/><stop stop-opacity="1" stop-color="rgb(24.781799%, 59.350586%, 25.701904%)" offset="0.148438"/><stop stop-opacity="1" stop-color="rgb(24.983215%, 59.436035%, 25.689697%)" offset="0.15625"/><stop stop-opacity="1" stop-color="rgb(25.186157%, 59.52301%, 25.67749%)" offset="0.164062"/><stop stop-opacity="1" stop-color="rgb(25.387573%, 59.608459%, 25.665283%)" offset="0.171875"/><stop stop-opacity="1" stop-color="rgb(25.588989%, 59.693909%, 25.653076%)" offset="0.179688"/><stop stop-opacity="1" stop-color="rgb(25.790405%, 59.779358%, 25.640869%)" offset="0.1875"/><stop stop-opacity="1" stop-color="rgb(25.993347%, 59.864807%, 25.627136%)" offset="0.195313"/><stop stop-opacity="1" stop-color="rgb(26.194763%, 59.950256%, 25.614929%)" offset="0.203125"/><stop stop-opacity="1" stop-color="rgb(26.396179%, 60.037231%, 25.602722%)" offset="0.210938"/><stop stop-opacity="1" stop-color="rgb(26.599121%, 60.122681%, 25.590515%)" offset="0.21875"/><stop stop-opacity="1" stop-color="rgb(26.800537%, 60.20813%, 25.578308%)" offset="0.226562"/><stop stop-opacity="1" stop-color="rgb(27.001953%, 60.293579%, 25.564575%)" offset="0.234375"/><stop stop-opacity="1" stop-color="rgb(27.203369%, 60.379028%, 25.552368%)" offset="0.242188"/><stop stop-opacity="1" stop-color="rgb(27.406311%, 60.466003%, 25.540161%)" offset="0.25"/><stop stop-opacity="1" stop-color="rgb(27.607727%, 60.551453%, 25.527954%)" offset="0.257812"/><stop stop-opacity="1" stop-color="rgb(27.809143%, 60.636902%, 25.515747%)" offset="0.265625"/><stop stop-opacity="1" stop-color="rgb(28.010559%, 60.722351%, 25.50354%)" offset="0.273438"/><stop stop-opacity="1" stop-color="rgb(28.213501%, 60.8078%, 25.489807%)" offset="0.28125"/><stop stop-opacity="1" stop-color="rgb(28.414917%, 60.89325%, 25.4776%)" offset="0.289062"/><stop stop-opacity="1" stop-color="rgb(28.616333%, 60.980225%, 25.465393%)" offset="0.296875"/><stop stop-opacity="1" stop-color="rgb(28.817749%, 61.065674%, 25.453186%)" offset="0.304688"/><stop stop-opacity="1" stop-color="rgb(29.020691%, 61.151123%, 25.440979%)" offset="0.3125"/><stop stop-opacity="1" stop-color="rgb(29.222107%, 61.236572%, 25.428772%)" offset="0.320313"/><stop stop-opacity="1" stop-color="rgb(29.423523%, 61.322021%, 25.415039%)" offset="0.328125"/><stop stop-opacity="1" stop-color="rgb(29.624939%, 61.407471%, 25.402832%)" offset="0.335938"/><stop stop-opacity="1" stop-color="rgb(29.827881%, 61.494446%, 25.390625%)" offset="0.34375"/><stop stop-opacity="1" stop-color="rgb(30.029297%, 61.579895%, 25.378418%)" offset="0.351563"/><stop stop-opacity="1" stop-color="rgb(30.230713%, 61.665344%, 25.366211%)" offset="0.359375"/><stop stop-opacity="1" stop-color="rgb(30.433655%, 61.750793%, 25.354004%)" offset="0.367188"/><stop stop-opacity="1" stop-color="rgb(30.635071%, 61.836243%, 25.340271%)" offset="0.375"/><stop stop-opacity="1" stop-color="rgb(30.836487%, 61.921692%, 25.328064%)" offset="0.382812"/><stop stop-opacity="1" stop-color="rgb(31.037903%, 62.008667%, 25.315857%)" offset="0.390625"/><stop stop-opacity="1" stop-color="rgb(31.240845%, 62.094116%, 25.30365%)" offset="0.398437"/><stop stop-opacity="1" stop-color="rgb(31.442261%, 62.179565%, 25.291443%)" offset="0.40625"/><stop stop-opacity="1" stop-color="rgb(31.643677%, 62.265015%, 25.279236%)" offset="0.414063"/><stop stop-opacity="1" stop-color="rgb(31.845093%, 62.350464%, 25.265503%)" offset="0.421875"/><stop stop-opacity="1" stop-color="rgb(32.048035%, 62.437439%, 25.253296%)" offset="0.429688"/><stop stop-opacity="1" stop-color="rgb(32.249451%, 62.522888%, 25.241089%)" offset="0.4375"/><stop stop-opacity="1" stop-color="rgb(32.450867%, 62.608337%, 25.228882%)" offset="0.445312"/><stop stop-opacity="1" stop-color="rgb(32.652283%, 62.693787%, 25.216675%)" offset="0.453125"/><stop stop-opacity="1" stop-color="rgb(32.855225%, 62.779236%, 25.204468%)" offset="0.460938"/><stop stop-opacity="1" stop-color="rgb(33.056641%, 62.864685%, 25.190735%)" offset="0.46875"/><stop stop-opacity="1" stop-color="rgb(33.258057%, 62.95166%, 25.178528%)" offset="0.476562"/><stop stop-opacity="1" stop-color="rgb(33.460999%, 63.037109%, 25.166321%)" offset="0.484375"/><stop stop-opacity="1" stop-color="rgb(33.662415%, 63.122559%, 25.154114%)" offset="0.492187"/><stop stop-opacity="1" stop-color="rgb(33.863831%, 63.208008%, 25.141907%)" offset="0.5"/><stop stop-opacity="1" stop-color="rgb(34.065247%, 63.293457%, 25.1297%)" offset="0.507812"/><stop stop-opacity="1" stop-color="rgb(34.268188%, 63.378906%, 25.115967%)" offset="0.515625"/><stop stop-opacity="1" stop-color="rgb(34.469604%, 63.465881%, 25.10376%)" offset="0.523438"/><stop stop-opacity="1" stop-color="rgb(34.671021%, 63.551331%, 25.091553%)" offset="0.53125"/><stop stop-opacity="1" stop-color="rgb(34.872437%, 63.63678%, 25.079346%)" offset="0.539062"/><stop stop-opacity="1" stop-color="rgb(35.075378%, 63.722229%, 25.067139%)" offset="0.546875"/><stop stop-opacity="1" stop-color="rgb(35.276794%, 63.807678%, 25.053406%)" offset="0.554687"/><stop stop-opacity="1" stop-color="rgb(35.47821%, 63.893127%, 25.041199%)" offset="0.5625"/><stop stop-opacity="1" stop-color="rgb(35.679626%, 63.980103%, 25.028992%)" offset="0.570313"/><stop stop-opacity="1" stop-color="rgb(35.882568%, 64.065552%, 25.016785%)" offset="0.578125"/><stop stop-opacity="1" stop-color="rgb(36.083984%, 64.151001%, 25.004578%)" offset="0.585938"/><stop stop-opacity="1" stop-color="rgb(36.2854%, 64.23645%, 24.992371%)" offset="0.59375"/><stop stop-opacity="1" stop-color="rgb(36.486816%, 64.321899%, 24.978638%)" offset="0.601562"/><stop stop-opacity="1" stop-color="rgb(36.689758%, 64.408875%, 24.966431%)" offset="0.609375"/><stop stop-opacity="1" stop-color="rgb(36.891174%, 64.494324%, 24.954224%)" offset="0.617188"/><stop stop-opacity="1" stop-color="rgb(37.09259%, 64.579773%, 24.942017%)" offset="0.625"/><stop stop-opacity="1" stop-color="rgb(37.295532%, 64.665222%, 24.92981%)" offset="0.632812"/><stop stop-opacity="1" stop-color="rgb(37.496948%, 64.750671%, 24.917603%)" offset="0.640625"/><stop stop-opacity="1" stop-color="rgb(37.698364%, 64.836121%, 24.90387%)" offset="0.648437"/><stop stop-opacity="1" stop-color="rgb(37.89978%, 64.923096%, 24.891663%)" offset="0.65625"/><stop stop-opacity="1" stop-color="rgb(38.102722%, 65.008545%, 24.879456%)" offset="0.664063"/><stop stop-opacity="1" stop-color="rgb(38.304138%, 65.093994%, 24.867249%)" offset="0.671875"/><stop stop-opacity="1" stop-color="rgb(38.505554%, 65.179443%, 24.855042%)" offset="0.679688"/><stop stop-opacity="1" stop-color="rgb(38.70697%, 65.264893%, 24.842834%)" offset="0.6875"/><stop stop-opacity="1" stop-color="rgb(38.909912%, 65.350342%, 24.829102%)" offset="0.695312"/><stop stop-opacity="1" stop-color="rgb(39.111328%, 65.437317%, 24.816895%)" offset="0.703125"/><stop stop-opacity="1" stop-color="rgb(39.312744%, 65.522766%, 24.804688%)" offset="0.710938"/><stop stop-opacity="1" stop-color="rgb(39.51416%, 65.608215%, 24.79248%)" offset="0.71875"/><stop stop-opacity="1" stop-color="rgb(39.717102%, 65.693665%, 24.780273%)" offset="0.726562"/><stop stop-opacity="1" stop-color="rgb(39.918518%, 65.779114%, 24.768066%)" offset="0.734375"/><stop stop-opacity="1" stop-color="rgb(40.119934%, 65.864563%, 24.754333%)" offset="0.742187"/><stop stop-opacity="1" stop-color="rgb(40.322876%, 65.951538%, 24.742126%)" offset="0.75"/><stop stop-opacity="1" stop-color="rgb(40.524292%, 66.036987%, 24.729919%)" offset="0.757813"/><stop stop-opacity="1" stop-color="rgb(40.725708%, 66.122437%, 24.717712%)" offset="0.765625"/><stop stop-opacity="1" stop-color="rgb(40.927124%, 66.207886%, 24.705505%)" offset="0.773438"/><stop stop-opacity="1" stop-color="rgb(41.130066%, 66.293335%, 24.693298%)" offset="0.78125"/><stop stop-opacity="1" stop-color="rgb(41.331482%, 66.38031%, 24.679565%)" offset="0.789062"/><stop stop-opacity="1" stop-color="rgb(41.532898%, 66.465759%, 24.667358%)" offset="0.796875"/><stop stop-opacity="1" stop-color="rgb(41.734314%, 66.551208%, 24.655151%)" offset="0.804688"/><stop stop-opacity="1" stop-color="rgb(41.937256%, 66.636658%, 24.642944%)" offset="0.8125"/><stop stop-opacity="1" stop-color="rgb(42.138672%, 66.722107%, 24.630737%)" offset="0.820312"/><stop stop-opacity="1" stop-color="rgb(42.340088%, 66.807556%, 24.61853%)" offset="0.828125"/><stop stop-opacity="1" stop-color="rgb(42.541504%, 66.894531%, 24.604797%)" offset="0.835937"/><stop stop-opacity="1" stop-color="rgb(42.744446%, 66.97998%, 24.59259%)" offset="0.84375"/><stop stop-opacity="1" stop-color="rgb(42.945862%, 67.06543%, 24.580383%)" offset="0.851563"/><stop stop-opacity="1" stop-color="rgb(43.147278%, 67.150879%, 24.568176%)" offset="0.859375"/><stop stop-opacity="1" stop-color="rgb(43.35022%, 67.236328%, 24.555969%)" offset="0.867188"/><stop stop-opacity="1" stop-color="rgb(43.551636%, 67.321777%, 24.542236%)" offset="0.875"/><stop stop-opacity="1" stop-color="rgb(43.753052%, 67.408752%, 24.530029%)" offset="0.882812"/><stop stop-opacity="1" stop-color="rgb(43.954468%, 67.494202%, 24.517822%)" offset="0.890625"/><stop stop-opacity="1" stop-color="rgb(44.15741%, 67.579651%, 24.505615%)" offset="0.898438"/><stop stop-opacity="1" stop-color="rgb(44.358826%, 67.6651%, 24.493408%)" offset="0.90625"/><stop stop-opacity="1" stop-color="rgb(44.560242%, 67.750549%, 24.481201%)" offset="0.914062"/><stop stop-opacity="1" stop-color="rgb(44.761658%, 67.835999%, 24.467468%)" offset="0.921875"/><stop stop-opacity="1" stop-color="rgb(44.9646%, 67.922974%, 24.455261%)" offset="0.929687"/><stop stop-opacity="1" stop-color="rgb(45.166016%, 68.008423%, 24.443054%)" offset="0.9375"/><stop stop-opacity="1" stop-color="rgb(45.367432%, 68.093872%, 24.430847%)" offset="0.945313"/><stop stop-opacity="1" stop-color="rgb(45.568848%, 68.179321%, 24.41864%)" offset="0.95129"/><stop stop-opacity="1" stop-color="rgb(45.671082%, 68.222046%, 24.412537%)" offset="0.953125"/><stop stop-opacity="1" stop-color="rgb(45.77179%, 68.264771%, 24.406433%)" offset="0.960938"/><stop stop-opacity="1" stop-color="rgb(45.973206%, 68.351746%, 24.3927%)" offset="0.96875"/><stop stop-opacity="1" stop-color="rgb(46.174622%, 68.437195%, 24.380493%)" offset="0.976562"/><stop stop-opacity="1" stop-color="rgb(46.376038%, 68.522644%, 24.368286%)" offset="0.984375"/><stop stop-opacity="1" stop-color="rgb(46.578979%, 68.608093%, 24.356079%)" offset="0.992188"/><stop stop-opacity="1" stop-color="rgb(46.780396%, 68.693542%, 24.343872%)" offset="1"/></linearGradient><clipPath id="91eec6edc0"><path d="M 60.410156 204.167969 L 314.089844 204.167969 L 314.089844 279.070312 L 60.410156 279.070312 Z M 60.410156 204.167969 " clip-rule="nonzero"/></clipPath><clipPath id="3618defb6e"><path d="M 187.214844 204.167969 C 117.179688 204.167969 60.410156 220.933594 60.410156 241.617188 C 60.410156 262.304688 117.179688 279.070312 187.214844 279.070312 C 257.246094 279.070312 314.015625 262.304688 314.015625 241.617188 C 314.015625 220.933594 257.246094 204.167969 187.214844 204.167969 Z M 187.214844 204.167969 " clip-rule="nonzero"/></clipPath></defs><g clip-path="url(#6b1669baee)"><g clip-path="url(#dbb6b737b7)"><path fill="url(#44ee6d78a7)" d="M 30 27.453125 L 30 347.609375 L 348.789062 347.609375 L 348.789062 27.453125 Z M 30 27.453125 " fill-rule="nonzero"/></g></g><path fill="#a7ca2d" d="M 67.210938 233.046875 C 67.210938 233.046875 126.527344 217.425781 205.308594 223.542969 C 284.09375 229.65625 327.109375 233.957031 308.09375 242.558594 C 289.074219 251.164062 185.613281 256.144531 173.839844 258.859375 C 162.066406 261.578125 126.75 264.519531 152.332031 272.214844 C 177.910156 279.910156 258.964844 282.855469 248.769531 295.304688 C 238.585938 307.757812 166.589844 305.265625 166.589844 305.265625 C 166.589844 305.265625 217.980469 297.792969 201.453125 291.003906 C 184.925781 284.210938 142.816406 283.980469 119.269531 278.777344 C 95.722656 273.566406 51.125 263.609375 110.894531 254.097656 C 170.660156 244.59375 217.523438 240.292969 189 235.539062 C 160.484375 230.785156 99.808594 231.695312 67.210938 233.046875 M 95.433594 119.148438 C 103.289062 108.550781 112.828125 99.441406 123.59375 92.125 C 134.355469 84.808594 146.332031 79.28125 159.070312 75.875 L 159.902344 79.003906 C 147.503906 82.324219 135.855469 87.6875 125.402344 94.804688 C 114.949219 101.914062 105.671875 110.773438 98.03125 121.078125 Z M 182.671875 72.078125 C 183.734375 72.019531 184.84375 71.96875 185.996094 71.9375 C 187.242188 71.902344 188.351562 71.882812 189.328125 71.882812 C 192.875 71.882812 196.464844 72.050781 200.078125 72.386719 C 203.660156 72.71875 207.222656 73.214844 210.742188 73.867188 L 210.15625 77.046875 C 206.710938 76.40625 203.25 75.921875 199.785156 75.605469 C 196.355469 75.289062 192.863281 75.128906 189.320312 75.128906 C 188.105469 75.128906 187.019531 75.140625 186.078125 75.167969 C 185.039062 75.195312 183.964844 75.242188 182.839844 75.308594 Z M 229.894531 79.148438 C 240.464844 83.058594 250.351562 88.449219 259.28125 95.121094 C 268.207031 101.785156 276.183594 109.734375 282.9375 118.761719 L 280.351562 120.703125 C 273.792969 111.9375 266.039062 104.207031 257.339844 97.71875 C 248.648438 91.230469 239.042969 85.984375 228.777344 82.1875 Z M 140.570312 104.351562 C 147.988281 100.070312 155.898438 96.804688 164.089844 94.601562 C 172.289062 92.40625 180.773438 91.277344 189.328125 91.277344 C 197.878906 91.277344 206.359375 92.40625 214.558594 94.601562 C 222.753906 96.796875 230.664062 100.0625 238.082031 104.351562 L 236.457031 107.152344 C 229.296875 103.015625 221.648438 99.859375 213.726562 97.734375 C 205.808594 95.613281 197.601562 94.523438 189.320312 94.523438 C 181.042969 94.523438 172.84375 95.613281 164.917969 97.734375 C 156.996094 99.855469 149.347656 103.011719 142.183594 107.152344 Z M 92.941406 92.40625 C 105.71875 79.632812 120.777344 69.65625 137.171875 62.863281 C 153.554688 56.078125 171.261719 52.480469 189.328125 52.480469 C 207.390625 52.480469 225.09375 56.070312 241.488281 62.863281 C 257.878906 69.648438 272.9375 79.632812 285.714844 92.40625 L 283.421875 94.695312 C 270.941406 82.214844 256.238281 72.46875 240.253906 65.851562 C 224.265625 59.226562 206.988281 55.726562 189.328125 55.726562 C 171.671875 55.726562 154.382812 59.234375 138.402344 65.851562 C 122.421875 72.46875 107.726562 82.214844 95.238281 94.695312 Z M 322.585938 76.816406 C 321.953125 76.925781 321.5625 78.191406 321.355469 80.144531 C 320.023438 83.394531 318.035156 87.582031 317.355469 87.554688 C 313.742188 87.433594 314.804688 85.777344 316.425781 90.953125 C 317.679688 94.953125 321.730469 98.433594 312.824219 94.179688 C 309.40625 92.550781 312.527344 94.554688 314.46875 98.035156 C 317.128906 102.808594 319.273438 103.089844 308.765625 102.75 C 305.210938 102.632812 305.5 101.289062 309.21875 105.863281 C 309.902344 106.707031 313.539062 110.316406 315.222656 110.171875 C 312.1875 110.953125 297.996094 111.214844 309.257812 114.925781 C 314.925781 116.789062 310.820312 118.203125 306.445312 118.203125 C 300.628906 118.203125 301.066406 117.226562 306.644531 122.558594 C 307.992188 123.84375 311.949219 123.421875 314.796875 126.847656 C 314.546875 127.433594 306.417969 127.496094 305.359375 126.585938 C 304.066406 125.476562 301.476562 129.175781 309.882812 131.289062 C 318.199219 133.378906 295.859375 131.871094 305.890625 134.011719 C 307.230469 134.292969 315.632812 135.539062 314.246094 135.679688 C 314.132812 135.875 310.867188 138.320312 310.339844 138.84375 C 307.265625 141.921875 303.433594 145.003906 298.882812 144.695312 C 298.292969 145.582031 312.429688 144.40625 314.292969 144.40625 C 312.132812 143.914062 309.984375 150.996094 304.519531 151.613281 C 304.15625 151.65625 296.664062 153.128906 296.613281 153.554688 C 301.292969 158.003906 313.160156 159.902344 313.621094 160.191406 C 310.867188 161.363281 298.730469 162.242188 295.148438 161.859375 C 294.886719 162.136719 308.773438 168.371094 312.523438 168.746094 C 314.8125 168.976562 303.792969 169.414062 301.972656 169.175781 C 303.75 171.175781 316.078125 172.535156 305.230469 172.339844 C 304.960938 172.335938 291.984375 172.746094 291.890625 172.886719 C 292.535156 173.679688 304.566406 178.527344 298.898438 179.066406 C 298.175781 179.132812 291.511719 180.027344 291.1875 180.351562 C 295.019531 183.8125 304.316406 184.308594 296.589844 185.179688 C 291.5 185.75 285.527344 184 296.636719 188.222656 C 301.523438 190.078125 305.910156 188.179688 295.910156 191.359375 C 288.652344 193.667969 284.828125 189.292969 295.492188 197.566406 C 306.066406 205.769531 313.390625 198.050781 319.738281 196.546875 L 319.738281 210.019531 C 321.652344 210.449219 323.5625 210.894531 325.46875 211.351562 L 325.46875 196.546875 C 331.816406 198.054688 339.140625 205.777344 349.714844 197.566406 C 360.378906 189.292969 356.554688 193.660156 349.300781 191.359375 C 339.296875 188.179688 343.683594 190.078125 348.570312 188.222656 C 359.671875 184 353.707031 185.75 348.617188 185.179688 C 340.890625 184.308594 350.179688 183.8125 354.019531 180.351562 C 353.695312 180.027344 347.03125 179.132812 346.308594 179.066406 C 340.640625 178.527344 352.671875 173.679688 353.316406 172.886719 C 353.222656 172.746094 340.246094 172.335938 339.976562 172.339844 C 329.125 172.535156 341.449219 171.175781 343.234375 169.175781 C 341.410156 169.414062 330.394531 168.976562 332.683594 168.746094 C 336.441406 168.371094 350.328125 162.136719 350.066406 161.859375 C 346.476562 162.242188 334.339844 161.363281 331.59375 160.191406 C 332.050781 159.902344 343.921875 158.003906 348.597656 153.554688 C 348.550781 153.128906 341.058594 151.65625 340.695312 151.613281 C 335.230469 150.996094 333.082031 143.914062 330.921875 144.40625 C 332.777344 144.40625 346.921875 145.574219 346.332031 144.695312 C 341.78125 145.003906 337.949219 141.921875 334.871094 138.84375 C 334.347656 138.320312 331.082031 135.875 330.96875 135.679688 C 329.582031 135.539062 337.984375 134.292969 339.320312 134.011719 C 349.351562 131.871094 327.015625 133.378906 335.332031 131.289062 C 343.738281 129.175781 341.148438 125.480469 339.855469 126.585938 C 338.796875 127.496094 330.664062 127.441406 330.414062 126.847656 C 333.257812 123.429688 337.222656 123.84375 338.566406 122.558594 C 344.148438 117.226562 344.585938 118.203125 338.769531 118.203125 C 334.394531 118.203125 330.289062 116.789062 335.957031 114.925781 C 347.210938 111.214844 333.027344 110.953125 329.992188 110.171875 C 331.667969 110.316406 335.308594 106.707031 335.996094 105.863281 C 339.71875 101.289062 340.007812 102.632812 336.449219 102.75 C 325.9375 103.089844 328.085938 102.800781 330.746094 98.035156 C 332.683594 94.554688 335.808594 92.550781 332.386719 94.179688 C 323.480469 98.433594 327.527344 94.953125 328.785156 90.953125 C 330.410156 85.777344 331.472656 87.433594 327.859375 87.554688 C 327.179688 87.582031 325.199219 83.394531 323.859375 80.144531 C 323.609375 78.199219 323.21875 76.925781 322.585938 76.816406 Z M 61.878906 37.699219 C 61.085938 37.832031 60.601562 39.414062 60.347656 41.859375 C 58.675781 45.925781 56.191406 51.15625 55.34375 51.128906 C 50.820312 50.972656 52.152344 48.914062 54.1875 55.382812 C 55.753906 60.378906 60.816406 64.734375 49.675781 59.414062 C 45.402344 57.375 49.304688 59.886719 51.734375 64.234375 C 55.0625 70.199219 57.742188 70.558594 44.601562 70.132812 C 40.148438 69.992188 40.511719 68.308594 45.164062 74.03125 C 46.019531 75.082031 50.578125 79.597656 52.671875 79.414062 C 48.875 80.390625 31.128906 80.722656 45.210938 85.359375 C 52.300781 87.695312 47.164062 89.464844 41.691406 89.464844 C 34.414062 89.464844 34.960938 88.242188 41.941406 94.914062 C 43.625 96.519531 48.578125 95.996094 52.140625 100.277344 C 51.824219 101.019531 41.652344 101.085938 40.332031 99.949219 C 38.714844 98.5625 35.472656 103.1875 45.988281 105.832031 C 56.378906 108.441406 28.449219 106.558594 40.992188 109.238281 C 42.667969 109.59375 53.175781 111.148438 51.441406 111.324219 C 51.296875 111.566406 47.21875 114.621094 46.558594 115.277344 C 42.714844 119.125 37.921875 122.976562 32.226562 122.59375 C 31.484375 123.699219 49.171875 122.238281 51.492188 122.238281 C 48.792969 121.625 46.109375 130.476562 39.273438 131.257812 C 38.816406 131.3125 29.445312 133.15625 29.390625 133.6875 C 35.25 139.253906 50.09375 141.625 50.664062 141.988281 C 47.226562 143.449219 32.042969 144.558594 27.554688 144.074219 C 27.226562 144.417969 44.601562 152.21875 49.292969 152.683594 C 52.152344 152.972656 38.371094 153.519531 36.097656 153.222656 C 38.324219 155.71875 53.742188 157.421875 40.171875 157.175781 C 39.832031 157.167969 23.597656 157.6875 23.480469 157.859375 C 24.289062 158.859375 39.335938 164.921875 32.246094 165.597656 C 31.34375 165.683594 23.011719 166.800781 22.605469 167.203125 C 27.398438 171.535156 39.027344 172.160156 29.359375 173.242188 C 22.992188 173.964844 15.523438 171.769531 29.414062 177.054688 C 35.523438 179.375 41.019531 177 28.503906 180.976562 C 19.429688 183.867188 14.644531 178.394531 27.980469 188.738281 C 41.207031 199.003906 50.363281 189.347656 58.304688 187.46875 L 58.304688 210.375 C 60.6875 209.832031 63.078125 209.296875 65.46875 208.785156 L 65.46875 187.46875 C 73.414062 189.351562 82.566406 199.011719 95.796875 188.738281 C 109.132812 178.394531 104.351562 183.859375 95.269531 180.976562 C 82.757812 177 88.25 179.375 94.363281 177.054688 C 108.25 171.769531 100.785156 173.964844 94.421875 173.242188 C 84.753906 172.152344 96.375 171.535156 101.175781 167.203125 C 100.769531 166.800781 92.429688 165.675781 91.535156 165.597656 C 84.4375 164.921875 99.492188 158.859375 100.292969 157.859375 C 100.179688 157.6875 83.941406 157.167969 83.605469 157.175781 C 70.03125 157.421875 85.457031 155.71875 87.675781 153.222656 C 85.402344 153.519531 71.621094 152.972656 74.484375 152.683594 C 79.175781 152.214844 96.542969 144.417969 96.21875 144.074219 C 91.738281 144.550781 76.554688 143.449219 73.117188 141.988281 C 73.6875 141.625 88.53125 139.253906 94.390625 133.6875 C 94.335938 133.15625 84.964844 131.3125 84.507812 131.257812 C 77.671875 130.484375 74.988281 121.628906 72.289062 122.238281 C 74.617188 122.238281 92.300781 123.703125 91.554688 122.59375 C 85.859375 122.976562 81.074219 119.125 77.222656 115.277344 C 76.5625 114.617188 72.484375 111.558594 72.34375 111.324219 C 70.605469 111.148438 81.113281 109.59375 82.789062 109.238281 C 95.339844 106.558594 67.402344 108.441406 77.792969 105.832031 C 88.308594 103.191406 85.066406 98.566406 83.449219 99.949219 C 82.128906 101.085938 71.957031 101.011719 71.640625 100.277344 C 75.195312 95.996094 80.152344 96.519531 81.835938 94.914062 C 88.816406 88.242188 89.359375 89.464844 82.089844 89.464844 C 76.617188 89.464844 71.480469 87.695312 78.570312 85.359375 C 92.652344 80.730469 74.90625 80.390625 71.109375 79.414062 C 73.210938 79.597656 77.761719 75.082031 78.617188 74.03125 C 83.273438 68.308594 83.632812 69.992188 79.1875 70.132812 C 66.046875 70.558594 68.726562 70.199219 72.050781 64.234375 C 74.476562 59.886719 78.378906 57.375 74.105469 59.414062 C 62.964844 64.734375 68.027344 60.378906 69.59375 55.382812 C 71.621094 48.914062 72.953125 50.972656 68.429688 51.128906 C 67.582031 51.15625 65.105469 45.925781 63.4375 41.859375 C 63.160156 39.421875 62.675781 37.832031 61.878906 37.699219 Z M 189.726562 201.585938 C 240.707031 201.585938 288.234375 208.128906 328.28125 219.417969 C 313.808594 282.574219 257.265625 329.675781 189.726562 329.675781 C 122.183594 329.675781 65.644531 282.574219 51.171875 219.417969 C 91.21875 208.128906 138.746094 201.585938 189.726562 201.585938 Z M 189.726562 201.585938 " fill-opacity="1" fill-rule="evenodd"/><g clip-path="url(#91eec6edc0)"><g clip-path="url(#3618defb6e)"><path fill="#a7ca2d" d="M 60.410156 204.167969 L 314.089844 204.167969 L 314.089844 279.070312 L 60.410156 279.070312 Z M 60.410156 204.167969 " fill-opacity="1" fill-rule="nonzero"/></g></g></svg>