<svg xmlns="http://www.w3.org/2000/svg" xmlns:xlink="http://www.w3.org/1999/xlink" width="500" zoomAndPan="magnify" viewBox="0 0 375 374.999991" height="500" preserveAspectRatio="xMidYMid meet" version="1.0"><defs><clipPath id="f4ca74e27e"><path d="M 6.25 28.90625 L 368.5 28.90625 L 368.5 214 L 6.25 214 Z M 6.25 28.90625 " clip-rule="nonzero"/></clipPath></defs><path fill="#ffffff" d="M 202.898438 305.285156 L 173.777344 179.152344 L 164.046875 213.265625 L 30.292969 213.265625 C 42.410156 232.910156 59.445312 250.992188 80.714844 270.59375 C 115.382812 302.550781 145.761719 321.246094 187.371094 343.167969 C 228.996094 321.246094 259.375 302.550781 294.042969 270.59375 C 324.4375 242.582031 346.265625 217.675781 357.292969 186.851562 L 232 186.851562 L 202.898438 305.285156 " fill-opacity="1" fill-rule="nonzero"/><path fill="#231f20" d="M 202.898438 305.285156 L 205.628906 304.65625 L 176.503906 178.515625 C 176.21875 177.273438 175.125 176.378906 173.847656 176.347656 C 172.570312 176.3125 171.429688 177.148438 171.082031 178.378906 L 161.929688 210.460938 L 30.292969 210.460938 C 29.273438 210.460938 28.339844 211.007812 27.84375 211.898438 C 27.347656 212.789062 27.371094 213.871094 27.90625 214.738281 C 40.246094 234.734375 57.46875 252.976562 78.816406 272.65625 C 96.25 288.726562 112.640625 301.492188 129.886719 312.976562 C 147.132812 324.460938 165.21875 334.664062 186.066406 345.648438 C 186.886719 346.078125 187.855469 346.078125 188.675781 345.648438 C 209.53125 334.664062 227.621094 324.460938 244.867188 312.976562 C 262.113281 301.492188 278.503906 288.726562 295.9375 272.65625 C 311.195312 258.597656 324.355469 245.273438 335.136719 231.507812 C 345.914062 217.75 354.296875 203.539062 359.933594 187.796875 C 360.234375 186.9375 360.109375 185.980469 359.582031 185.234375 C 359.0625 184.492188 358.203125 184.046875 357.292969 184.046875 L 232 184.046875 C 230.714844 184.046875 229.585938 184.933594 229.28125 186.179688 L 200.179688 304.617188 L 202.898438 305.285156 L 205.628906 304.65625 L 202.898438 305.285156 L 205.621094 305.957031 L 234.195312 189.65625 L 357.292969 189.65625 L 357.292969 186.851562 L 354.652344 185.90625 C 349.257812 200.988281 341.222656 214.648438 330.726562 228.046875 C 320.230469 241.449219 307.285156 254.582031 292.140625 268.535156 C 274.90625 284.417969 258.777344 296.976562 241.761719 308.304688 C 224.75 319.636719 206.835938 329.746094 186.066406 340.683594 L 187.371094 343.167969 L 188.675781 340.683594 C 167.910156 329.746094 150.003906 319.636719 132.992188 308.304688 C 115.976562 296.976562 99.847656 284.417969 82.617188 268.535156 C 61.421875 249.003906 44.578125 231.089844 32.675781 211.792969 L 30.292969 213.265625 L 30.292969 216.070312 L 164.046875 216.070312 C 165.296875 216.070312 166.398438 215.242188 166.742188 214.039062 L 173.488281 190.371094 L 200.167969 305.917969 C 200.457031 307.179688 201.582031 308.082031 202.878906 308.089844 C 204.175781 308.097656 205.308594 307.214844 205.621094 305.957031 L 202.898438 305.285156 " fill-opacity="1" fill-rule="nonzero"/><path fill="#ffffff" d="M 176.019531 91.089844 L 203.5625 210.40625 L 214.765625 164.839844 L 363.089844 164.839844 C 364.625 156.125 365.457031 146.925781 365.457031 137 C 365.457031 78.832031 330.941406 31.675781 272.824219 31.675781 C 239.867188 31.675781 208.421875 53.367188 187.371094 76.039062 C 166.320312 53.367188 134.890625 31.675781 101.933594 31.675781 C 43.816406 31.675781 9.285156 78.832031 9.285156 137 C 9.285156 157.5625 12.722656 175.171875 19.128906 191.253906 L 147.457031 191.253906 L 176.019531 91.089844 " fill-opacity="1" fill-rule="nonzero"/><g clip-path="url(#f4ca74e27e)"><path fill="#231f20" d="M 176.019531 91.089844 L 173.289062 91.71875 L 200.832031 211.03125 C 201.125 212.292969 202.25 213.195312 203.539062 213.203125 C 204.835938 213.21875 205.976562 212.328125 206.28125 211.070312 L 216.960938 167.640625 L 363.089844 167.644531 C 364.453125 167.644531 365.613281 166.667969 365.847656 165.328125 C 367.414062 156.449219 368.261719 147.078125 368.261719 137 C 368.261719 107.367188 359.476562 80.386719 343.085938 60.726562 C 334.894531 50.902344 324.792969 42.917969 313 37.410156 C 301.207031 31.898438 287.726562 28.867188 272.824219 28.867188 C 255.71875 28.871094 239.171875 34.484375 224.253906 42.914062 C 209.332031 51.347656 196.015625 62.613281 185.320312 74.128906 L 187.371094 76.039062 L 189.425781 74.128906 C 178.730469 62.613281 165.414062 51.347656 150.496094 42.914062 C 135.582031 34.484375 119.039062 28.871094 101.933594 28.867188 C 87.023438 28.867188 73.542969 31.898438 61.753906 37.410156 C 44.054688 45.671875 30.191406 59.5 20.8125 76.773438 C 11.425781 94.046875 6.484375 114.773438 6.480469 137 C 6.480469 157.871094 9.984375 175.875 16.523438 192.292969 C 16.953125 193.363281 17.976562 194.058594 19.128906 194.058594 L 147.457031 194.058594 C 148.707031 194.058594 149.808594 193.230469 150.148438 192.027344 L 178.710938 91.859375 L 176.019531 91.089844 L 173.289062 91.71875 L 176.019531 91.089844 L 173.324219 90.316406 L 145.34375 188.449219 L 19.128906 188.449219 L 19.128906 191.253906 L 21.730469 190.214844 C 15.460938 174.46875 12.089844 157.253906 12.085938 137 C 12.085938 108.464844 20.566406 82.78125 35.96875 64.320312 C 43.667969 55.085938 53.097656 47.644531 64.121094 42.492188 C 75.148438 37.34375 87.78125 34.480469 101.933594 34.480469 C 117.789062 34.476562 133.4375 39.710938 147.742188 47.796875 C 162.039062 55.878906 174.964844 66.792969 185.320312 77.953125 C 185.847656 78.519531 186.59375 78.84375 187.371094 78.84375 C 188.152344 78.84375 188.890625 78.519531 189.425781 77.953125 C 199.78125 66.792969 212.703125 55.878906 227.007812 47.796875 C 241.316406 39.710938 256.96875 34.476562 272.824219 34.476562 C 286.976562 34.480469 299.605469 37.34375 310.628906 42.492188 C 327.164062 50.21875 340.125 63.105469 349.007812 79.449219 C 357.894531 95.796875 362.660156 115.601562 362.65625 137 C 362.65625 146.769531 361.84375 155.800781 360.332031 164.347656 L 363.089844 164.839844 L 363.089844 162.03125 L 214.765625 162.03125 C 213.480469 162.03125 212.355469 162.917969 212.042969 164.164062 L 203.644531 198.320312 L 178.746094 90.457031 C 178.460938 89.214844 177.367188 88.320312 176.089844 88.285156 C 174.816406 88.253906 173.675781 89.085938 173.324219 90.316406 L 176.019531 91.089844 " fill-opacity="1" fill-rule="nonzero"/></g></svg>