<svg xmlns="http://www.w3.org/2000/svg" xmlns:xlink="http://www.w3.org/1999/xlink" width="500" zoomAndPan="magnify" viewBox="0 0 375 374.999991" height="500" preserveAspectRatio="xMidYMid meet" version="1.0"><defs><clipPath id="10d3542b87"><path d="M 13.195312 13.195312 L 361.945312 13.195312 L 361.945312 361.945312 L 13.195312 361.945312 Z M 13.195312 13.195312 " clip-rule="nonzero"/></clipPath></defs><g clip-path="url(#10d3542b87)"><path fill="#2b2b2b" d="M 273.171875 361.945312 L 101.96875 361.945312 C 53.140625 361.945312 13.195312 321.996094 13.195312 273.171875 L 13.195312 101.96875 C 13.195312 53.140625 53.140625 13.195312 101.96875 13.195312 L 273.171875 13.195312 C 321.996094 13.195312 361.945312 53.140625 361.945312 101.96875 L 361.945312 273.171875 C 361.945312 321.996094 321.996094 361.945312 273.171875 361.945312 Z M 273.171875 361.945312 " fill-opacity="1" fill-rule="nonzero"/></g><path fill="#ffffff" d="M 282.554688 195.9375 C 279.574219 197.207031 276.023438 200.441406 268.988281 206.847656 C 267.339844 208.367188 265.4375 210.078125 263.34375 211.980469 L 249.203125 224.855469 C 234.871094 237.851562 219.78125 241.46875 207.289062 241.46875 C 199.742188 241.46875 193.148438 240.136719 188.265625 238.742188 L 147.558594 226.882812 C 143.5 229.039062 139.503906 231.003906 135.636719 232.96875 C 108.816406 246.414062 87.636719 257.003906 75.777344 293.273438 C 75.019531 295.554688 75.273438 297.648438 76.476562 299.738281 C 77.679688 301.832031 79.394531 303.039062 81.738281 303.542969 L 84.277344 304.117188 C 87.257812 304.75 90.046875 303.796875 92.011719 301.453125 C 103.679688 287.691406 125.9375 269.367188 136.96875 264.484375 C 138.171875 263.914062 139.503906 263.660156 140.773438 263.660156 C 144.199219 263.660156 147.558594 265.5 149.332031 268.734375 C 151.679688 272.980469 151.554688 278.054688 151.488281 282.9375 C 151.363281 289.023438 151.300781 294.792969 155.421875 298.980469 C 160.746094 304.367188 172.796875 307.09375 191.246094 307.09375 C 200.949219 307.09375 210.523438 305.257812 219.589844 301.640625 C 224.21875 299.804688 228.722656 297.773438 233.035156 295.746094 C 250.597656 287.183594 265.878906 274.441406 277.230469 258.839844 C 288.007812 244.003906 295.300781 226.503906 298.28125 208.242188 C 298.980469 204.183594 299.421875 200.0625 299.613281 196.003906 C 298.027344 195.875 296.570312 195.75 295.238281 195.621094 C 288.390625 195.050781 285.28125 194.796875 282.554688 195.9375 Z M 167.785156 260.617188 C 163.15625 260.617188 159.351562 256.8125 159.351562 252.183594 C 159.351562 247.554688 163.15625 243.75 167.785156 243.75 C 172.414062 243.75 176.21875 247.554688 176.21875 252.183594 C 176.21875 256.8125 172.476562 260.617188 167.785156 260.617188 Z M 187.378906 290.988281 C 182.75 290.988281 178.945312 287.183594 178.945312 282.554688 C 178.945312 277.925781 182.75 274.121094 187.378906 274.121094 C 192.007812 274.121094 195.8125 277.925781 195.8125 282.554688 C 195.875 287.183594 192.070312 290.988281 187.378906 290.988281 Z M 263.914062 257.507812 C 254.148438 269.304688 242.101562 278.75 228.085938 285.535156 C 224.09375 287.503906 219.84375 289.339844 215.40625 291.117188 C 214.898438 291.308594 214.390625 291.433594 213.882812 291.433594 C 212.234375 291.433594 210.648438 290.417969 210.015625 288.832031 C 209.191406 286.679688 210.207031 284.269531 212.363281 283.445312 C 216.609375 281.730469 220.667969 279.957031 224.472656 278.117188 C 237.410156 271.839844 248.503906 263.152344 257.507812 252.246094 C 258.96875 250.472656 261.632812 250.21875 263.40625 251.675781 C 265.117188 253.132812 265.371094 255.734375 263.914062 257.507812 Z M 263.914062 257.507812 " fill-opacity="1" fill-rule="nonzero"/><path fill="#ffffff" d="M 162.714844 118.261719 C 165.820312 119.722656 167.722656 122.828125 167.722656 126.1875 C 167.660156 131.515625 168.609375 136.714844 170.449219 141.789062 C 176.601562 158.210938 179.261719 172.859375 178.25 185.351562 C 177.042969 201.140625 170.132812 213.1875 157.703125 221.238281 L 190.484375 230.75 C 204.246094 234.746094 224.535156 235.886719 243.496094 218.703125 L 257.636719 205.832031 C 259.730469 203.929688 261.566406 202.21875 263.28125 200.695312 C 278.816406 186.492188 280.019531 185.984375 295.808594 187.316406 C 297.011719 187.441406 298.28125 187.507812 299.675781 187.632812 C 299.550781 176.347656 297.835938 165.1875 294.476562 154.535156 C 288.769531 136.207031 278.816406 119.910156 264.929688 106.277344 C 249.457031 91.0625 232.96875 83.386719 215.851562 83.386719 C 208.175781 83.386719 200.566406 84.972656 193.210938 88.082031 C 186.492188 90.933594 180.65625 95.4375 176.21875 101.207031 C 173.554688 104.757812 168.609375 105.644531 164.804688 103.363281 C 153.898438 96.832031 146.164062 85.925781 143.5 73.496094 C 142.800781 70.324219 139.949219 67.980469 136.714844 67.980469 L 136.398438 67.980469 C 134.304688 67.980469 132.339844 68.929688 131.007812 70.515625 C 129.675781 72.164062 129.167969 74.257812 129.613281 76.351562 C 133.609375 94.613281 145.910156 110.210938 162.714844 118.261719 Z M 251.230469 114.394531 C 252.878906 112.746094 255.480469 112.746094 257.128906 114.332031 C 272.601562 129.550781 282.875 148.761719 286.742188 169.816406 C 287.183594 172.097656 285.664062 174.253906 283.378906 174.699219 C 283.125 174.761719 282.875 174.761719 282.621094 174.761719 C 280.652344 174.761719 278.878906 173.367188 278.5 171.335938 C 274.945312 151.933594 265.5 134.304688 251.230469 120.292969 C 249.648438 118.644531 249.582031 116.042969 251.230469 114.394531 Z M 251.230469 114.394531 " fill-opacity="1" fill-rule="nonzero"/></svg>