<svg xmlns="http://www.w3.org/2000/svg" xmlns:xlink="http://www.w3.org/1999/xlink" width="500" zoomAndPan="magnify" viewBox="0 0 375 374.999991" height="500" preserveAspectRatio="xMidYMid meet" version="1.0"><defs><clipPath id="124f315cb7"><path d="M 8.796875 22 L 182 22 L 182 366.546875 L 8.796875 366.546875 Z M 8.796875 22 " clip-rule="nonzero"/></clipPath><clipPath id="89d2b1b3e6"><path d="M 70 8.796875 L 237 8.796875 L 237 188 L 70 188 Z M 70 8.796875 " clip-rule="nonzero"/></clipPath><clipPath id="8467a65ee4"><path d="M 165 55 L 366.546875 55 L 366.546875 344 L 165 344 Z M 165 55 " clip-rule="nonzero"/></clipPath><clipPath id="5c973973b8"><path d="M 48 8.796875 L 308 8.796875 L 308 366.546875 L 48 366.546875 Z M 48 8.796875 " clip-rule="nonzero"/></clipPath></defs><g clip-path="url(#124f315cb7)"><path fill="#656263" d="M 51.089844 165.300781 C 59.519531 138.414062 85.257812 81.121094 118.042969 22.816406 C 53.855469 49.925781 8.808594 113.457031 8.808594 187.511719 C 8.808594 284.042969 85.351562 362.695312 181.050781 366.097656 L 64.664062 225.128906 C 49.703125 209.082031 44.527344 186.234375 51.089844 165.300781 " fill-opacity="1" fill-rule="nonzero"/></g><g clip-path="url(#89d2b1b3e6)"><path fill="#656263" d="M 117.941406 146.394531 C 113.738281 140.996094 108.757812 137.472656 104.898438 135.320312 C 100.421875 132.824219 95.109375 132.210938 90.21875 133.75 C 78.925781 137.316406 70.757812 147.910156 70.84375 160.402344 C 70.949219 175.476562 83.652344 188.019531 98.726562 187.941406 C 105.703125 187.90625 112.070312 185.289062 116.925781 181.003906 C 121.054688 185.285156 126.847656 187.941406 133.261719 187.941406 C 145.738281 187.9375 155.953125 177.710938 155.945312 165.234375 C 155.945312 161.511719 155.046875 158 153.457031 154.902344 C 151.507812 151.113281 147.800781 148.492188 143.558594 148.109375 C 143.417969 148.09375 143.277344 148.085938 143.136719 148.074219 C 143.136719 148.074219 146.957031 147.621094 149.863281 149.546875 L 236.804688 15.695312 C 222.9375 11.726562 208.382812 9.390625 193.359375 8.910156 L 99.851562 130.984375 C 110.078125 134.207031 117.941406 146.394531 117.941406 146.394531 " fill-opacity="1" fill-rule="nonzero"/></g><path fill="#656263" d="M 157.03125 225.019531 C 157.15625 225.015625 157.28125 225.003906 157.402344 224.992188 C 161.136719 224.652344 164.398438 222.351562 166.109375 219.015625 C 167.507812 216.292969 168.296875 213.199219 168.300781 209.929688 C 168.304688 198.953125 159.320312 189.960938 148.347656 189.957031 C 142.703125 189.953125 137.609375 192.296875 133.976562 196.058594 C 129.707031 192.285156 124.109375 189.988281 117.972656 189.957031 C 104.710938 189.886719 93.539062 200.917969 93.449219 214.179688 C 93.371094 225.164062 100.554688 234.484375 110.488281 237.621094 C 114.789062 238.976562 119.460938 238.4375 123.402344 236.238281 C 126.796875 234.347656 131.175781 231.246094 134.871094 226.5 C 134.871094 226.5 127.957031 237.21875 118.964844 240.054688 L 208.371094 365.007812 C 222.355469 363.382812 235.84375 360.140625 248.652344 355.476562 L 162.949219 223.726562 C 160.390625 225.421875 157.03125 225.019531 157.03125 225.019531 " fill-opacity="1" fill-rule="nonzero"/><path fill="#656263" d="M 98.742188 191.300781 L 98.585938 191.300781 C 90.429688 191.300781 82.679688 188.066406 76.757812 182.191406 C 75.328125 180.773438 74.050781 179.242188 72.9375 177.628906 C 68.441406 182.488281 66.472656 191.140625 68.421875 200.246094 C 71.136719 212.949219 80.441406 221.734375 89.207031 219.863281 C 89.667969 219.761719 90.121094 219.636719 90.558594 219.480469 C 90.238281 217.742188 90.074219 215.960938 90.085938 214.15625 C 90.140625 206.871094 93.078125 199.972656 98.363281 194.726562 C 98.917969 194.175781 99.492188 193.652344 100.085938 193.15625 C 99.941406 192.515625 99.789062 191.894531 99.613281 191.277344 C 99.324219 191.289062 99.035156 191.300781 98.742188 191.300781 " fill-opacity="1" fill-rule="nonzero"/><g clip-path="url(#8467a65ee4)"><path fill="#656263" d="M 366.214844 187.511719 C 366.214844 135.144531 343.6875 88.035156 307.796875 55.355469 C 223.828125 153.050781 180.554688 176.953125 180.554688 176.953125 L 165.769531 182.441406 C 165.769531 182.441406 173.390625 181.171875 183.238281 178.984375 C 222.351562 209.015625 264.878906 318.058594 274.476562 343.664062 C 329.199219 313.121094 366.214844 254.636719 366.214844 187.511719 " fill-opacity="1" fill-rule="nonzero"/></g><g clip-path="url(#5c973973b8)"><path fill="#fefefe" d="M 98.363281 194.726562 C 93.078125 199.972656 90.140625 206.871094 90.085938 214.15625 C 90.074219 215.960938 90.238281 217.742188 90.558594 219.480469 C 90.121094 219.636719 89.667969 219.761719 89.207031 219.863281 C 80.441406 221.734375 71.136719 212.949219 68.421875 200.246094 C 66.472656 191.140625 68.441406 182.488281 72.9375 177.628906 C 74.050781 179.242188 75.328125 180.773438 76.757812 182.191406 C 82.679688 188.066406 90.429688 191.300781 98.585938 191.300781 L 98.742188 191.300781 C 99.035156 191.300781 99.324219 191.289062 99.613281 191.277344 C 99.789062 191.894531 99.941406 192.515625 100.085938 193.15625 C 99.492188 193.652344 98.917969 194.175781 98.363281 194.726562 Z M 183.238281 178.984375 C 173.390625 181.171875 165.769531 182.441406 165.769531 182.441406 L 180.554688 176.953125 C 180.554688 176.953125 223.828125 153.050781 307.796875 55.355469 C 287.765625 37.113281 263.570312 23.363281 236.804688 15.695312 L 149.863281 149.546875 C 146.957031 147.621094 143.136719 148.074219 143.136719 148.074219 C 143.277344 148.085938 143.417969 148.09375 143.558594 148.109375 C 147.800781 148.492188 151.507812 151.113281 153.457031 154.902344 C 155.046875 158 155.945312 161.511719 155.945312 165.234375 C 155.953125 177.710938 145.738281 187.9375 133.261719 187.941406 C 126.847656 187.941406 121.054688 185.285156 116.925781 181.003906 C 112.070312 185.289062 105.703125 187.90625 98.726562 187.941406 C 83.652344 188.019531 70.949219 175.476562 70.84375 160.402344 C 70.757812 147.910156 78.925781 137.316406 90.21875 133.75 C 95.109375 132.210938 100.421875 132.824219 104.898438 135.320312 C 108.757812 137.472656 113.738281 140.996094 117.941406 146.394531 C 117.941406 146.394531 110.078125 134.207031 99.851562 130.984375 L 193.359375 8.910156 C 191.414062 8.847656 189.46875 8.808594 187.511719 8.808594 C 162.871094 8.808594 139.398438 13.796875 118.042969 22.816406 C 85.257812 81.121094 59.519531 138.414062 51.089844 165.300781 C 44.527344 186.234375 49.703125 209.082031 64.664062 225.128906 L 181.050781 366.097656 C 183.195312 366.171875 185.351562 366.214844 187.511719 366.214844 C 194.570312 366.214844 201.527344 365.804688 208.371094 365.007812 L 118.964844 240.054688 C 127.957031 237.21875 134.871094 226.5 134.871094 226.5 C 131.175781 231.246094 126.796875 234.347656 123.402344 236.238281 C 119.460938 238.4375 114.789062 238.976562 110.488281 237.621094 C 100.554688 234.484375 93.371094 225.164062 93.449219 214.179688 C 93.539062 200.917969 104.710938 189.886719 117.972656 189.957031 C 124.109375 189.988281 129.707031 192.285156 133.976562 196.058594 C 137.609375 192.296875 142.703125 189.953125 148.347656 189.957031 C 159.320312 189.960938 168.304688 198.953125 168.300781 209.929688 C 168.296875 213.199219 167.507812 216.292969 166.109375 219.015625 C 164.398438 222.351562 161.136719 224.652344 157.402344 224.992188 C 157.28125 225.003906 157.15625 225.015625 157.03125 225.019531 C 157.03125 225.019531 160.390625 225.421875 162.949219 223.726562 L 248.652344 355.476562 C 257.617188 352.214844 266.246094 348.253906 274.476562 343.664062 C 264.878906 318.058594 222.351562 209.015625 183.238281 178.984375 " fill-opacity="1" fill-rule="nonzero"/></g></svg>