<svg xmlns="http://www.w3.org/2000/svg" xmlns:xlink="http://www.w3.org/1999/xlink" width="500" zoomAndPan="magnify" viewBox="0 0 375 374.999991" height="500" preserveAspectRatio="xMidYMid meet" version="1.0"><defs><clipPath id="8a8e25b13f"><path d="M 225 219.386719 L 295.832031 219.386719 L 295.832031 300.40625 L 225 300.40625 Z M 225 219.386719 " clip-rule="nonzero"/></clipPath><clipPath id="d4f036604e"><path d="M 9.375 253.015625 L 365.601562 253.015625 L 365.601562 327.824219 L 9.375 327.824219 Z M 9.375 253.015625 " clip-rule="nonzero"/></clipPath><clipPath id="538155a4e1"><path d="M 182.691406 283.257812 L 243 283.257812 L 243 329.214844 L 182.691406 329.214844 Z M 182.691406 283.257812 " clip-rule="nonzero"/></clipPath></defs><g clip-path="url(#8a8e25b13f)"><path fill="#33502e" d="M 225 219.386719 L 295.832031 219.386719 L 295.832031 300.457031 L 225 300.457031 Z M 225 219.386719 " fill-opacity="1" fill-rule="nonzero"/></g><path fill="#33502e" d="M 313.414062 141.371094 C 312.261719 139.816406 310.574219 139.777344 309.476562 141.367188 C 303.3125 150.292969 288.453125 203 288.453125 241.757812 C 288.453125 288.730469 296.734375 306.480469 311.445312 306.480469 C 326.164062 306.480469 335.746094 288.875 335.746094 241.898438 C 335.746094 203.136719 320.210938 150.585938 313.414062 141.371094 Z M 281.097656 182.382812 C 281.097656 256.980469 276.996094 285.277344 253.164062 285.277344 C 229.332031 285.277344 222.722656 257.863281 223.335938 183.269531 C 223.914062 112.511719 244.167969 59.882812 249.210938 49.140625 C 250.6875 45.992188 252.941406 46.308594 254.558594 49.152344 C 261.648438 61.632812 281.097656 112.1875 281.097656 182.382812 " fill-opacity="1" fill-rule="nonzero"/><path fill="#738f00" d="M 288.464844 262.253906 C 288.464844 290.90625 265.261719 314.128906 236.640625 314.128906 C 208.015625 314.128906 184.8125 290.90625 184.8125 262.253906 C 184.8125 233.601562 208.015625 210.378906 236.640625 210.378906 C 265.261719 210.378906 288.464844 233.601562 288.464844 262.253906 " fill-opacity="1" fill-rule="nonzero"/><path fill="#4a6b2f" d="M 163.789062 248.148438 C 143.84375 248.148438 127.667969 263.230469 127.667969 281.839844 C 127.667969 300.449219 143.84375 315.53125 163.789062 315.53125 C 183.738281 315.53125 199.910156 300.449219 199.910156 281.839844 C 199.910156 263.230469 183.738281 248.148438 163.789062 248.148438 Z M 63.539062 210.09375 C 68.621094 213.375 71.96875 217.882812 71.96875 221.816406 C 71.96875 225.875 69.136719 228.015625 63.976562 229.125 C 65.535156 234.042969 67.835938 236.21875 69.835938 238.839844 C 72.824219 234.578125 78.332031 231.75 86.089844 231.75 C 96.902344 231.75 105.039062 239.789062 105.039062 245.003906 C 105.039062 250.773438 96.074219 251.25 86.089844 251.25 C 81.945312 251.25 78.992188 251.308594 75.769531 250.804688 C 78.019531 259.464844 76.183594 269.546875 67.800781 281.136719 L 64.164062 279.867188 C 72.464844 268.398438 75.332031 258.628906 72.804688 250.273438 C 69.351562 249.429688 67.136719 247.867188 67.136719 245.003906 C 67.136719 244 67.441406 242.898438 68 241.765625 C 65.769531 238.929688 63.242188 235.074219 61.5 229.449219 C 57.539062 230.09375 52.875 230.253906 48.246094 230.253906 C 32.277344 230.253906 24.519531 227.347656 24.519531 221.375 C 24.519531 214.234375 35.46875 205.503906 48.246094 205.503906 C 53.289062 205.503906 58.109375 206.976562 62.070312 209.207031 C 63.378906 206.472656 65 204.332031 66.902344 202.4375 C 70.90625 195.226562 65.621094 189.429688 61.941406 189.847656 C 58.703125 190.496094 54.722656 190.820312 49.992188 190.820312 C 35.15625 190.820312 27.636719 187.625 27.636719 181.324219 C 27.636719 173.902344 37.953125 164.832031 49.992188 164.832031 C 62.03125 164.832031 72.347656 173.902344 72.347656 181.324219 C 72.347656 184.953125 69.851562 187.546875 64.910156 189.101562 C 70.09375 191.5625 70.3125 198.433594 68.863281 200.667969 C 69.425781 200.207031 70.179688 199.578125 70.734375 199.179688 C 72.082031 198.203125 73.457031 197.363281 74.789062 196.636719 C 74.164062 195.648438 73.816406 194.476562 73.816406 193.089844 C 73.816406 185.527344 83.984375 176.394531 96.609375 176.394531 C 98.664062 176.394531 100.667969 176.667969 102.578125 177.15625 C 106.480469 168.550781 101.34375 162.148438 98.171875 158.941406 C 96.015625 158.917969 93.652344 158.878906 91.101562 158.878906 C 78.453125 158.878906 67.472656 157.480469 67.472656 151.207031 C 67.472656 144.9375 78.453125 136.164062 91.101562 136.164062 C 103.75 136.164062 113.183594 147.480469 113.183594 153.753906 C 113.183594 158.386719 108.605469 158.972656 100.695312 158.960938 C 103.015625 161.449219 105.828125 165.121094 105.996094 170.703125 C 106.0625 173.019531 105.398438 175.449219 104.707031 177.800781 C 113.171875 180.757812 119.40625 187.878906 119.40625 193.960938 C 119.40625 201.90625 108.332031 201.90625 96.609375 201.90625 C 88.421875 201.90625 79.828125 201.527344 75.941406 198.003906 C 68.894531 202.390625 66.164062 206.21875 63.539062 210.09375 " fill-opacity="1" fill-rule="nonzero"/><g clip-path="url(#d4f036604e)"><path fill="#71a33d" d="M 82.84375 274.222656 C 43.515625 274.222656 9.375 294.015625 9.375 308.167969 C 9.375 322.316406 43.515625 325.464844 82.84375 325.464844 C 125.441406 325.464844 151.503906 328.054688 151.503906 313.902344 C 151.503906 299.753906 122.167969 274.222656 82.84375 274.222656 Z M 316.125 327.570312 C 289.582031 327.570312 260.378906 315.429688 267.035156 290.410156 C 272.355469 270.414062 289.582031 253.246094 316.125 253.246094 C 342.667969 253.246094 362.144531 270.058594 365.207031 290.410156 C 369.152344 316.617188 342.667969 327.570312 316.125 327.570312 " fill-opacity="1" fill-rule="nonzero"/></g><g clip-path="url(#538155a4e1)"><path fill="#a7c23a" d="M 242.722656 310.773438 C 242.722656 325.695312 231.160156 329.214844 214.613281 329.214844 C 198.0625 329.214844 182.792969 325.695312 182.792969 310.773438 C 182.792969 295.847656 196.207031 283.75 212.757812 283.75 C 229.308594 283.75 242.722656 295.847656 242.722656 310.773438 " fill-opacity="1" fill-rule="nonzero"/></g></svg>