<svg xmlns="http://www.w3.org/2000/svg" xmlns:xlink="http://www.w3.org/1999/xlink" width="500" zoomAndPan="magnify" viewBox="0 0 375 374.999991" height="500" preserveAspectRatio="xMidYMid meet" version="1.0"><defs><clipPath id="ebd6f1fbd9"><path d="M 16.351562 29.433594 L 299 29.433594 L 299 200 L 16.351562 200 Z M 16.351562 29.433594 " clip-rule="nonzero"/></clipPath><clipPath id="72385a0270"><path d="M 40 140 L 358.351562 140 L 358.351562 337.683594 L 40 337.683594 Z M 40 140 " clip-rule="nonzero"/></clipPath><clipPath id="3c7d2dac18"><path d="M 277 202 L 358 202 L 358 337.683594 L 277 337.683594 Z M 277 202 " clip-rule="nonzero"/></clipPath><clipPath id="c3b9a93065"><path d="M 58 140 L 358.351562 140 L 358.351562 337.683594 L 58 337.683594 Z M 58 140 " clip-rule="nonzero"/></clipPath></defs><g clip-path="url(#ebd6f1fbd9)"><path fill="#3ca152" d="M 298.144531 40.332031 L 298.144531 188.289062 C 298.144531 194.308594 293.265625 199.1875 287.246094 199.1875 L 27.511719 199.1875 C 21.492188 199.1875 16.613281 194.308594 16.613281 188.289062 L 16.613281 40.332031 C 16.613281 34.3125 21.492188 29.433594 27.511719 29.433594 L 287.246094 29.433594 C 293.265625 29.433594 298.144531 34.3125 298.144531 40.332031 Z M 298.144531 40.332031 " fill-opacity="1" fill-rule="nonzero"/></g><path fill="#f4f4ed" d="M 289.796875 48.679688 L 289.796875 179.941406 C 289.796875 185.960938 284.917969 190.839844 278.898438 190.839844 L 35.859375 190.839844 C 29.84375 190.839844 24.960938 185.960938 24.960938 179.941406 L 24.960938 48.679688 C 24.960938 42.660156 29.84375 37.78125 35.859375 37.78125 L 278.898438 37.78125 C 284.917969 37.78125 289.796875 42.660156 289.796875 48.679688 Z M 289.796875 48.679688 " fill-opacity="1" fill-rule="nonzero"/><g clip-path="url(#72385a0270)"><path fill="#f4f4ed" d="M 356.152344 336.417969 C 356.371094 333.890625 357.238281 321.703125 357.027344 289.394531 C 356.800781 252.523438 337.554688 215.65625 337.554688 215.65625 L 334.308594 208.695312 C 334.308594 208.695312 334.039062 205.449219 333.671875 204.519531 C 333.308594 203.601562 332.441406 202.789062 331.449219 202.796875 C 331.441406 202.808594 331.429688 202.808594 331.410156 202.808594 C 331.554688 202.695312 331.628906 202.515625 331.566406 202.296875 C 331.167969 201.035156 330.78125 199.75 330.648438 198.425781 C 330.511719 197.089844 330.5625 195.734375 330.585938 194.398438 C 330.585938 194.25 330.53125 194.136719 330.460938 194.0625 C 332.234375 189.660156 334.058594 185.277344 335.90625 180.914062 C 336.742188 178.964844 337.566406 177.011719 338.410156 175.070312 C 338.996094 173.714844 339.632812 172.417969 339.863281 170.957031 C 340.3125 168.152344 340.050781 165.238281 339.601562 162.453125 C 339.121094 159.5 338.410156 156.390625 336.941406 153.769531 C 333.421875 147.605469 327.789062 143.03125 320.796875 141.476562 C 315.203125 140.226562 309.191406 140.769531 303.808594 142.667969 C 301.8125 143.378906 299.820312 144.265625 298.109375 145.527344 C 297.523438 145.953125 297.035156 146.425781 296.59375 146.945312 C 296.542969 146.945312 296.480469 146.957031 296.417969 146.976562 C 292.734375 148.34375 289.90625 151.328125 288.339844 154.886719 C 287.527344 156.746094 286.996094 158.769531 286.953125 160.804688 C 286.933594 161.878906 287.089844 162.953125 287.515625 163.945312 C 287.914062 164.84375 288.476562 165.542969 288.488281 166.566406 C 288.496094 166.660156 288.527344 166.730469 288.582031 166.804688 C 288.570312 168.308594 288.632812 169.820312 288.652344 171.324219 C 287.265625 171.585938 286.628906 174.546875 286.628906 177.3125 C 286.628906 177.929688 286.660156 178.546875 286.722656 179.152344 C 285.929688 179.984375 284.78125 180.539062 284.394531 181.675781 C 284 182.835938 284.574219 183.960938 285.261719 184.871094 C 286.023438 185.882812 286.984375 186.726562 287.640625 187.832031 C 288.339844 189.023438 288.726562 190.359375 288.988281 191.695312 C 289.875 196.265625 289.363281 201.933594 293.234375 205.300781 C 295.667969 207.421875 298.789062 207.078125 301.636719 206.085938 C 301.867188 206 302.09375 205.917969 302.335938 205.835938 C 302.722656 207.316406 303.222656 208.765625 303.660156 210.238281 C 304.121094 211.785156 304.277344 213.359375 304.328125 214.957031 C 304.339844 215.289062 304.609375 215.457031 304.871094 215.457031 C 304.683594 215.550781 304.484375 215.65625 304.285156 215.75 C 303.742188 216.007812 303.179688 216.292969 302.792969 216.75 C 301.40625 218.410156 303.078125 222.835938 302.535156 224.933594 L 299.433594 227.351562 C 291.023438 233.792969 283.519531 254.613281 283.519531 254.613281 C 283.519531 254.613281 283.96875 255.332031 284.59375 256.71875 C 283.613281 254.988281 282.539062 253.308594 281.421875 251.710938 C 279.136719 248.421875 276.578125 245.324219 273.792969 242.453125 C 271.75 240.355469 269.546875 238.238281 267.03125 236.683594 C 266.382812 236.285156 265.652344 235.867188 264.890625 235.753906 C 264.871094 235.753906 264.839844 235.742188 264.820312 235.742188 C 264.378906 235.679688 263.941406 235.671875 263.492188 235.691406 C 263.609375 232.226562 259.390625 227.5625 259.390625 227.5625 L 258.953125 227.730469 C 257.785156 224.335938 257.910156 220.714844 258.484375 217.210938 C 260.351562 216.375 265.371094 213.828125 267.429688 209.738281 C 268.222656 208.152344 268.480469 206.347656 269.210938 204.730469 C 269.933594 203.164062 271.039062 201.808594 272.007812 200.386719 C 273.761719 197.808594 275.109375 194.886719 275.421875 191.789062 C 275.734375 188.6875 274.921875 185.402344 272.824219 183.105469 C 271.851562 182.050781 270.652344 181.21875 269.890625 180.007812 C 269.441406 179.277344 269.171875 178.441406 268.859375 177.636719 C 265.902344 170.15625 257.742188 165.09375 249.730469 165.773438 C 246.703125 166.03125 243.695312 167.023438 240.679688 166.667969 C 238.75 166.441406 236.914062 165.667969 234.992188 165.449219 C 232.730469 165.199219 230.382812 165.730469 228.460938 166.953125 C 226.988281 167.878906 225.707031 169.332031 225.496094 171.0625 C 225.289062 172.796875 226.507812 174.738281 228.253906 174.851562 C 228.253906 174.851562 228.574219 174.652344 228.992188 174.433594 C 225.257812 177.46875 223.304688 182.136719 222.511719 186.8125 C 222.085938 189.367188 222.261719 192.121094 221.375 194.574219 C 220.90625 195.890625 220.019531 196.796875 218.839844 197.507812 C 217.773438 198.152344 216.625 198.71875 215.855469 199.730469 C 214.371094 201.660156 214.976562 204.40625 216.867188 205.792969 C 217.429688 206.210938 218.003906 206.566406 218.421875 207.140625 C 218.828125 207.703125 219.070312 208.371094 219.226562 209.050781 C 219.527344 210.375 219.527344 211.75 219.644531 213.109375 C 219.777344 214.695312 220.007812 216.28125 220.351562 217.847656 C 220.664062 219.285156 221 220.820312 221.675781 222.144531 C 222.949219 224.609375 225.871094 225.203125 228.386719 225.527344 C 229.378906 225.652344 230.382812 225.703125 231.371094 225.714844 C 231.382812 225.714844 231.382812 225.726562 231.382812 225.734375 C 232.886719 229.566406 233.59375 233.78125 233.03125 237.882812 L 227.492188 240.054688 L 226.855469 243.015625 C 224.945312 243.757812 223.066406 244.582031 221.28125 245.605469 C 218.746094 247.054688 216.492188 248.925781 214.414062 250.980469 C 210.34375 254.988281 206.734375 259.464844 203.425781 264.109375 C 199.648438 269.410156 196.277344 274.980469 193.050781 280.636719 C 191.394531 276.527344 182.605469 254.695312 180.082031 249.027344 C 179.675781 248.277344 178.921875 247.839844 177.910156 247.671875 C 177.898438 247.660156 177.898438 247.652344 177.898438 247.628906 C 176.480469 244.8125 175.007812 242.015625 173.507812 239.25 C 170.75 234.179688 167.921875 229.117188 164.667969 224.359375 C 163.46875 222.605469 162.214844 220.800781 160.648438 219.339844 C 159.605469 218.359375 158.300781 217.648438 157.027344 217 C 155.242188 216.09375 153.367188 215.40625 151.414062 214.976562 C 148.105469 214.246094 144.671875 214.039062 141.292969 213.953125 C 139.496094 213.910156 137.703125 213.890625 135.90625 213.847656 C 134.175781 213.796875 132.378906 214.015625 130.875 214.945312 C 130.050781 215.457031 129.007812 216.417969 129.332031 217.511719 C 129.476562 218.003906 129.894531 218.328125 130.34375 218.515625 C 131.117188 218.828125 132.015625 218.941406 132.816406 219.128906 C 134.75 219.589844 136.679688 220.058594 138.578125 220.652344 C 140.050781 221.113281 141.667969 221.601562 142.929688 222.53125 C 143.199219 222.71875 143.578125 223.023438 143.640625 223.378906 C 141.082031 224.933594 137.640625 225.222656 134.800781 225.414062 C 131.492188 225.632812 128.195312 225.671875 124.875 225.558594 C 121.402344 225.433594 117.863281 225.203125 114.386719 225.539062 C 113.5 225.621094 112.488281 225.734375 111.621094 226.089844 C 111.464844 226.101562 111.320312 226.164062 111.226562 226.289062 C 111.171875 226.320312 111.109375 226.332031 111.058594 226.363281 C 110.402344 226.789062 110.121094 227.519531 110.703125 228.144531 C 111.332031 228.8125 112.351562 229.128906 113.1875 229.410156 C 114.492188 229.847656 115.847656 230.179688 117.207031 230.484375 C 118.582031 230.796875 119.972656 231.078125 121.359375 231.339844 C 122.257812 231.507812 123.195312 231.601562 124.082031 231.851562 C 125.054688 232.121094 125.730469 233.386719 126.242188 234.167969 C 127.046875 235.390625 127.796875 236.640625 128.613281 237.851562 C 128.570312 237.996094 128.601562 238.164062 128.746094 238.300781 C 128.882812 238.425781 129.03125 238.5625 129.164062 238.6875 C 130.15625 240.074219 131.242188 241.421875 132.597656 242.464844 C 133.703125 243.308594 134.882812 243.738281 136.25 243.914062 C 139.570312 244.351562 143.035156 243.738281 146.289062 243.121094 C 148.949219 242.609375 151.582031 241.972656 154.210938 241.328125 C 154.222656 241.335938 154.222656 241.347656 154.222656 241.359375 C 156.703125 246.148438 158.425781 251.28125 159.34375 256.59375 C 159.355469 256.636719 159.375 256.65625 159.386719 256.6875 C 156.796875 259.234375 155.203125 261.90625 155.777344 264.109375 C 157.539062 270.910156 172.714844 320.355469 172.859375 320.855469 L 172.859375 321.003906 C 161.597656 321.046875 147.355469 321.078125 143.648438 320.984375 L 125.011719 279.523438 C 124.019531 277.320312 121.816406 275.878906 119.40625 275.859375 C 106.46875 275.734375 62.742188 275.828125 44.542969 275.878906 C 43.257812 275.878906 42.070312 276.527344 41.359375 277.601562 C 40.660156 278.675781 40.535156 280.023438 41.046875 281.203125 L 64.808594 336.417969 L 58.808594 336.417969 L 58.808594 337.460938 L 358.425781 337.460938 L 358.425781 336.417969 Z M 134.382812 216.0625 C 134.257812 216.21875 134.089844 216.34375 133.914062 216.4375 C 133.433594 216.699219 132.859375 216.675781 132.335938 216.636719 C 131.785156 216.59375 131.222656 216.519531 130.65625 216.457031 C 131.378906 215.5625 132.753906 215.132812 133.914062 214.976562 C 133.945312 214.976562 133.976562 214.996094 134.007812 214.996094 C 134.175781 214.988281 134.257812 215.019531 134.382812 215.152344 C 134.476562 215.257812 134.550781 215.425781 134.550781 215.5625 C 134.558594 215.726562 134.507812 215.894531 134.382812 216.0625 Z M 115.429688 228.25 C 115.429688 228.261719 115.429688 228.261719 115.429688 228.261719 C 115.429688 228.273438 115.429688 228.292969 115.421875 228.304688 L 115.421875 228.3125 C 115.410156 228.3125 115.410156 228.3125 115.410156 228.3125 C 115.203125 228.4375 115.054688 228.648438 115.128906 228.910156 C 115.128906 228.917969 115.128906 228.917969 115.128906 228.929688 C 114.273438 228.6875 113.417969 228.417969 112.59375 228.082031 C 112.257812 227.9375 111.851562 227.738281 111.582031 227.542969 C 111.519531 227.488281 111.476562 227.425781 111.445312 227.382812 C 111.570312 227.300781 111.726562 227.238281 111.882812 227.164062 C 112.71875 227.289062 113.542969 227.457031 114.355469 227.675781 C 114.691406 227.769531 115.128906 227.84375 115.347656 228.074219 C 115.359375 228.074219 115.429688 228.148438 115.410156 228.125 C 115.410156 228.136719 115.410156 228.148438 115.421875 228.15625 C 115.421875 228.167969 115.421875 228.167969 115.429688 228.179688 C 115.421875 228.179688 115.429688 228.230469 115.429688 228.25 Z M 115.429688 228.25 " fill-opacity="1" fill-rule="nonzero"/></g><g clip-path="url(#3c7d2dac18)"><path fill="#3ca152" d="M 356.105469 336.941406 L 277.488281 337.171875 C 277.488281 337.171875 289.085938 275.714844 287.691406 267.367188 C 286.300781 259.019531 283.519531 254.613281 283.519531 254.613281 C 283.519531 254.613281 291.019531 233.789062 299.4375 227.351562 L 302.535156 224.929688 C 303.078125 222.832031 301.402344 218.410156 302.796875 216.75 C 303.183594 216.289062 303.746094 216.007812 304.289062 215.746094 C 312.828125 211.59375 321.367188 207.441406 329.90625 203.292969 C 330.394531 203.054688 330.90625 202.8125 331.449219 202.804688 C 332.445312 202.789062 333.304688 203.597656 333.667969 204.523438 C 334.035156 205.449219 334.304688 208.695312 334.304688 208.695312 L 337.550781 215.652344 C 337.550781 215.652344 356.800781 252.523438 357.03125 289.398438 C 357.265625 326.273438 356.105469 336.941406 356.105469 336.941406 Z M 356.105469 336.941406 " fill-opacity="1" fill-rule="nonzero"/></g><g clip-path="url(#c3b9a93065)"><path fill="#000000" d="M 309.996094 173.328125 C 309.03125 173.605469 308.128906 174.0625 307.316406 174.652344 C 307.324219 174.6875 307.339844 174.722656 307.335938 174.761719 C 307.1875 176.574219 307.222656 178.402344 307.476562 180.203125 C 307.519531 180.484375 307.414062 180.761719 307.113281 180.84375 C 306.867188 180.914062 306.511719 180.761719 306.472656 180.480469 C 306.242188 178.855469 306.167969 177.21875 306.25 175.578125 C 305.484375 176.351562 304.855469 177.261719 304.441406 178.273438 C 304.332031 178.535156 304.097656 178.722656 303.800781 178.640625 C 303.550781 178.570312 303.328125 178.257812 303.433594 177.996094 C 304.550781 175.269531 306.875 173.140625 309.714844 172.324219 C 310.367188 172.136719 310.640625 173.144531 309.996094 173.328125 Z M 285.261719 184.867188 C 284.570312 183.960938 284 182.835938 284.394531 181.679688 C 284.785156 180.535156 285.933594 179.980469 286.726562 179.152344 C 286.664062 178.546875 286.628906 177.925781 286.628906 177.3125 C 286.628906 174.546875 287.265625 171.589844 288.652344 171.324219 C 288.632812 169.816406 288.570312 168.308594 288.574219 166.804688 C 288.53125 166.734375 288.496094 166.660156 288.484375 166.566406 C 288.472656 165.539062 287.910156 164.847656 287.519531 163.941406 C 287.089844 162.953125 286.933594 161.875 286.953125 160.800781 C 286.996094 158.773438 287.53125 156.742188 288.339844 154.890625 C 289.898438 151.324219 292.734375 148.347656 296.414062 146.980469 C 296.480469 146.953125 296.539062 146.949219 296.597656 146.949219 C 297.03125 146.429688 297.527344 145.949219 298.109375 145.523438 C 299.824219 144.265625 301.816406 143.375 303.808594 142.671875 C 309.195312 140.765625 315.203125 140.222656 320.796875 141.472656 C 327.785156 143.035156 333.417969 147.597656 336.941406 153.769531 C 338.410156 156.394531 339.117188 159.503906 339.597656 162.449219 C 340.046875 165.238281 340.308594 168.148438 339.863281 170.957031 C 339.628906 172.425781 339 173.710938 338.410156 175.066406 C 337.570312 177.011719 336.734375 178.960938 335.90625 180.914062 C 334.058594 185.28125 332.230469 189.660156 330.453125 194.058594 C 330.53125 194.140625 330.582031 194.25 330.582031 194.394531 C 330.5625 195.734375 330.507812 197.089844 330.648438 198.429688 C 330.785156 199.75 331.167969 201.035156 331.5625 202.296875 C 331.761719 202.9375 330.753906 203.210938 330.554688 202.574219 C 330.140625 201.246094 329.765625 199.910156 329.613281 198.523438 C 329.472656 197.253906 329.511719 195.96875 329.53125 194.695312 C 328.5625 194.410156 327.601562 194.097656 326.648438 193.773438 C 324.824219 193.148438 323.015625 192.46875 321.25 191.6875 C 319.609375 190.960938 317.929688 190.152344 316.546875 188.992188 C 316.050781 188.578125 315.714844 188.039062 315.238281 187.613281 C 314.535156 186.988281 313.664062 186.53125 312.839844 186.09375 C 311.707031 185.5 310.535156 184.960938 309.347656 184.480469 C 309.285156 184.554688 309.226562 184.636719 309.15625 184.710938 C 307.808594 186.179688 305.632812 186.953125 303.78125 185.976562 C 303.1875 185.660156 303.714844 184.761719 304.308594 185.074219 C 306.296875 186.128906 308.289062 184.429688 309.273438 182.808594 C 310.273438 181.167969 311.027344 179.296875 311.574219 177.460938 C 312.125 175.597656 312.449219 173.527344 311.972656 171.609375 C 311.539062 169.882812 310.300781 168.519531 308.390625 168.75 C 308.015625 168.796875 307.671875 168.90625 307.34375 169.042969 C 307.238281 169.109375 307.136719 169.175781 307.03125 169.253906 C 306.625 169.550781 306.222656 169.875 305.785156 170.117188 C 305.1875 170.710938 304.691406 171.425781 304.285156 172.140625 C 304.121094 172.425781 303.820312 172.441406 303.597656 172.320312 C 300.464844 173.917969 297.277344 175.410156 294.039062 176.78125 C 293.890625 177.679688 293.53125 178.316406 293.101562 178.316406 C 292.800781 178.316406 292.53125 177.988281 292.34375 177.480469 C 291.917969 177.65625 291.488281 177.835938 291.058594 178.007812 C 290.957031 180.683594 290.253906 183.320312 288.851562 183.320312 C 287.878906 183.320312 287.246094 182.058594 286.914062 180.398438 C 286.125 181.035156 285.140625 181.671875 285.328125 182.757812 C 285.527344 183.941406 286.632812 184.894531 287.386719 185.753906 C 289.078125 187.679688 289.8125 190.050781 290.183594 192.550781 C 290.539062 194.972656 290.585938 197.445312 291.257812 199.8125 C 291.835938 201.84375 292.855469 203.992188 294.734375 205.121094 C 297.328125 206.679688 300.371094 205.46875 302.941406 204.492188 C 305.941406 203.351562 308.941406 202.214844 311.945312 201.074219 C 312.574219 200.835938 312.84375 201.84375 312.222656 202.082031 C 309.253906 203.207031 306.300781 204.386719 303.316406 205.476562 C 303.71875 207.023438 304.25 208.527344 304.691406 210.058594 C 305.15625 211.65625 305.316406 213.300781 305.375 214.957031 C 305.398438 215.628906 304.355469 215.625 304.332031 214.957031 C 304.273438 213.355469 304.113281 211.78125 303.65625 210.242188 C 303.222656 208.765625 302.722656 207.320312 302.332031 205.832031 C 302.097656 205.914062 301.867188 206.003906 301.632812 206.085938 C 298.78125 207.078125 295.664062 207.421875 293.234375 205.304688 C 289.363281 201.933594 289.867188 196.261719 288.984375 191.699219 C 288.726562 190.351562 288.335938 189.019531 287.636719 187.832031 C 286.988281 186.730469 286.03125 185.878906 285.261719 184.867188 Z M 290.03125 177.3125 C 290.03125 175.960938 289.882812 174.890625 289.6875 174.078125 C 289.527344 176.066406 289.042969 177.949219 287.816406 179.480469 C 288.070312 181.308594 288.597656 182.277344 288.851562 182.277344 C 289.195312 182.277344 290.03125 180.535156 290.03125 177.3125 Z M 304.128906 170.484375 C 303.15625 170.386719 302.238281 169.8125 301.464844 169.261719 C 298.613281 167.226562 296.695312 164.113281 295.570312 160.84375 C 294.804688 158.617188 294.367188 156.195312 294.417969 153.808594 C 292.871094 155.34375 291.585938 157.121094 290.804688 159.179688 C 289.921875 161.492188 289.652344 163.96875 289.605469 166.429688 C 289.574219 168.070312 289.730469 169.90625 289.757812 171.742188 C 290.597656 172.636719 291.019531 174.773438 291.070312 176.886719 C 291.421875 176.742188 291.773438 176.59375 292.125 176.449219 C 292.109375 176.277344 292.101562 176.101562 292.101562 175.917969 C 292.101562 174.597656 292.550781 173.523438 293.105469 173.523438 C 293.617188 173.523438 294.035156 174.445312 294.097656 175.628906 C 297.261719 174.273438 300.378906 172.808594 303.441406 171.234375 C 303.515625 171.195312 303.589844 171.175781 303.660156 171.171875 C 303.804688 170.9375 303.960938 170.710938 304.128906 170.484375 Z M 295.964844 150.992188 C 295.839844 151.378906 295.714844 151.765625 295.585938 152.15625 C 295.484375 152.972656 295.449219 153.792969 295.464844 154.570312 C 295.550781 158.035156 296.59375 161.542969 298.441406 164.476562 C 299.351562 165.921875 300.492188 167.253906 301.871094 168.269531 C 302.660156 168.851562 303.785156 169.699219 304.808594 169.421875 C 304.933594 169.386719 305.054688 169.34375 305.167969 169.289062 C 305.667969 168.8125 306.230469 168.417969 306.84375 168.136719 C 307.039062 168 307.242188 167.875 307.460938 167.78125 C 309.292969 166.988281 311.304688 168.023438 312.417969 169.519531 C 313.820312 171.40625 313.652344 173.9375 313.34375 176.136719 C 312.957031 178.882812 311.597656 181.375 310.046875 183.65625 C 311.3125 184.179688 312.5625 184.75 313.761719 185.40625 C 314.5625 185.84375 315.386719 186.320312 316.054688 186.949219 C 316.523438 187.386719 316.863281 187.914062 317.367188 188.324219 C 318.785156 189.46875 320.53125 190.25 322.191406 190.964844 C 324.570312 191.992188 327.039062 192.863281 329.527344 193.601562 C 330.082031 192.230469 330.640625 190.855469 331.207031 189.484375 C 332.523438 186.296875 333.851562 183.117188 335.199219 179.945312 C 336.03125 177.984375 336.871094 176.023438 337.71875 174.070312 C 338.269531 172.800781 338.753906 171.625 338.917969 170.246094 C 339.257812 167.40625 338.9375 164.464844 338.40625 161.671875 C 337.929688 159.164062 337.296875 156.539062 336.042969 154.296875 C 335.558594 153.449219 335.042969 152.625 334.476562 151.828125 C 330.585938 146.332031 324.636719 142.816406 317.949219 142.042969 C 312.640625 141.425781 307.027344 142.269531 302.140625 144.449219 C 300.53125 145.167969 298.863281 146.035156 297.613281 147.304688 C 297.304688 147.621094 297.046875 147.980469 296.816406 148.355469 C 296.53125 149.234375 296.246094 150.113281 295.964844 150.992188 Z M 290.105469 158.003906 C 291.089844 155.894531 292.566406 153.796875 294.429688 152.351562 C 294.472656 152.210938 294.519531 152.074219 294.5625 151.933594 C 294.617188 151.558594 294.675781 151.183594 294.757812 150.8125 C 294.945312 149.96875 295.222656 149.1875 295.589844 148.46875 C 292.640625 149.9375 290.394531 152.609375 289.144531 155.644531 C 288.421875 157.398438 287.945312 159.355469 288 161.257812 C 288.023438 162.074219 288.195312 162.804688 288.496094 163.519531 C 288.722656 161.59375 289.332031 159.667969 290.105469 158.003906 Z M 287.671875 177.3125 C 287.671875 177.460938 287.683594 177.59375 287.6875 177.738281 C 288.480469 176.148438 288.644531 174.25 288.660156 172.484375 C 288.269531 172.933594 287.671875 174.585938 287.671875 177.3125 Z M 294.277344 191.503906 C 293.878906 192.15625 293.484375 192.699219 292.984375 193.253906 C 292.738281 193.527344 292.480469 193.785156 292.210938 194.035156 C 292.070312 194.164062 291.925781 194.292969 291.777344 194.417969 C 291.636719 194.535156 291.496094 194.648438 291.382812 194.730469 C 291.160156 194.902344 291.042969 195.179688 291.199219 195.445312 C 291.324219 195.667969 291.683594 195.804688 291.910156 195.632812 C 293.21875 194.644531 294.328125 193.433594 295.175781 192.03125 C 295.324219 191.789062 295.230469 191.457031 294.992188 191.316406 C 294.742188 191.171875 294.421875 191.261719 294.277344 191.503906 Z M 298.964844 194.386719 C 299.824219 191.097656 299.054688 187.5625 296.949219 184.90625 C 296.535156 184.378906 295.800781 185.121094 296.210938 185.644531 C 298.078125 188 298.71875 191.210938 297.957031 194.109375 C 297.789062 194.757812 298.792969 195.035156 298.964844 194.386719 Z M 291.4375 167.65625 C 291.15625 167.617188 290.875 167.726562 290.792969 168.019531 C 290.726562 168.265625 290.878906 168.621094 291.160156 168.664062 C 293.550781 169.007812 295.621094 170.582031 296.585938 172.796875 C 296.699219 173.054688 297.078125 173.113281 297.300781 172.984375 C 297.566406 172.828125 297.597656 172.53125 297.484375 172.269531 C 296.429688 169.84375 294.054688 168.035156 291.4375 167.65625 Z M 225.300781 189.066406 C 224.65625 188.886719 224.378906 189.890625 225.023438 190.074219 C 227.703125 190.832031 229.742188 193.191406 230.164062 195.933594 C 230.207031 196.210938 230.554688 196.367188 230.804688 196.296875 C 231.101562 196.214844 231.210938 195.933594 231.167969 195.65625 C 230.691406 192.566406 228.300781 189.914062 225.300781 189.066406 Z M 238.792969 200.867188 C 239.023438 201.003906 239.386719 200.9375 239.507812 200.683594 C 239.851562 199.96875 240.367188 199.351562 240.984375 198.863281 C 241.261719 200.140625 241.378906 201.4375 241.328125 202.742188 C 241.316406 203.023438 241.574219 203.265625 241.851562 203.265625 C 242.140625 203.265625 242.359375 203.027344 242.371094 202.742188 C 242.429688 201.238281 242.277344 199.730469 241.925781 198.269531 C 242.480469 197.996094 243.082031 197.816406 243.703125 197.769531 C 243.984375 197.75 244.222656 197.546875 244.222656 197.25 C 244.222656 196.984375 243.984375 196.703125 243.703125 196.726562 C 241.554688 196.890625 239.550781 198.203125 238.605469 200.15625 C 238.484375 200.410156 238.539062 200.71875 238.792969 200.867188 Z M 226.46875 194.316406 C 225.828125 194.316406 225.308594 195.304688 225.308594 196.519531 C 225.308594 197.738281 225.828125 198.722656 226.46875 198.722656 C 227.109375 198.722656 227.628906 197.738281 227.628906 196.519531 C 227.628906 195.304688 227.109375 194.316406 226.46875 194.316406 Z M 303.574219 224.980469 C 302.980469 225.292969 303.507812 226.191406 304.101562 225.882812 C 306.355469 224.703125 309.289062 225.308594 310.941406 227.21875 C 311.382812 227.726562 312.117188 226.988281 311.679688 226.480469 C 309.714844 224.210938 306.222656 223.59375 303.574219 224.980469 Z M 327.246094 210.835938 C 321.429688 213.183594 315.816406 215.996094 310.464844 219.269531 C 309.894531 219.621094 310.417969 220.523438 310.992188 220.171875 C 316.261719 216.945312 321.792969 214.152344 327.523438 211.839844 C 328.136719 211.59375 327.871094 210.582031 327.246094 210.835938 Z M 358.425781 336.417969 L 358.425781 337.460938 L 58.804688 337.460938 L 58.804688 336.417969 L 199.082031 336.417969 C 199.09375 336.363281 199.109375 336.3125 199.148438 336.257812 C 201.5625 332.6875 203.914062 329.078125 206.203125 325.429688 C 214.320312 312.480469 221.636719 299.03125 228.101562 285.1875 C 228.386719 284.578125 229.285156 285.109375 229.003906 285.714844 C 227.179688 289.617188 225.289062 293.488281 223.332031 297.328125 C 216.460938 310.8125 208.753906 323.871094 200.292969 336.417969 L 277.019531 336.417969 C 276.980469 336.328125 276.960938 336.226562 276.984375 336.105469 C 277.019531 335.933594 277.058594 335.761719 277.09375 335.589844 C 277.863281 331.945312 278.605469 328.300781 279.335938 324.652344 C 280.640625 318.132812 281.902344 311.609375 283.097656 305.070312 C 284.359375 298.148438 285.5625 291.210938 286.550781 284.242188 C 286.957031 281.386719 287.324219 278.527344 287.585938 275.65625 C 287.789062 273.476562 287.992188 271.246094 287.8125 269.058594 C 287.496094 265.292969 286.011719 261.652344 284.265625 258.339844 C 282.355469 254.707031 280.007812 251.300781 277.425781 248.117188 C 275.132812 245.289062 272.640625 242.585938 269.902344 240.179688 C 268.929688 239.324219 267.917969 238.5 266.832031 237.792969 C 266.171875 237.359375 265.476562 236.914062 264.710938 236.769531 C 264.6875 236.765625 264.679688 236.765625 264.679688 236.765625 C 264.679688 236.765625 264.667969 236.765625 264.597656 236.757812 C 264.523438 236.753906 264.445312 236.75 264.371094 236.746094 C 264.1875 236.734375 264.003906 236.734375 263.820312 236.734375 C 263.335938 236.738281 262.851562 236.761719 262.367188 236.792969 C 260.953125 236.878906 259.542969 237.03125 258.136719 237.195312 C 254.300781 237.648438 250.480469 238.25 246.683594 238.929688 C 242.761719 239.632812 238.847656 240.421875 234.992188 241.433594 C 230.535156 242.597656 226.035156 244.128906 222.011719 246.386719 C 216.992188 249.203125 213.007812 253.671875 209.367188 258.054688 C 205.710938 262.464844 202.441406 267.183594 199.398438 272.03125 C 193.105469 282.066406 187.609375 292.605469 181.898438 302.976562 C 181.574219 303.5625 180.675781 303.039062 180.996094 302.453125 C 182.492188 299.738281 183.984375 297.023438 185.480469 294.308594 C 187.800781 290.09375 190.101562 285.855469 192.476562 281.660156 L 192.359375 281.707031 C 192.253906 281.449219 181.894531 255.671875 179.148438 249.492188 C 178.453125 248.222656 175.746094 248.347656 171.929688 249.855469 C 164.265625 252.886719 155.769531 259.9375 156.78125 263.84375 C 158.539062 270.628906 173.710938 320.054688 173.863281 320.554688 L 172.863281 320.859375 C 172.710938 320.359375 157.535156 270.910156 155.773438 264.105469 C 155.203125 261.902344 156.800781 259.234375 159.386719 256.691406 C 159.375 256.660156 159.355469 256.632812 159.347656 256.589844 C 158.425781 251.28125 156.703125 246.144531 154.222656 241.359375 C 154.21875 241.351562 154.21875 241.339844 154.210938 241.328125 C 151.582031 241.972656 148.949219 242.613281 146.289062 243.121094 C 143.035156 243.742188 139.570312 244.347656 136.253906 243.914062 C 134.886719 243.734375 133.703125 243.304688 132.601562 242.464844 C 131.242188 241.421875 130.148438 240.078125 129.167969 238.6875 C 129.027344 238.558594 128.886719 238.429688 128.75 238.300781 C 128.601562 238.160156 128.574219 238 128.609375 237.851562 C 127.800781 236.636719 127.042969 235.390625 126.246094 234.171875 C 125.730469 233.386719 125.054688 232.121094 124.078125 231.851562 C 123.199219 231.605469 122.253906 231.507812 121.359375 231.335938 C 119.96875 231.074219 118.582031 230.796875 117.203125 230.484375 C 115.851562 230.179688 114.496094 229.847656 113.183594 229.40625 C 112.351562 229.125 111.328125 228.808594 110.707031 228.148438 C 110.121094 227.523438 110.402344 226.789062 111.058594 226.367188 C 111.109375 226.332031 111.171875 226.316406 111.226562 226.285156 C 111.320312 226.164062 111.464844 226.105469 111.621094 226.09375 C 112.484375 225.730469 113.496094 225.625 114.386719 225.539062 C 117.863281 225.203125 121.398438 225.433594 124.878906 225.554688 C 128.195312 225.671875 131.488281 225.628906 134.800781 225.410156 C 137.632812 225.226562 141.078125 224.933594 143.640625 223.382812 C 143.574219 223.027344 143.195312 222.726562 142.929688 222.527344 C 141.671875 221.601562 140.050781 221.113281 138.574219 220.652344 C 136.679688 220.0625 134.75 219.589844 132.820312 219.132812 C 132.007812 218.941406 131.117188 218.832031 130.347656 218.515625 C 129.890625 218.328125 129.476562 218.003906 129.332031 217.511719 C 129.011719 216.417969 130.046875 215.457031 130.875 214.945312 C 132.378906 214.011719 134.175781 213.800781 135.90625 213.847656 C 137.699219 213.894531 139.5 213.90625 141.292969 213.949219 C 144.671875 214.03125 148.101562 214.242188 151.410156 214.976562 C 153.359375 215.40625 155.246094 216.09375 157.023438 217 C 158.296875 217.648438 159.601562 218.355469 160.652344 219.339844 C 162.210938 220.800781 163.46875 222.605469 164.667969 224.359375 C 167.925781 229.117188 170.753906 234.179688 173.5 239.246094 C 175.003906 242.019531 176.480469 244.8125 177.894531 247.632812 C 177.902344 247.648438 177.898438 247.660156 177.90625 247.675781 C 178.925781 247.835938 179.675781 248.28125 180.082031 249.03125 C 182.601562 254.699219 191.398438 276.523438 193.054688 280.644531 C 196.277344 274.984375 199.652344 269.414062 203.425781 264.105469 C 206.734375 259.460938 210.34375 254.984375 214.40625 250.976562 C 216.488281 248.925781 218.738281 247.054688 221.28125 245.605469 C 223.0625 244.585938 224.941406 243.757812 226.851562 243.015625 L 227.492188 240.054688 L 233.03125 237.886719 C 233.597656 233.777344 232.886719 229.570312 231.378906 225.734375 C 231.375 225.726562 231.378906 225.71875 231.375 225.714844 C 230.375 225.710938 229.375 225.652344 228.382812 225.523438 C 225.867188 225.203125 222.949219 224.613281 221.679688 222.152344 C 220.996094 220.828125 220.664062 219.292969 220.351562 217.847656 C 220.011719 216.285156 219.773438 214.699219 219.636719 213.109375 C 219.523438 211.757812 219.53125 210.378906 219.222656 209.050781 C 219.066406 208.375 218.832031 207.707031 218.421875 207.140625 C 218.003906 206.5625 217.425781 206.210938 216.863281 205.796875 C 214.972656 204.410156 214.375 201.660156 215.855469 199.730469 C 216.628906 198.722656 217.773438 198.160156 218.835938 197.511719 C 220.015625 196.796875 220.898438 195.894531 221.375 194.578125 C 222.265625 192.125 222.082031 189.367188 222.511719 186.8125 C 223.300781 182.132812 225.257812 177.472656 228.992188 174.4375 C 228.570312 174.652344 228.253906 174.847656 228.253906 174.847656 C 226.511719 174.738281 225.289062 172.800781 225.496094 171.0625 C 225.703125 169.328125 226.984375 167.886719 228.460938 166.949219 C 230.382812 165.734375 232.726562 165.195312 234.988281 165.453125 C 236.917969 165.671875 238.75 166.441406 240.679688 166.667969 C 243.699219 167.027344 246.699219 166.035156 249.730469 165.777344 C 257.738281 165.089844 265.902344 170.15625 268.851562 177.632812 C 269.171875 178.4375 269.4375 179.273438 269.894531 180.007812 C 270.648438 181.210938 271.855469 182.050781 272.816406 183.101562 C 274.917969 185.402344 275.734375 188.691406 275.421875 191.792969 C 275.109375 194.890625 273.761719 197.8125 272.007812 200.386719 C 271.035156 201.8125 269.925781 203.160156 269.214844 204.730469 C 268.484375 206.347656 268.21875 208.152344 267.421875 209.738281 C 265.375 213.828125 260.347656 216.378906 258.488281 217.207031 C 257.914062 220.71875 257.785156 224.335938 258.953125 227.734375 L 259.394531 227.5625 C 259.394531 227.5625 263.605469 232.222656 263.496094 235.691406 C 263.964844 235.675781 264.433594 235.683594 264.890625 235.753906 C 265.65625 235.875 266.378906 236.285156 267.03125 236.6875 C 269.542969 238.238281 271.742188 240.355469 273.792969 242.457031 C 276.582031 245.324219 279.140625 248.429688 281.425781 251.710938 C 285.496094 257.558594 289.125 264.367188 288.894531 271.683594 C 288.714844 277.273438 287.832031 282.859375 286.984375 288.378906 C 285.886719 295.554688 284.609375 302.699219 283.273438 309.832031 C 282.109375 316.046875 280.890625 322.253906 279.632812 328.449219 C 279.09375 331.097656 278.550781 333.742188 277.992188 336.382812 C 277.988281 336.398438 277.980469 336.40625 277.976562 336.417969 L 303.773438 336.417969 C 303.964844 335.730469 304.226562 335.050781 304.441406 334.371094 C 304.984375 332.691406 305.523438 331.007812 306.054688 329.324219 C 307.773438 323.90625 309.445312 318.480469 311.082031 313.039062 C 313.203125 305.976562 315.257812 298.894531 317.214844 291.785156 C 319.25 284.394531 321.1875 276.972656 322.917969 269.5 C 324.394531 263.105469 325.773438 256.65625 326.640625 250.144531 C 326.730469 249.484375 327.773438 249.480469 327.683594 250.144531 C 327.589844 250.847656 327.492188 251.546875 327.386719 252.25 C 326.378906 258.964844 324.921875 265.609375 323.351562 272.210938 C 321.5625 279.734375 319.578125 287.210938 317.5 294.65625 C 315.554688 301.640625 313.515625 308.597656 311.417969 315.535156 C 309.851562 320.710938 308.25 325.878906 306.609375 331.03125 C 306.035156 332.828125 305.460938 334.625 304.875 336.417969 Z M 130.660156 216.460938 C 131.21875 216.523438 131.78125 216.597656 132.339844 216.640625 C 132.863281 216.679688 133.4375 216.695312 133.910156 216.441406 C 134.089844 216.34375 134.261719 216.222656 134.382812 216.058594 C 134.503906 215.894531 134.5625 215.722656 134.554688 215.5625 C 134.546875 215.429688 134.476562 215.261719 134.378906 215.152344 C 134.257812 215.015625 134.179688 214.984375 134.011719 214.992188 C 133.976562 214.996094 133.945312 214.980469 133.910156 214.972656 C 132.761719 215.136719 131.382812 215.5625 130.660156 216.460938 Z M 115.425781 228.304688 C 115.429688 228.289062 115.433594 228.273438 115.4375 228.257812 C 115.4375 228.253906 115.4375 228.257812 115.433594 228.246094 C 115.433594 228.230469 115.425781 228.179688 115.425781 228.183594 C 115.425781 228.171875 115.421875 228.164062 115.417969 228.152344 C 115.414062 228.152344 115.398438 228.117188 115.410156 228.128906 C 115.425781 228.148438 115.363281 228.078125 115.351562 228.070312 C 115.125 227.847656 114.695312 227.769531 114.359375 227.679688 C 113.542969 227.460938 112.714844 227.296875 111.878906 227.164062 C 111.722656 227.234375 111.574219 227.304688 111.445312 227.386719 C 111.476562 227.429688 111.519531 227.488281 111.582031 227.539062 C 111.847656 227.742188 112.253906 227.9375 112.597656 228.082031 C 113.414062 228.421875 114.265625 228.6875 115.132812 228.929688 C 115.128906 228.921875 115.125 228.917969 115.125 228.914062 C 115.050781 228.652344 115.199219 228.429688 115.421875 228.3125 C 115.421875 228.308594 115.425781 228.304688 115.425781 228.304688 Z M 115.488281 228.273438 C 115.464844 228.273438 115.445312 228.285156 115.429688 228.300781 C 115.402344 228.324219 115.40625 228.320312 115.445312 228.285156 C 115.4375 228.292969 115.433594 228.300781 115.425781 228.308594 C 115.449219 228.296875 115.464844 228.28125 115.488281 228.273438 Z M 176.707031 247.617188 C 175.0625 244.597656 173.554688 241.503906 171.902344 238.492188 C 169.230469 233.613281 166.480469 228.730469 163.273438 224.175781 C 162.175781 222.617188 161.015625 220.964844 159.535156 219.738281 C 158.203125 218.636719 156.472656 217.8125 154.878906 217.152344 C 153.199219 216.457031 151.4375 215.992188 149.644531 215.699219 C 146.308594 215.152344 142.953125 215.023438 139.582031 214.960938 C 138.207031 214.9375 136.792969 214.835938 135.40625 214.871094 C 135.449219 214.953125 135.5 215.03125 135.527344 215.117188 C 135.734375 215.796875 135.449219 216.527344 134.933594 216.988281 C 133.765625 218.023438 132.089844 217.6875 130.652344 217.503906 C 130.859375 217.609375 131.101562 217.660156 131.308594 217.710938 C 131.753906 217.8125 132.195312 217.917969 132.640625 218.019531 C 134.515625 218.460938 136.386719 218.914062 138.234375 219.460938 C 139.78125 219.921875 141.367188 220.421875 142.785156 221.210938 C 143.460938 221.585938 144.175781 222.078125 144.511719 222.78125 C 144.792969 222.554688 145.070312 222.328125 145.316406 222.058594 C 145.773438 221.5625 146.507812 222.304688 146.054688 222.796875 C 145.511719 223.386719 144.875 223.882812 144.179688 224.285156 C 140.988281 226.132812 136.980469 226.363281 133.386719 226.535156 C 130.242188 226.683594 127.132812 226.679688 123.984375 226.566406 C 120.792969 226.453125 117.523438 226.242188 114.335938 226.589844 C 114.671875 226.671875 115.003906 226.761719 115.320312 226.878906 C 115.835938 227.070312 116.347656 227.410156 116.449219 227.988281 C 116.535156 228.46875 116.359375 228.898438 115.976562 229.152344 C 117.425781 229.511719 118.898438 229.796875 120.335938 230.078125 C 121.433594 230.296875 122.535156 230.496094 123.632812 230.703125 C 123.875 230.75 124.09375 230.804688 124.300781 230.867188 C 124.347656 230.851562 124.390625 230.828125 124.445312 230.824219 C 126.4375 230.640625 128.335938 231.289062 130.265625 231.667969 C 132.34375 232.070312 134.472656 231.988281 136.519531 231.464844 C 137.171875 231.296875 137.449219 232.304688 136.796875 232.46875 C 134.785156 232.988281 132.707031 233.101562 130.652344 232.789062 C 129.035156 232.542969 127.460938 232.007812 125.835938 231.875 C 126.34375 232.433594 126.785156 233.054688 127.195312 233.695312 C 127.277344 233.703125 127.359375 233.71875 127.441406 233.777344 C 129.054688 234.820312 130.824219 235.941406 132.679688 236.472656 C 133.835938 236.804688 135.132812 236.5625 136.289062 236.347656 C 137.109375 236.195312 137.925781 236.011719 138.726562 235.785156 C 139.375 235.601562 139.648438 236.609375 139.003906 236.792969 C 138.132812 237.039062 137.242188 237.234375 136.351562 237.394531 C 135.109375 237.613281 133.753906 237.835938 132.511719 237.507812 C 131.078125 237.128906 129.695312 236.402344 128.390625 235.609375 C 128.898438 236.417969 129.414062 237.226562 129.964844 238.007812 C 130.4375 238.457031 130.921875 238.90625 131.441406 239.292969 C 132.050781 239.742188 132.9375 239.773438 133.671875 239.789062 C 135.714844 239.824219 137.761719 239.800781 139.808594 239.808594 C 140.480469 239.808594 140.480469 240.851562 139.808594 240.851562 C 137.753906 240.84375 135.699219 240.871094 133.644531 240.832031 C 133.160156 240.824219 132.636719 240.792969 132.140625 240.6875 C 132.894531 241.457031 133.753906 242.152344 134.746094 242.507812 C 135.992188 242.957031 137.359375 243.015625 138.667969 242.996094 C 145.125 242.90625 151.351562 240.792969 157.609375 239.457031 C 158.265625 239.316406 158.542969 240.320312 157.882812 240.460938 C 157.308594 240.582031 156.742188 240.714844 156.171875 240.851562 C 155.863281 240.925781 155.554688 241.003906 155.246094 241.078125 C 157.632812 245.738281 159.328125 250.722656 160.269531 255.871094 C 163.480469 252.984375 167.832031 250.355469 171.546875 248.886719 C 173.59375 248.078125 175.320312 247.667969 176.707031 247.617188 Z M 220.605469 211.664062 C 220.699219 211.679688 220.789062 211.71875 220.871094 211.808594 C 221.15625 212.125 221.597656 212.109375 221.992188 212.078125 C 222.542969 212.03125 223.09375 211.914062 223.628906 211.777344 C 224.75 211.488281 225.808594 211.03125 226.800781 210.433594 C 226.957031 210.339844 227.105469 210.339844 227.234375 210.394531 C 227.304688 210.203125 227.371094 209.980469 227.402344 209.773438 C 225.191406 210.496094 222.878906 210.867188 220.554688 210.878906 C 220.574219 211.140625 220.589844 211.402344 220.605469 211.664062 Z M 221.066406 216.058594 C 222.613281 215.707031 224.03125 214.933594 225.152344 213.808594 C 225.765625 213.191406 226.28125 212.488281 226.683594 211.714844 C 226.691406 211.703125 226.695312 211.691406 226.699219 211.679688 C 225.714844 212.207031 224.660156 212.617188 223.570312 212.867188 C 222.710938 213.0625 221.539062 213.328125 220.679688 212.929688 C 220.699219 213.238281 220.722656 213.542969 220.753906 213.839844 C 220.832031 214.582031 220.9375 215.320312 221.066406 216.058594 Z M 257.988281 228.113281 C 257.984375 228.101562 257.972656 228.09375 257.96875 228.082031 C 256.773438 224.65625 256.855469 221 257.398438 217.449219 C 255.082031 217.050781 242.839844 214.578125 243.167969 206.8125 C 241.953125 207.898438 240.429688 208.535156 238.597656 208.289062 C 237.9375 208.203125 237.933594 207.15625 238.597656 207.246094 C 243.636719 207.921875 245.742188 201.488281 245.691406 197.546875 C 245.667969 195.824219 245.078125 193.480469 242.984375 193.378906 C 240.914062 193.28125 238.714844 194.882812 238.128906 196.84375 C 237.933594 197.488281 236.929688 197.214844 237.121094 196.566406 C 237.378906 195.707031 237.859375 194.949219 238.476562 194.3125 C 237.207031 194.085938 234.238281 193.257812 233.039062 190.375 C 231.492188 186.664062 232.265625 185.273438 230.566406 181.871094 C 228.867188 178.46875 231.492188 175.070312 231.183594 174.140625 C 231.105469 173.902344 230.867188 173.835938 230.5625 173.867188 C 230.707031 174.09375 230.710938 174.425781 230.425781 174.617188 C 225.71875 177.84375 223.773438 183.730469 223.238281 189.179688 C 223.007812 191.523438 223.035156 194.097656 221.765625 196.171875 C 221.136719 197.199219 220.21875 197.902344 219.199219 198.511719 C 218.175781 199.121094 216.964844 199.691406 216.398438 200.804688 C 215.882812 201.820312 215.972656 203.132812 216.597656 204.082031 C 217.289062 205.132812 218.589844 205.566406 219.324219 206.613281 C 219.988281 207.5625 220.285156 208.679688 220.441406 209.839844 C 222.90625 209.835938 225.339844 209.425781 227.664062 208.601562 C 227.890625 208.519531 228.128906 208.660156 228.253906 208.839844 C 228.589844 209.332031 228.433594 209.933594 228.289062 210.464844 C 228.160156 210.9375 227.984375 211.398438 227.78125 211.84375 C 227.371094 212.746094 226.796875 213.578125 226.125 214.304688 C 224.835938 215.691406 223.128906 216.695312 221.277344 217.09375 C 221.371094 217.570312 221.460938 218.050781 221.578125 218.523438 C 221.914062 219.886719 222.230469 221.488281 223.214844 222.550781 C 224.097656 223.507812 225.414062 223.910156 226.648438 224.179688 C 227.984375 224.46875 229.351562 224.625 230.71875 224.667969 C 236.191406 224.839844 241.632812 223.121094 246.011719 219.835938 C 246.550781 219.433594 247.070312 220.339844 246.539062 220.738281 C 242.492188 223.773438 237.515625 225.492188 232.472656 225.695312 C 233.90625 229.433594 234.546875 233.472656 234.121094 237.460938 Z M 257.988281 228.113281 " fill-opacity="1" fill-rule="nonzero"/></g><path fill="#3ca152" d="M 187.511719 325.355469 C 187.511719 322.917969 185.53125 320.949219 183.09375 320.960938 C 172.992188 321.007812 148.671875 321.105469 143.652344 320.980469 L 125.007812 279.519531 C 124.019531 277.316406 121.816406 275.878906 119.40625 275.855469 C 106.46875 275.734375 62.738281 275.828125 44.539062 275.875 C 43.257812 275.878906 42.070312 276.523438 41.363281 277.597656 C 40.65625 278.671875 40.539062 280.019531 41.046875 281.199219 L 64.953125 336.761719 L 150.75 336.761719 L 150.515625 336.242188 L 187.511719 336.242188 Z M 65.640625 335.722656 L 42.007812 280.789062 C 41.636719 279.929688 41.722656 278.949219 42.234375 278.167969 C 42.753906 277.378906 43.597656 276.921875 44.542969 276.917969 C 62.742188 276.871094 106.460938 276.777344 119.394531 276.898438 C 121.402344 276.917969 123.234375 278.113281 124.058594 279.949219 L 149.136719 335.722656 Z M 65.640625 335.722656 " fill-opacity="1" fill-rule="nonzero"/><path fill="#f4f4ed" d="M 98.9375 304.1875 C 100.570312 311.585938 97.976562 318.449219 93.140625 319.519531 C 88.304688 320.585938 83.058594 315.457031 81.421875 308.058594 C 79.789062 300.65625 82.382812 293.792969 87.21875 292.726562 C 92.054688 291.65625 97.300781 296.789062 98.9375 304.1875 Z M 87.40625 61.898438 C 76.21875 61.898438 67.152344 70.96875 67.152344 82.152344 C 67.152344 93.335938 76.21875 102.40625 87.40625 102.40625 C 98.589844 102.40625 107.65625 93.335938 107.65625 82.152344 C 107.65625 70.96875 98.589844 61.898438 87.40625 61.898438 Z M 87.40625 61.898438 " fill-opacity="1" fill-rule="nonzero"/><path fill="#3ca152" d="M 93.597656 80.414062 C 92.195312 79.9375 89.277344 78.949219 89.261719 73.007812 C 89.261719 71.984375 88.394531 71.117188 87.371094 71.117188 C 86.351562 71.117188 85.539062 71.917969 85.476562 72.980469 C 85.363281 75.019531 84.722656 77.046875 84.207031 78.386719 C 83.78125 79.5 82.738281 79.863281 81.726562 80.214844 C 80.652344 80.589844 79.433594 81.015625 79.5 82.457031 C 79.5625 83.753906 80.671875 84.238281 81.648438 84.660156 C 82.742188 85.136719 83.878906 85.628906 84.226562 87.160156 L 84.40625 87.925781 C 84.761719 89.445312 85.128906 91.015625 85.1875 92.5625 C 85.230469 93.625 86.027344 94.441406 87.046875 94.457031 C 87.058594 94.457031 87.066406 94.457031 87.078125 94.457031 C 88.066406 94.457031 88.914062 93.640625 88.96875 92.621094 C 89.367188 85.722656 91.417969 85.3125 92.914062 85.015625 C 93.269531 84.941406 93.609375 84.875 93.90625 84.730469 C 94.792969 84.304688 95.347656 83.386719 95.289062 82.441406 C 95.234375 81.511719 94.601562 80.753906 93.597656 80.414062 Z M 93.457031 83.789062 C 93.277344 83.875 93.015625 83.929688 92.710938 83.988281 C 90.515625 84.425781 88.339844 85.449219 87.929688 92.558594 C 87.902344 93.015625 87.507812 93.414062 87.078125 93.414062 C 87.074219 93.414062 87.070312 93.414062 87.066406 93.414062 C 86.542969 93.402344 86.246094 92.957031 86.230469 92.519531 C 86.167969 90.871094 85.789062 89.253906 85.421875 87.6875 L 85.246094 86.925781 C 84.777344 84.878906 83.210938 84.199219 82.066406 83.703125 C 81.085938 83.277344 80.574219 83.027344 80.542969 82.40625 C 80.515625 81.800781 80.941406 81.59375 82.070312 81.199219 C 83.1875 80.808594 84.582031 80.324219 85.183594 78.761719 C 85.726562 77.347656 86.394531 75.214844 86.519531 73.039062 C 86.542969 72.605469 86.84375 72.160156 87.371094 72.160156 C 87.8125 72.160156 88.21875 72.566406 88.21875 73.011719 C 88.234375 78.9375 90.921875 80.609375 93.261719 81.402344 C 93.867188 81.609375 94.21875 82 94.25 82.507812 C 94.28125 83.03125 93.964844 83.546875 93.457031 83.789062 Z M 238.769531 98.878906 L 209.722656 98.878906 C 204.191406 98.878906 200.730469 92.886719 203.5 88.09375 L 210.757812 75.519531 L 218.019531 62.941406 C 220.789062 58.148438 227.707031 58.148438 230.472656 62.941406 L 237.734375 75.519531 L 244.996094 88.09375 C 247.761719 92.886719 244.304688 98.878906 238.769531 98.878906 Z M 93.0625 303.621094 C 92.308594 303.421875 90.742188 303 89.726562 298.441406 C 89.535156 297.578125 88.835938 296.992188 88.175781 297.140625 C 87.515625 297.289062 87.15625 298.050781 87.320312 298.953125 C 87.609375 300.546875 87.632812 302.1875 87.601562 303.28125 C 87.578125 304.140625 87.1875 304.472656 86.738281 304.859375 C 86.246094 305.28125 85.636719 305.804688 85.921875 306.925781 C 86.175781 307.933594 86.890625 308.207031 87.460938 308.425781 C 88.085938 308.667969 88.675781 308.894531 89.101562 310.015625 L 89.320312 310.574219 C 89.761719 311.710938 90.214844 312.890625 90.511719 314.085938 C 90.714844 314.890625 91.253906 315.417969 91.847656 315.417969 C 91.910156 315.417969 91.972656 315.410156 92.039062 315.398438 C 92.695312 315.269531 93.085938 314.476562 92.921875 313.597656 C 91.957031 308.285156 92.914062 307.742188 93.484375 307.417969 C 93.671875 307.3125 93.859375 307.207031 94.019531 307.023438 C 94.445312 306.539062 94.578125 305.707031 94.351562 304.957031 C 94.140625 304.273438 93.667969 303.785156 93.0625 303.621094 Z M 93.230469 306.34375 C 93.191406 306.390625 93.082031 306.449219 92.972656 306.511719 C 91.824219 307.160156 90.878906 308.207031 91.894531 313.789062 C 91.953125 314.113281 91.855469 314.351562 91.851562 314.375 C 91.792969 314.359375 91.613281 314.1875 91.523438 313.835938 C 91.210938 312.574219 90.746094 311.367188 90.292969 310.199219 L 90.078125 309.644531 C 89.484375 308.089844 88.535156 307.722656 87.839844 307.453125 C 87.28125 307.238281 87.050781 307.132812 86.933594 306.667969 C 86.8125 306.199219 86.945312 306.058594 87.417969 305.652344 C 87.921875 305.222656 88.609375 304.632812 88.648438 303.3125 C 88.679688 302.167969 88.65625 300.449219 88.347656 298.765625 C 88.285156 298.421875 88.371094 298.191406 88.375 298.160156 C 88.441406 298.175781 88.636719 298.347656 88.707031 298.667969 C 89.722656 303.230469 91.34375 304.242188 92.792969 304.632812 C 93.140625 304.722656 93.292969 305.066406 93.351562 305.265625 C 93.46875 305.664062 93.421875 306.125 93.230469 306.34375 Z M 93.230469 306.34375 " fill-opacity="1" fill-rule="nonzero"/><path fill="#000000" d="M 221.925781 88.644531 C 222.582031 89.570312 223.273438 90.78125 224.617188 90.429688 C 225.230469 90.269531 225.566406 89.820312 225.902344 89.320312 C 226.28125 88.753906 226.65625 88.183594 227.03125 87.613281 C 227.863281 86.339844 228.691406 85.0625 229.476562 83.757812 C 229.917969 83.027344 230.640625 82.101562 230.769531 81.230469 C 230.773438 81.207031 230.765625 81.1875 230.765625 81.164062 C 230.773438 81.136719 230.785156 81.121094 230.789062 81.09375 C 230.953125 79.238281 230.152344 76.910156 227.910156 77.015625 C 226.136719 77.097656 224.863281 78.886719 224.027344 80.449219 C 223.035156 78.738281 221.734375 76.832031 219.585938 77.007812 C 218.125 77.125 217.175781 78.351562 217.003906 79.738281 C 216.882812 80.710938 217.132812 81.414062 217.609375 82.226562 C 218.90625 84.449219 220.4375 86.546875 221.925781 88.644531 Z M 218.707031 78.453125 C 219.917969 77.378906 221.4375 78.496094 222.175781 79.535156 C 222.691406 80.265625 223.160156 81.035156 223.601562 81.8125 C 223.785156 82.132812 224.332031 82.171875 224.503906 81.8125 C 225.132812 80.496094 226.144531 78.472656 227.6875 78.097656 C 228.195312 77.972656 228.746094 78.140625 229.121094 78.5 C 229.789062 79.125 229.820312 80.136719 229.753906 80.992188 C 229.652344 81.554688 229.226562 82.132812 228.945312 82.609375 C 228.410156 83.535156 227.839844 84.4375 227.265625 85.339844 C 226.65625 86.289062 226.039062 87.234375 225.414062 88.175781 C 225.167969 88.542969 224.90625 89.164062 224.496094 89.371094 C 223.867188 89.6875 223.480469 89.039062 223.175781 88.605469 C 221.898438 86.8125 220.625 85.007812 219.425781 83.164062 C 218.984375 82.488281 218.488281 81.792969 218.15625 81.054688 C 217.824219 80.304688 218.03125 79.050781 218.707031 78.453125 Z M 51.5 111.699219 C 49.675781 111.699219 48.191406 113.183594 48.191406 115.003906 C 48.191406 116.828125 49.675781 118.3125 51.5 118.3125 C 53.320312 118.3125 54.804688 116.828125 54.804688 115.003906 C 54.804688 113.183594 53.320312 111.699219 51.5 111.699219 Z M 51.5 117.265625 C 50.25 117.265625 49.238281 116.253906 49.238281 115.003906 C 49.238281 113.757812 50.25 112.742188 51.5 112.742188 C 52.746094 112.742188 53.757812 113.757812 53.757812 115.003906 C 53.757812 116.253906 52.746094 117.265625 51.5 117.265625 Z M 126.015625 115.003906 C 126.015625 116.117188 125.117188 117.015625 124.007812 117.015625 L 61.238281 117.015625 C 60.128906 117.015625 59.226562 116.117188 59.226562 115.003906 C 59.226562 113.894531 60.128906 112.996094 61.238281 112.996094 L 124.007812 112.996094 C 125.117188 112.996094 126.015625 113.894531 126.015625 115.003906 Z M 51.5 128.808594 C 49.675781 128.808594 48.191406 130.292969 48.191406 132.113281 C 48.191406 133.9375 49.675781 135.417969 51.5 135.417969 C 53.320312 135.417969 54.804688 133.9375 54.804688 132.113281 C 54.804688 130.292969 53.320312 128.808594 51.5 128.808594 Z M 51.5 134.375 C 50.25 134.375 49.238281 133.363281 49.238281 132.113281 C 49.238281 130.867188 50.25 129.851562 51.5 129.851562 C 52.746094 129.851562 53.757812 130.867188 53.757812 132.113281 C 53.757812 133.363281 52.746094 134.375 51.5 134.375 Z M 126.015625 132.113281 C 126.015625 133.226562 125.117188 134.125 124.007812 134.125 L 61.238281 134.125 C 60.128906 134.125 59.226562 133.226562 59.226562 132.113281 C 59.226562 131.003906 60.128906 130.105469 61.238281 130.105469 L 124.007812 130.105469 C 125.117188 130.105469 126.015625 131.003906 126.015625 132.113281 Z M 51.5 145.917969 C 49.675781 145.917969 48.191406 147.402344 48.191406 149.222656 C 48.191406 151.046875 49.675781 152.527344 51.5 152.527344 C 53.320312 152.527344 54.804688 151.046875 54.804688 149.222656 C 54.804688 147.402344 53.320312 145.917969 51.5 145.917969 Z M 51.5 151.484375 C 50.25 151.484375 49.238281 150.472656 49.238281 149.222656 C 49.238281 147.976562 50.25 146.960938 51.5 146.960938 C 52.746094 146.960938 53.757812 147.976562 53.757812 149.222656 C 53.757812 150.472656 52.746094 151.484375 51.5 151.484375 Z M 126.015625 149.222656 C 126.015625 150.335938 125.117188 151.234375 124.007812 151.234375 L 61.238281 151.234375 C 60.128906 151.234375 59.226562 150.335938 59.226562 149.222656 C 59.226562 148.113281 60.128906 147.214844 61.238281 147.214844 L 124.007812 147.214844 C 125.117188 147.214844 126.015625 148.113281 126.015625 149.222656 Z M 51.5 163.03125 C 49.675781 163.03125 48.191406 164.511719 48.191406 166.335938 C 48.191406 168.15625 49.675781 169.640625 51.5 169.640625 C 53.320312 169.640625 54.804688 168.15625 54.804688 166.335938 C 54.804688 164.511719 53.320312 163.03125 51.5 163.03125 Z M 51.5 168.597656 C 50.25 168.597656 49.238281 167.582031 49.238281 166.335938 C 49.238281 165.085938 50.25 164.074219 51.5 164.074219 C 52.746094 164.074219 53.757812 165.085938 53.757812 166.335938 C 53.757812 167.582031 52.746094 168.597656 51.5 168.597656 Z M 126.015625 166.332031 C 126.015625 167.445312 125.117188 168.34375 124.007812 168.34375 L 61.238281 168.34375 C 60.128906 168.34375 59.226562 167.445312 59.226562 166.332031 C 59.226562 165.222656 60.128906 164.324219 61.238281 164.324219 L 124.007812 164.324219 C 125.117188 164.324219 126.015625 165.222656 126.015625 166.332031 Z M 184.609375 108.917969 C 182.789062 108.917969 181.304688 110.402344 181.304688 112.222656 C 181.304688 114.046875 182.789062 115.527344 184.609375 115.527344 C 186.433594 115.527344 187.914062 114.046875 187.914062 112.222656 C 187.914062 110.402344 186.433594 108.917969 184.609375 108.917969 Z M 184.609375 114.484375 C 183.363281 114.484375 182.347656 113.46875 182.347656 112.222656 C 182.347656 110.976562 183.363281 109.960938 184.609375 109.960938 C 185.859375 109.960938 186.871094 110.976562 186.871094 112.222656 C 186.871094 113.46875 185.859375 114.484375 184.609375 114.484375 Z M 192.339844 112.222656 C 192.339844 111.113281 193.242188 110.214844 194.351562 110.214844 L 257.121094 110.214844 C 258.230469 110.214844 259.128906 111.113281 259.128906 112.222656 C 259.128906 113.332031 258.230469 114.234375 257.121094 114.234375 L 194.351562 114.234375 C 193.242188 114.234375 192.339844 113.332031 192.339844 112.222656 Z M 184.609375 126.027344 C 182.789062 126.027344 181.304688 127.511719 181.304688 129.332031 C 181.304688 131.15625 182.789062 132.636719 184.609375 132.636719 C 186.433594 132.636719 187.914062 131.15625 187.914062 129.332031 C 187.914062 127.511719 186.433594 126.027344 184.609375 126.027344 Z M 184.609375 131.59375 C 183.363281 131.59375 182.347656 130.578125 182.347656 129.332031 C 182.347656 128.085938 183.363281 127.070312 184.609375 127.070312 C 185.859375 127.070312 186.871094 128.085938 186.871094 129.332031 C 186.871094 130.578125 185.859375 131.59375 184.609375 131.59375 Z M 259.128906 129.332031 C 259.128906 130.441406 258.230469 131.34375 257.121094 131.34375 L 194.351562 131.34375 C 193.242188 131.34375 192.339844 130.441406 192.339844 129.332031 C 192.339844 128.222656 193.242188 127.324219 194.351562 127.324219 L 257.121094 127.324219 C 258.230469 127.324219 259.128906 128.222656 259.128906 129.332031 Z M 184.609375 143.136719 C 182.789062 143.136719 181.304688 144.621094 181.304688 146.441406 C 181.304688 148.265625 182.789062 149.746094 184.609375 149.746094 C 186.433594 149.746094 187.914062 148.265625 187.914062 146.441406 C 187.914062 144.621094 186.433594 143.136719 184.609375 143.136719 Z M 184.609375 148.703125 C 183.363281 148.703125 182.347656 147.6875 182.347656 146.441406 C 182.347656 145.195312 183.363281 144.179688 184.609375 144.179688 C 185.859375 144.179688 186.871094 145.195312 186.871094 146.441406 C 186.871094 147.6875 185.859375 148.703125 184.609375 148.703125 Z M 259.128906 146.441406 C 259.128906 147.550781 258.230469 148.453125 257.121094 148.453125 L 194.351562 148.453125 C 193.242188 148.453125 192.339844 147.550781 192.339844 146.441406 C 192.339844 145.332031 193.242188 144.433594 194.351562 144.433594 L 257.121094 144.433594 C 258.230469 144.433594 259.128906 145.332031 259.128906 146.441406 Z M 184.609375 160.246094 C 182.789062 160.246094 181.304688 161.730469 181.304688 163.550781 C 181.304688 165.375 182.789062 166.855469 184.609375 166.855469 C 186.433594 166.855469 187.914062 165.375 187.914062 163.550781 C 187.914062 161.730469 186.433594 160.246094 184.609375 160.246094 Z M 184.609375 165.8125 C 183.363281 165.8125 182.347656 164.796875 182.347656 163.550781 C 182.347656 162.304688 183.363281 161.289062 184.609375 161.289062 C 185.859375 161.289062 186.871094 162.304688 186.871094 163.550781 C 186.871094 164.796875 185.859375 165.8125 184.609375 165.8125 Z M 259.128906 163.550781 C 259.128906 164.660156 258.230469 165.5625 257.121094 165.5625 L 194.351562 165.5625 C 193.242188 165.5625 192.339844 164.660156 192.339844 163.550781 C 192.339844 162.441406 193.242188 161.542969 194.351562 161.542969 L 257.121094 161.542969 C 258.230469 161.542969 259.128906 162.441406 259.128906 163.550781 Z M 152.085938 44.96875 C 152.117188 46.730469 152.085938 48.496094 152.085938 50.253906 C 152.085938 53.984375 152.085938 57.710938 152.085938 61.4375 C 152.085938 66.621094 152.085938 71.804688 152.085938 76.992188 C 152.085938 83.105469 152.085938 89.214844 152.085938 95.328125 C 152.085938 101.929688 152.085938 108.53125 152.085938 115.132812 C 152.085938 121.628906 152.085938 128.125 152.085938 134.621094 C 152.085938 140.570312 152.085938 146.519531 152.085938 152.472656 C 152.085938 157.351562 152.085938 162.226562 152.085938 167.105469 C 152.085938 170.394531 152.085938 173.6875 152.085938 176.976562 C 152.085938 178.195312 152.085938 179.414062 152.085938 180.636719 C 152.085938 181.308594 151.042969 181.308594 151.042969 180.636719 C 151.042969 180.558594 151.042969 180.480469 151.042969 180.40625 C 151.011719 178.644531 151.042969 176.878906 151.042969 175.121094 C 151.042969 171.390625 151.042969 167.664062 151.042969 163.9375 C 151.042969 158.753906 151.042969 153.570312 151.042969 148.382812 C 151.042969 142.269531 151.042969 136.160156 151.042969 130.046875 C 151.042969 123.445312 151.042969 116.84375 151.042969 110.242188 C 151.042969 103.746094 151.042969 97.25 151.042969 90.753906 C 151.042969 84.804688 151.042969 78.851562 151.042969 72.902344 C 151.042969 68.023438 151.042969 63.144531 151.042969 58.269531 C 151.042969 54.976562 151.042969 51.6875 151.042969 48.398438 C 151.042969 47.179688 151.042969 45.957031 151.042969 44.738281 C 151.042969 44.066406 152.085938 44.066406 152.085938 44.738281 C 152.085938 44.816406 152.085938 44.890625 152.085938 44.96875 Z M 152.085938 44.96875 " fill-opacity="1" fill-rule="nonzero"/></svg>