<svg xmlns="http://www.w3.org/2000/svg" xmlns:xlink="http://www.w3.org/1999/xlink" width="500" zoomAndPan="magnify" viewBox="0 0 375 374.999991" height="500" preserveAspectRatio="xMidYMid meet" version="1.0"><defs><clipPath id="faf6cc5843"><path d="M 33 26.625 L 348 26.625 L 348 345 L 33 345 Z M 33 26.625 " clip-rule="nonzero"/></clipPath></defs><g clip-path="url(#faf6cc5843)"><path fill="#3ca152" d="M 219.71875 26.703125 C 209.515625 26.6875 116.449219 28.121094 65.59375 105.652344 C 38.523438 146.921875 20.359375 214.410156 46.894531 251.183594 C 54.730469 262.042969 58.839844 259.652344 100.722656 285.355469 C 158.21875 320.636719 157.949219 329.71875 181.753906 337.792969 C 212.738281 348.304688 258.519531 348.28125 292.8125 322.472656 C 331.726562 293.195312 337.480469 244.535156 343.242188 195.800781 C 348.898438 147.96875 354.628906 99.511719 324.546875 63.820312 C 293.355469 26.820312 243.226562 26.738281 219.71875 26.703125 " fill-opacity="1" fill-rule="nonzero"/></g><path fill="#3ca152" d="M 297.035156 291.015625 L 336.222656 291.015625 C 339.46875 291.015625 342.101562 288.40625 342.101562 285.191406 L 342.101562 75.121094 C 342.101562 71.535156 339.167969 68.625 335.550781 68.625 L 236.253906 68.625 L 297.035156 291.015625 " fill-opacity="1" fill-rule="nonzero"/><path fill="#3ca152" d="M 342.101562 236.039062 L 342.101562 73.242188 C 342.101562 72.78125 342.054688 72.328125 341.964844 71.894531 L 342.101562 236.039062 " fill-opacity="1" fill-rule="nonzero"/><path fill="#07632e" d="M 336.222656 291.589844 L 297.035156 291.589844 C 296.71875 291.589844 296.464844 291.332031 296.464844 291.015625 C 296.464844 290.699219 296.71875 290.441406 297.035156 290.441406 L 336.222656 290.441406 C 339.152344 290.441406 341.53125 288.078125 341.53125 285.171875 L 341.53125 74.492188 C 341.53125 71.21875 338.847656 68.554688 335.550781 68.554688 L 236.253906 68.554688 C 235.933594 68.554688 235.679688 68.296875 235.679688 67.980469 C 235.679688 67.664062 235.933594 67.40625 236.253906 67.40625 L 335.550781 67.40625 C 339.480469 67.40625 342.675781 70.585938 342.675781 74.492188 L 342.675781 285.171875 C 342.675781 288.710938 339.78125 291.589844 336.222656 291.589844 " fill-opacity="1" fill-rule="nonzero"/><path fill="#3ca152" d="M 341.964844 71.894531 C 341.34375 68.921875 338.707031 66.691406 335.550781 66.691406 L 236.253906 66.691406 L 341.964844 71.894531 " fill-opacity="1" fill-rule="nonzero"/><path fill="#ffffff" d="M 295.769531 300.628906 C 295.347656 302.746094 293.488281 304.273438 291.328125 304.273438 L 62.351562 304.273438 C 59.5 304.273438 57.359375 301.667969 57.914062 298.871094 L 103.441406 70.277344 C 103.859375 68.15625 105.71875 66.628906 107.878906 66.628906 L 336.855469 66.628906 C 339.707031 66.628906 341.847656 69.234375 341.292969 72.03125 L 295.769531 300.628906 " fill-opacity="1" fill-rule="nonzero"/><path fill="#000000" d="M 313.878906 210.261719 C 313.84375 210.261719 313.804688 210.257812 313.765625 210.25 C 313.457031 210.1875 313.253906 209.886719 313.316406 209.574219 L 340.730469 71.917969 C 340.960938 70.757812 340.660156 69.5625 339.910156 68.644531 C 339.152344 67.726562 338.042969 67.203125 336.855469 67.203125 L 107.878906 67.203125 C 106 67.203125 104.367188 68.542969 104.003906 70.386719 L 88.121094 145.019531 C 88.054688 145.332031 87.75 145.53125 87.4375 145.464844 C 87.128906 145.398438 86.929688 145.09375 86.996094 144.78125 L 102.878906 70.15625 C 103.347656 67.785156 105.453125 66.054688 107.878906 66.054688 L 336.855469 66.054688 C 338.386719 66.054688 339.820312 66.734375 340.796875 67.917969 C 341.765625 69.101562 342.152344 70.640625 341.855469 72.144531 L 314.441406 209.796875 C 314.386719 210.070312 314.148438 210.261719 313.878906 210.261719 " fill-opacity="1" fill-rule="nonzero"/><path fill="#3ca152" d="M 93.632812 212.417969 L 98.425781 187.242188 L 124.972656 187.242188 L 120.179688 212.417969 L 93.632812 212.417969 " fill-opacity="1" fill-rule="nonzero"/><path fill="#3ca152" d="M 123.496094 212.417969 L 128.289062 187.242188 L 154.835938 187.242188 L 150.042969 212.417969 L 123.496094 212.417969 " fill-opacity="1" fill-rule="nonzero"/><path fill="#3ca152" d="M 153.363281 212.417969 L 158.15625 187.242188 L 184.699219 187.242188 L 179.90625 212.417969 L 153.363281 212.417969 " fill-opacity="1" fill-rule="nonzero"/><path fill="#3ca152" d="M 183.226562 212.417969 L 188.015625 187.242188 L 214.5625 187.242188 L 209.769531 212.417969 L 183.226562 212.417969 " fill-opacity="1" fill-rule="nonzero"/><path fill="#3ca152" d="M 213.089844 212.417969 L 217.882812 187.242188 L 244.425781 187.242188 L 239.632812 212.417969 L 213.089844 212.417969 " fill-opacity="1" fill-rule="nonzero"/><path fill="#3ca152" d="M 242.953125 212.414062 L 247.742188 187.242188 L 274.289062 187.242188 L 269.496094 212.414062 L 242.953125 212.414062 " fill-opacity="1" fill-rule="nonzero"/><path fill="#3ca152" d="M 272.816406 212.417969 L 277.609375 187.242188 L 304.152344 187.242188 L 299.359375 212.417969 L 272.816406 212.417969 " fill-opacity="1" fill-rule="nonzero"/><path fill="#3ca152" d="M 88.324219 240.550781 L 93.117188 215.378906 L 119.664062 215.378906 L 114.871094 240.550781 L 88.324219 240.550781 " fill-opacity="1" fill-rule="nonzero"/><path fill="#3ca152" d="M 118.1875 240.550781 L 122.980469 215.378906 L 149.527344 215.378906 L 144.734375 240.550781 L 118.1875 240.550781 " fill-opacity="1" fill-rule="nonzero"/><path fill="#3ca152" d="M 148.050781 240.550781 L 152.84375 215.378906 L 179.390625 215.378906 L 174.597656 240.550781 L 148.050781 240.550781 " fill-opacity="1" fill-rule="nonzero"/><path fill="#3ca152" d="M 177.917969 240.550781 L 182.707031 215.378906 L 209.253906 215.378906 L 204.460938 240.550781 L 177.917969 240.550781 " fill-opacity="1" fill-rule="nonzero"/><path fill="#3ca152" d="M 207.777344 240.550781 L 212.570312 215.378906 L 239.117188 215.378906 L 234.324219 240.550781 L 207.777344 240.550781 " fill-opacity="1" fill-rule="nonzero"/><path fill="#3ca152" d="M 237.644531 240.550781 L 242.4375 215.378906 L 268.980469 215.378906 L 264.1875 240.550781 L 237.644531 240.550781 " fill-opacity="1" fill-rule="nonzero"/><path fill="#3ca152" d="M 267.507812 240.550781 L 272.300781 215.378906 L 298.84375 215.378906 L 294.050781 240.550781 L 267.507812 240.550781 " fill-opacity="1" fill-rule="nonzero"/><path fill="#3ca152" d="M 104.25 156.140625 L 109.046875 130.964844 L 135.589844 130.964844 L 130.796875 156.140625 L 104.25 156.140625 " fill-opacity="1" fill-rule="nonzero"/><path fill="#3ca152" d="M 134.128906 156.113281 L 138.921875 130.9375 L 165.46875 130.9375 L 160.675781 156.113281 L 134.128906 156.113281 " fill-opacity="1" fill-rule="nonzero"/><path fill="#3ca152" d="M 163.980469 156.140625 L 168.773438 130.964844 L 195.316406 130.964844 L 190.523438 156.140625 L 163.980469 156.140625 " fill-opacity="1" fill-rule="nonzero"/><path fill="#3ca152" d="M 193.84375 156.140625 L 198.636719 130.964844 L 225.179688 130.964844 L 220.386719 156.140625 L 193.84375 156.140625 " fill-opacity="1" fill-rule="nonzero"/><path fill="#3ca152" d="M 223.707031 156.140625 L 228.5 130.964844 L 255.042969 130.964844 L 250.25 156.140625 L 223.707031 156.140625 " fill-opacity="1" fill-rule="nonzero"/><path fill="#3ca152" d="M 253.570312 156.140625 L 258.363281 130.964844 L 284.910156 130.964844 L 280.113281 156.140625 L 253.570312 156.140625 " fill-opacity="1" fill-rule="nonzero"/><path fill="#3ca152" d="M 283.433594 156.140625 L 288.226562 130.964844 L 314.773438 130.964844 L 309.976562 156.140625 L 283.433594 156.140625 " fill-opacity="1" fill-rule="nonzero"/><path fill="#3ca152" d="M 98.941406 184.277344 L 103.734375 159.101562 L 130.28125 159.101562 L 125.488281 184.277344 L 98.941406 184.277344 " fill-opacity="1" fill-rule="nonzero"/><path fill="#3ca152" d="M 128.804688 184.277344 L 133.597656 159.101562 L 160.144531 159.101562 L 155.351562 184.277344 L 128.804688 184.277344 " fill-opacity="1" fill-rule="nonzero"/><path fill="#3ca152" d="M 158.671875 184.277344 L 163.464844 159.101562 L 190.007812 159.101562 L 185.214844 184.277344 L 158.671875 184.277344 " fill-opacity="1" fill-rule="nonzero"/><path fill="#3ca152" d="M 188.53125 184.277344 L 193.328125 159.101562 L 219.871094 159.101562 L 215.078125 184.277344 L 188.53125 184.277344 " fill-opacity="1" fill-rule="nonzero"/><path fill="#3ca152" d="M 218.398438 184.277344 L 223.191406 159.101562 L 249.734375 159.101562 L 244.941406 184.277344 L 218.398438 184.277344 " fill-opacity="1" fill-rule="nonzero"/><path fill="#3ca152" d="M 277.769531 184.277344 L 282.5625 159.101562 L 309.109375 159.101562 L 304.316406 184.277344 L 277.769531 184.277344 " fill-opacity="1" fill-rule="nonzero"/><path fill="#3ca152" d="M 248.261719 184.277344 L 253.054688 159.101562 L 279.597656 159.101562 L 274.804688 184.277344 L 248.261719 184.277344 " fill-opacity="1" fill-rule="nonzero"/><path fill="#000000" d="M 151.761719 66.757812 C 151.445312 66.757812 151.1875 66.5 151.1875 66.183594 C 151.1875 61.945312 149.8125 57.941406 147.214844 54.609375 C 147.019531 54.355469 147.0625 53.996094 147.3125 53.800781 C 147.5625 53.605469 147.925781 53.652344 148.117188 53.902344 C 150.875 57.4375 152.335938 61.6875 152.335938 66.183594 C 152.335938 66.5 152.078125 66.757812 151.761719 66.757812 " fill-opacity="1" fill-rule="nonzero"/><path fill="#000000" d="M 132.34375 86.175781 C 121.320312 86.175781 112.351562 77.207031 112.351562 66.183594 C 112.351562 55.160156 121.320312 46.191406 132.34375 46.191406 C 136.519531 46.191406 140.519531 47.46875 143.914062 49.878906 C 144.171875 50.0625 144.234375 50.417969 144.046875 50.679688 C 143.863281 50.9375 143.507812 50.996094 143.25 50.8125 C 140.050781 48.539062 136.28125 47.339844 132.34375 47.339844 C 121.953125 47.339844 113.5 55.792969 113.5 66.183594 C 113.5 76.574219 121.953125 85.027344 132.34375 85.027344 C 132.660156 85.027344 132.917969 85.285156 132.917969 85.601562 C 132.917969 85.917969 132.660156 86.175781 132.34375 86.175781 " fill-opacity="1" fill-rule="nonzero"/><path fill="#000000" d="M 177.773438 66.757812 C 177.457031 66.757812 177.199219 66.5 177.199219 66.183594 C 177.199219 61.84375 175.765625 57.765625 173.050781 54.386719 C 172.855469 54.140625 172.894531 53.777344 173.140625 53.578125 C 173.386719 53.378906 173.746094 53.417969 173.949219 53.667969 C 176.785156 57.199219 178.347656 61.644531 178.347656 66.183594 C 178.347656 66.5 178.09375 66.757812 177.773438 66.757812 " fill-opacity="1" fill-rule="nonzero"/><path fill="#000000" d="M 158.359375 86.175781 C 147.332031 86.175781 138.363281 77.207031 138.363281 66.183594 C 138.363281 55.160156 147.332031 46.191406 158.359375 46.191406 C 162.304688 46.191406 166.117188 47.339844 169.390625 49.511719 C 169.65625 49.683594 169.730469 50.042969 169.554688 50.304688 C 169.378906 50.570312 169.023438 50.644531 168.757812 50.464844 C 165.671875 48.421875 162.074219 47.339844 158.359375 47.339844 C 147.96875 47.339844 139.511719 55.792969 139.511719 66.183594 C 139.511719 76.574219 147.96875 85.027344 158.359375 85.027344 C 158.675781 85.027344 158.929688 85.285156 158.929688 85.601562 C 158.929688 85.917969 158.675781 86.175781 158.359375 86.175781 " fill-opacity="1" fill-rule="nonzero"/><path fill="#000000" d="M 203.789062 66.757812 C 203.472656 66.757812 203.214844 66.5 203.214844 66.183594 C 203.214844 61.832031 201.699219 57.585938 198.941406 54.230469 C 198.738281 53.984375 198.773438 53.621094 199.015625 53.421875 C 199.265625 53.21875 199.625 53.253906 199.824219 53.5 C 202.753906 57.0625 204.367188 61.566406 204.367188 66.183594 C 204.367188 66.5 204.109375 66.757812 203.789062 66.757812 " fill-opacity="1" fill-rule="nonzero"/><path fill="#000000" d="M 184.371094 86.175781 C 173.347656 86.175781 164.378906 77.207031 164.378906 66.183594 C 164.378906 55.160156 173.347656 46.191406 184.371094 46.191406 C 188.480469 46.191406 192.429688 47.429688 195.792969 49.773438 C 196.050781 49.953125 196.117188 50.308594 195.933594 50.570312 C 195.753906 50.832031 195.394531 50.894531 195.132812 50.710938 C 191.96875 48.503906 188.246094 47.339844 184.371094 47.339844 C 173.980469 47.339844 165.527344 55.792969 165.527344 66.183594 C 165.527344 76.574219 173.980469 85.027344 184.371094 85.027344 C 184.6875 85.027344 184.945312 85.285156 184.945312 85.601562 C 184.945312 85.917969 184.6875 86.175781 184.371094 86.175781 " fill-opacity="1" fill-rule="nonzero"/><path fill="#000000" d="M 229.804688 66.757812 C 229.488281 66.757812 229.230469 66.5 229.230469 66.183594 C 229.230469 61.769531 227.675781 57.476562 224.847656 54.097656 C 224.644531 53.855469 224.675781 53.492188 224.917969 53.289062 C 225.160156 53.085938 225.523438 53.117188 225.726562 53.363281 C 228.726562 56.949219 230.375 61.503906 230.375 66.183594 C 230.375 66.5 230.121094 66.757812 229.804688 66.757812 " fill-opacity="1" fill-rule="nonzero"/><path fill="#000000" d="M 210.386719 86.175781 C 199.359375 86.175781 190.394531 77.207031 190.394531 66.183594 C 190.394531 55.160156 199.359375 46.191406 210.386719 46.191406 C 214.390625 46.191406 218.257812 47.371094 221.5625 49.605469 C 221.824219 49.785156 221.894531 50.140625 221.714844 50.402344 C 221.539062 50.664062 221.183594 50.734375 220.921875 50.558594 C 217.804688 48.453125 214.160156 47.339844 210.386719 47.339844 C 199.996094 47.339844 191.542969 55.792969 191.542969 66.183594 C 191.542969 76.574219 199.996094 85.027344 210.386719 85.027344 C 210.703125 85.027344 210.960938 85.285156 210.960938 85.601562 C 210.960938 85.917969 210.703125 86.175781 210.386719 86.175781 " fill-opacity="1" fill-rule="nonzero"/><path fill="#000000" d="M 255.820312 66.757812 C 255.5 66.757812 255.246094 66.503906 255.246094 66.183594 C 255.246094 61.882812 253.832031 57.835938 251.164062 54.472656 C 250.96875 54.226562 251.011719 53.867188 251.257812 53.667969 C 251.507812 53.472656 251.867188 53.511719 252.0625 53.761719 C 254.898438 57.328125 256.390625 61.621094 256.390625 66.183594 C 256.390625 66.503906 256.132812 66.757812 255.820312 66.757812 " fill-opacity="1" fill-rule="nonzero"/><path fill="#000000" d="M 236.398438 86.175781 C 225.375 86.175781 216.40625 77.207031 216.40625 66.183594 C 216.40625 55.160156 225.375 46.191406 236.398438 46.191406 C 240.390625 46.191406 244.242188 47.363281 247.542969 49.578125 C 247.804688 49.757812 247.875 50.113281 247.695312 50.378906 C 247.519531 50.640625 247.164062 50.710938 246.902344 50.535156 C 243.792969 48.445312 240.160156 47.339844 236.398438 47.339844 C 226.011719 47.339844 217.554688 55.792969 217.554688 66.183594 C 217.554688 76.574219 226.011719 85.027344 236.398438 85.027344 C 236.71875 85.027344 236.972656 85.285156 236.972656 85.601562 C 236.972656 85.917969 236.71875 86.175781 236.398438 86.175781 " fill-opacity="1" fill-rule="nonzero"/><path fill="#000000" d="M 281.832031 66.757812 C 281.515625 66.757812 281.257812 66.5 281.257812 66.183594 C 281.257812 61.90625 279.859375 57.875 277.21875 54.523438 C 277.023438 54.277344 277.066406 53.914062 277.3125 53.71875 C 277.5625 53.523438 277.925781 53.566406 278.121094 53.8125 C 280.925781 57.371094 282.40625 61.648438 282.40625 66.183594 C 282.40625 66.5 282.148438 66.757812 281.832031 66.757812 " fill-opacity="1" fill-rule="nonzero"/><path fill="#000000" d="M 262.414062 86.175781 C 251.390625 86.175781 242.421875 77.207031 242.421875 66.183594 C 242.421875 55.160156 251.390625 46.191406 262.414062 46.191406 C 266.3125 46.191406 270.09375 47.3125 273.339844 49.4375 C 273.605469 49.609375 273.679688 49.96875 273.503906 50.230469 C 273.332031 50.5 272.976562 50.570312 272.714844 50.398438 C 269.652344 48.394531 266.089844 47.339844 262.414062 47.339844 C 252.023438 47.339844 243.570312 55.792969 243.570312 66.183594 C 243.570312 76.574219 252.023438 85.027344 262.414062 85.027344 C 262.730469 85.027344 262.988281 85.285156 262.988281 85.601562 C 262.988281 85.917969 262.730469 86.175781 262.414062 86.175781 " fill-opacity="1" fill-rule="nonzero"/><path fill="#000000" d="M 307.847656 66.757812 C 307.53125 66.757812 307.273438 66.5 307.273438 66.183594 C 307.273438 61.855469 305.769531 57.628906 303.039062 54.285156 C 302.839844 54.035156 302.878906 53.675781 303.121094 53.476562 C 303.367188 53.273438 303.730469 53.3125 303.929688 53.554688 C 306.824219 57.105469 308.421875 61.59375 308.421875 66.183594 C 308.421875 66.5 308.164062 66.757812 307.847656 66.757812 " fill-opacity="1" fill-rule="nonzero"/><path fill="#000000" d="M 288.429688 86.175781 C 277.40625 86.175781 268.4375 77.207031 268.4375 66.183594 C 268.4375 55.160156 277.40625 46.191406 288.429688 46.191406 C 292.308594 46.191406 296.074219 47.304688 299.316406 49.410156 C 299.582031 49.585938 299.65625 49.941406 299.484375 50.207031 C 299.308594 50.472656 298.953125 50.546875 298.6875 50.375 C 295.636719 48.390625 292.085938 47.339844 288.429688 47.339844 C 278.039062 47.339844 269.585938 55.792969 269.585938 66.183594 C 269.585938 76.574219 278.039062 85.027344 288.429688 85.027344 C 288.746094 85.027344 289.003906 85.285156 289.003906 85.601562 C 289.003906 85.917969 288.746094 86.175781 288.429688 86.175781 " fill-opacity="1" fill-rule="nonzero"/><path fill="#000000" d="M 314.445312 86.175781 C 303.421875 86.175781 294.449219 77.207031 294.449219 66.183594 C 294.449219 55.160156 303.421875 46.191406 314.445312 46.191406 C 325.46875 46.191406 334.433594 55.160156 334.433594 66.183594 C 334.433594 66.5 334.175781 66.757812 333.859375 66.757812 C 333.546875 66.757812 333.289062 66.5 333.289062 66.183594 C 333.289062 55.792969 324.835938 47.339844 314.445312 47.339844 C 304.054688 47.339844 295.597656 55.792969 295.597656 66.183594 C 295.597656 76.574219 304.054688 85.027344 314.445312 85.027344 C 314.761719 85.027344 315.015625 85.285156 315.015625 85.601562 C 315.015625 85.917969 314.761719 86.175781 314.445312 86.175781 " fill-opacity="1" fill-rule="nonzero"/><path fill="#3ca152" d="M 132.714844 89.726562 C 131.550781 89.726562 130.429688 89.234375 129.640625 88.375 C 129.425781 88.136719 129.441406 87.777344 129.671875 87.5625 C 129.90625 87.347656 130.269531 87.363281 130.484375 87.597656 C 131.058594 88.21875 131.871094 88.574219 132.714844 88.574219 C 134.386719 88.574219 135.746094 87.21875 135.746094 85.546875 C 135.746094 83.878906 134.386719 82.519531 132.714844 82.519531 C 131.753906 82.519531 130.839844 82.984375 130.269531 83.761719 C 130.082031 84.019531 129.722656 84.074219 129.46875 83.886719 C 129.210938 83.699219 129.15625 83.339844 129.34375 83.085938 C 130.128906 82.011719 131.386719 81.371094 132.714844 81.371094 C 135.019531 81.371094 136.894531 83.246094 136.894531 85.546875 C 136.894531 87.851562 135.019531 89.726562 132.714844 89.726562 " fill-opacity="1" fill-rule="nonzero"/><path fill="#3ca152" d="M 158.28125 89.726562 C 157.117188 89.726562 155.992188 89.234375 155.203125 88.371094 C 154.988281 88.136719 155.003906 87.777344 155.238281 87.5625 C 155.472656 87.347656 155.835938 87.363281 156.050781 87.597656 C 156.621094 88.21875 157.4375 88.574219 158.28125 88.574219 C 159.953125 88.574219 161.3125 87.21875 161.3125 85.546875 C 161.3125 83.878906 159.953125 82.519531 158.28125 82.519531 C 157.320312 82.519531 156.40625 82.984375 155.835938 83.761719 C 155.648438 84.019531 155.289062 84.074219 155.035156 83.886719 C 154.777344 83.699219 154.722656 83.339844 154.90625 83.085938 C 155.691406 82.011719 156.953125 81.371094 158.28125 81.371094 C 160.585938 81.371094 162.457031 83.246094 162.457031 85.546875 C 162.457031 87.851562 160.585938 89.726562 158.28125 89.726562 " fill-opacity="1" fill-rule="nonzero"/><path fill="#3ca152" d="M 183.847656 89.726562 C 182.679688 89.726562 181.558594 89.234375 180.769531 88.375 C 180.554688 88.136719 180.570312 87.777344 180.804688 87.5625 C 181.035156 87.347656 181.402344 87.363281 181.613281 87.597656 C 182.1875 88.21875 183 88.574219 183.847656 88.574219 C 185.515625 88.574219 186.875 87.21875 186.875 85.546875 C 186.875 83.878906 185.515625 82.519531 183.847656 82.519531 C 182.886719 82.519531 181.96875 82.984375 181.398438 83.761719 C 181.210938 84.019531 180.855469 84.074219 180.597656 83.886719 C 180.34375 83.699219 180.285156 83.339844 180.472656 83.085938 C 181.257812 82.011719 182.519531 81.371094 183.847656 81.371094 C 186.148438 81.371094 188.023438 83.246094 188.023438 85.546875 C 188.023438 87.851562 186.148438 89.726562 183.847656 89.726562 " fill-opacity="1" fill-rule="nonzero"/><path fill="#3ca152" d="M 210.144531 89.726562 C 208.980469 89.726562 207.855469 89.234375 207.066406 88.375 C 206.855469 88.136719 206.867188 87.777344 207.101562 87.5625 C 207.335938 87.347656 207.699219 87.363281 207.914062 87.597656 C 208.484375 88.21875 209.296875 88.574219 210.144531 88.574219 C 211.816406 88.574219 213.171875 87.21875 213.171875 85.546875 C 213.171875 83.878906 211.816406 82.519531 210.144531 82.519531 C 209.183594 82.519531 208.269531 82.984375 207.699219 83.761719 C 207.511719 84.019531 207.152344 84.074219 206.898438 83.886719 C 206.640625 83.699219 206.585938 83.339844 206.773438 83.085938 C 207.554688 82.011719 208.816406 81.371094 210.144531 81.371094 C 212.449219 81.371094 214.324219 83.246094 214.324219 85.546875 C 214.324219 87.851562 212.449219 89.726562 210.144531 89.726562 " fill-opacity="1" fill-rule="nonzero"/><path fill="#3ca152" d="M 235.980469 89.726562 C 234.8125 89.726562 233.691406 89.234375 232.902344 88.375 C 232.6875 88.136719 232.703125 87.777344 232.9375 87.5625 C 233.171875 87.347656 233.535156 87.363281 233.75 87.597656 C 234.320312 88.21875 235.132812 88.574219 235.980469 88.574219 C 237.652344 88.574219 239.007812 87.21875 239.007812 85.546875 C 239.007812 83.878906 237.652344 82.519531 235.980469 82.519531 C 235.019531 82.519531 234.105469 82.984375 233.535156 83.761719 C 233.347656 84.019531 232.984375 84.074219 232.730469 83.886719 C 232.476562 83.699219 232.421875 83.339844 232.605469 83.085938 C 233.390625 82.011719 234.652344 81.371094 235.980469 81.371094 C 238.285156 81.371094 240.15625 83.246094 240.15625 85.546875 C 240.15625 87.851562 238.285156 89.726562 235.980469 89.726562 " fill-opacity="1" fill-rule="nonzero"/><path fill="#3ca152" d="M 263.050781 89.726562 C 261.882812 89.726562 260.761719 89.234375 259.972656 88.375 C 259.757812 88.136719 259.773438 87.777344 260.007812 87.5625 C 260.242188 87.347656 260.605469 87.363281 260.816406 87.597656 C 261.390625 88.21875 262.203125 88.574219 263.050781 88.574219 C 264.71875 88.574219 266.078125 87.21875 266.078125 85.546875 C 266.078125 83.878906 264.71875 82.519531 263.050781 82.519531 C 262.085938 82.519531 261.171875 82.984375 260.605469 83.761719 C 260.417969 84.019531 260.054688 84.074219 259.800781 83.886719 C 259.546875 83.699219 259.488281 83.339844 259.675781 83.085938 C 260.460938 82.011719 261.722656 81.371094 263.050781 81.371094 C 265.355469 81.371094 267.226562 83.246094 267.226562 85.546875 C 267.226562 87.851562 265.355469 89.726562 263.050781 89.726562 " fill-opacity="1" fill-rule="nonzero"/><path fill="#3ca152" d="M 288.613281 89.726562 C 287.449219 89.726562 286.328125 89.234375 285.535156 88.375 C 285.324219 88.136719 285.339844 87.777344 285.570312 87.5625 C 285.804688 87.347656 286.167969 87.363281 286.382812 87.597656 C 286.957031 88.21875 287.769531 88.574219 288.613281 88.574219 C 290.28125 88.574219 291.644531 87.21875 291.644531 85.546875 C 291.644531 83.878906 290.28125 82.519531 288.613281 82.519531 C 287.652344 82.519531 286.738281 82.984375 286.167969 83.761719 C 285.980469 84.019531 285.621094 84.074219 285.367188 83.886719 C 285.113281 83.699219 285.054688 83.339844 285.242188 83.085938 C 286.027344 82.011719 287.285156 81.371094 288.613281 81.371094 C 290.917969 81.371094 292.792969 83.246094 292.792969 85.546875 C 292.792969 87.851562 290.917969 89.726562 288.613281 89.726562 " fill-opacity="1" fill-rule="nonzero"/><path fill="#3ca152" d="M 314.179688 89.722656 C 313.015625 89.722656 311.894531 89.230469 311.105469 88.371094 C 310.890625 88.136719 310.90625 87.773438 311.140625 87.558594 C 311.371094 87.34375 311.734375 87.359375 311.949219 87.59375 C 312.519531 88.21875 313.335938 88.578125 314.179688 88.578125 C 315.851562 88.578125 317.210938 87.21875 317.210938 85.546875 C 317.210938 83.878906 315.851562 82.519531 314.179688 82.519531 C 313.21875 82.519531 312.304688 82.984375 311.734375 83.761719 C 311.546875 84.019531 311.1875 84.074219 310.933594 83.886719 C 310.675781 83.699219 310.621094 83.339844 310.808594 83.085938 C 311.59375 82.011719 312.851562 81.371094 314.179688 81.371094 C 316.484375 81.371094 318.359375 83.246094 318.359375 85.546875 C 318.359375 87.851562 316.484375 89.722656 314.179688 89.722656 " fill-opacity="1" fill-rule="nonzero"/><path fill="#07632e" d="M 203.023438 177.1875 C 202.851562 177.1875 202.679688 177.171875 202.507812 177.136719 C 201.519531 176.953125 200.710938 176.257812 200.378906 175.3125 L 197.441406 167.652344 C 197.0625 166.664062 197.554688 165.558594 198.542969 165.179688 C 199.53125 164.800781 200.636719 165.292969 201.015625 166.28125 L 203.242188 172.09375 L 210.160156 161.050781 C 210.722656 160.152344 211.902344 159.882812 212.800781 160.445312 C 213.695312 161.003906 213.964844 162.1875 213.40625 163.082031 L 205.269531 176.066406 L 205.191406 176.164062 C 204.652344 176.816406 203.855469 177.1875 203.023438 177.1875 " fill-opacity="1" fill-rule="nonzero"/><path fill="#000000" d="M 47.664062 115.628906 C 47.59375 115.628906 47.523438 115.617188 47.457031 115.589844 C 47.160156 115.472656 47.015625 115.140625 47.128906 114.84375 C 55.96875 92.175781 71.191406 72.738281 91.148438 58.636719 C 91.90625 58.097656 92.6875 57.558594 93.464844 57.035156 C 93.726562 56.859375 94.082031 56.925781 94.261719 57.191406 C 94.4375 57.453125 94.371094 57.808594 94.105469 57.988281 C 93.335938 58.507812 92.5625 59.042969 91.808594 59.570312 C 72.035156 73.546875 56.957031 92.800781 48.199219 115.261719 C 48.109375 115.488281 47.894531 115.628906 47.664062 115.628906 " fill-opacity="1" fill-rule="nonzero"/><path fill="#000000" d="M 46.484375 118.78125 C 46.421875 118.78125 46.355469 118.769531 46.292969 118.746094 C 45.992188 118.640625 45.835938 118.3125 45.945312 118.011719 C 46.320312 116.96875 46.71875 115.902344 47.128906 114.84375 C 47.246094 114.550781 47.578125 114.402344 47.875 114.519531 C 48.167969 114.632812 48.316406 114.964844 48.199219 115.261719 C 47.792969 116.308594 47.394531 117.363281 47.023438 118.398438 C 46.941406 118.636719 46.71875 118.78125 46.484375 118.78125 " fill-opacity="1" fill-rule="nonzero"/><path fill="#000000" d="M 39.1875 114.433594 C 39.125 114.433594 39.0625 114.425781 39 114.40625 C 38.699219 114.304688 38.539062 113.976562 38.640625 113.675781 C 43.449219 99.609375 51.246094 86.289062 61.824219 74.078125 C 71.769531 62.597656 84.1875 52.078125 98.730469 42.804688 C 98.996094 42.636719 99.351562 42.714844 99.523438 42.980469 C 99.695312 43.25 99.617188 43.605469 99.347656 43.773438 C 69.5625 62.765625 48.945312 87.066406 39.730469 114.046875 C 39.648438 114.289062 39.425781 114.433594 39.1875 114.433594 " fill-opacity="1" fill-rule="nonzero"/><path fill="#000000" d="M 43.953125 122.164062 L 45.613281 126.023438 L 47.6875 123.242188 Z M 45.480469 127.734375 C 45.457031 127.734375 45.4375 127.734375 45.414062 127.730469 C 45.210938 127.707031 45.035156 127.578125 44.953125 127.386719 L 42.417969 121.503906 C 42.328125 121.300781 42.367188 121.066406 42.511719 120.898438 C 42.660156 120.730469 42.890625 120.664062 43.105469 120.726562 L 48.800781 122.371094 C 48.984375 122.421875 49.125 122.558594 49.1875 122.738281 C 49.246094 122.917969 49.214844 123.113281 49.101562 123.265625 L 45.941406 127.503906 C 45.832031 127.648438 45.660156 127.734375 45.480469 127.734375 " fill-opacity="1" fill-rule="nonzero"/><path fill="#07632e" d="M 60.496094 276.511719 L 59.25 290.777344 C 58.484375 299.507812 55.230469 307.832031 49.871094 314.761719 C 45.394531 320.550781 42.289062 327.175781 40.675781 334.140625 C 39.738281 338.195312 42.832031 342.0625 46.992188 342.0625 L 121.464844 342.0625 L 122.167969 341.917969 L 126.78125 341.726562 C 127.15625 341.726562 127.273438 340.625 127.242188 340.253906 C 126.804688 335.328125 124.183594 305.710938 123.589844 297.824219 C 122.945312 289.214844 127.800781 244.914062 122.761719 233.929688 C 119.085938 225.921875 110.300781 223.59375 104.667969 221.796875 C 100.414062 225.535156 97.03125 228.628906 90.921875 228.628906 C 83.488281 228.628906 77.453125 224.707031 73.023438 219.425781 C 67.765625 220.707031 62.851562 222.78125 59.578125 224.148438 C 51.867188 227.367188 47.035156 235.199219 47.808594 243.519531 C 49.226562 258.722656 60.496094 276.511719 60.496094 276.511719 " fill-opacity="1" fill-rule="nonzero"/><path fill="#ffffff" d="M 135.226562 297.949219 C 135.226562 297.949219 144.882812 295.058594 151.363281 297.246094 C 151.363281 297.246094 152.140625 301.402344 154.886719 303.375 C 157.632812 305.347656 164.539062 306.542969 165.667969 310.5625 C 166.792969 314.578125 152.703125 317.675781 147.839844 315.421875 C 142.976562 313.167969 138.75 307.953125 134.03125 307.953125 C 129.308594 307.953125 135.226562 297.949219 135.226562 297.949219 " fill-opacity="1" fill-rule="nonzero"/><path fill="#000000" d="M 135.605469 298.4375 C 134.105469 301.035156 132.140625 305.460938 132.96875 306.910156 C 133.082031 307.113281 133.316406 307.378906 134.03125 307.378906 C 137.144531 307.378906 139.914062 309.40625 142.84375 311.550781 C 144.535156 312.789062 146.285156 314.070312 148.082031 314.902344 C 151.625 316.542969 161.167969 315.089844 164.292969 312.429688 C 164.992188 311.835938 165.265625 311.257812 165.113281 310.714844 C 164.425781 308.269531 161.179688 306.90625 158.3125 305.703125 C 156.863281 305.09375 155.496094 304.519531 154.550781 303.839844 C 152.089844 302.074219 151.128906 298.765625 150.875 297.6875 C 145.167969 295.941406 137.027344 298.042969 135.605469 298.4375 Z M 152.480469 316.753906 C 150.539062 316.753906 148.800781 316.5 147.597656 315.945312 C 145.699219 315.0625 143.902344 313.746094 142.164062 312.480469 C 139.390625 310.445312 136.769531 308.527344 134.03125 308.527344 C 132.820312 308.527344 132.242188 307.957031 131.96875 307.480469 C 130.515625 304.929688 134.296875 298.394531 134.734375 297.65625 C 134.808594 297.53125 134.925781 297.441406 135.0625 297.398438 C 135.464844 297.277344 144.96875 294.484375 151.546875 296.699219 C 151.742188 296.765625 151.890625 296.933594 151.925781 297.136719 C 151.9375 297.179688 152.699219 301.097656 155.222656 302.90625 C 156.058594 303.507812 157.371094 304.0625 158.757812 304.644531 C 161.863281 305.945312 165.382812 307.425781 166.21875 310.40625 C 166.414062 311.101562 166.367188 312.167969 165.035156 313.304688 C 162.585938 315.390625 156.988281 316.753906 152.480469 316.753906 " fill-opacity="1" fill-rule="nonzero"/><path fill="#07632e" d="M 72.859375 242.445312 L 82.625 268.527344 C 84.644531 273.917969 88.890625 278.175781 94.277344 280.210938 L 135.992188 295.953125 L 134.257812 310.632812 C 134.257812 310.632812 78.820312 302.59375 69.542969 295.003906 C 60.863281 287.902344 51.078125 256.652344 51.078125 256.652344 L 72.859375 242.445312 " fill-opacity="1" fill-rule="nonzero"/><path fill="#3ca152" d="M 121.769531 309.9375 C 121.730469 309.9375 121.691406 309.933594 121.652344 309.925781 C 120.199219 309.621094 118.683594 309.308594 117.125 308.988281 C 99.40625 305.332031 75.140625 300.324219 69.179688 295.449219 C 67.234375 293.859375 64.734375 290.75 62.3125 286.925781 C 62.144531 286.660156 62.222656 286.304688 62.492188 286.132812 C 62.757812 285.964844 63.113281 286.046875 63.28125 286.3125 C 65.640625 290.039062 68.054688 293.042969 69.90625 294.558594 C 75.648438 299.257812 99.753906 304.230469 117.355469 307.863281 C 118.917969 308.1875 120.433594 308.5 121.882812 308.800781 C 122.195312 308.863281 122.394531 309.167969 122.328125 309.480469 C 122.273438 309.75 122.035156 309.9375 121.769531 309.9375 " fill-opacity="1" fill-rule="nonzero"/><path fill="#3ca152" d="M 120.789062 290.0625 C 120.726562 290.0625 120.664062 290.050781 120.597656 290.027344 L 94.089844 280.753906 C 88.535156 278.65625 84.164062 274.277344 82.085938 268.726562 L 72.320312 242.648438 C 72.210938 242.351562 72.359375 242.019531 72.65625 241.910156 C 72.957031 241.796875 73.285156 241.945312 73.394531 242.242188 L 83.160156 268.324219 C 85.121094 273.5625 89.25 277.699219 94.480469 279.671875 L 120.976562 288.945312 C 121.277344 289.050781 121.4375 289.378906 121.332031 289.675781 C 121.25 289.914062 121.027344 290.0625 120.789062 290.0625 " fill-opacity="1" fill-rule="nonzero"/><path fill="#3ca152" d="M 121.34375 338.941406 C 121.089844 338.941406 120.859375 338.773438 120.789062 338.515625 L 120.746094 338.339844 C 117.84375 327.304688 115.101562 316.886719 113.789062 308.15625 C 113.742188 307.839844 113.960938 307.546875 114.273438 307.5 C 114.585938 307.453125 114.878906 307.671875 114.925781 307.984375 C 116.230469 316.652344 118.960938 327.046875 121.855469 338.046875 L 121.902344 338.222656 C 121.980469 338.53125 121.796875 338.84375 121.492188 338.925781 C 121.441406 338.9375 121.394531 338.941406 121.34375 338.941406 " fill-opacity="1" fill-rule="nonzero"/><path fill="#3ca152" d="M 111.867188 286.636719 C 111.566406 286.636719 111.3125 286.402344 111.296875 286.097656 C 110.230469 268.320312 112.1875 260.058594 112.273438 259.714844 C 112.347656 259.410156 112.65625 259.21875 112.964844 259.296875 C 113.273438 259.371094 113.460938 259.679688 113.386719 259.988281 C 113.367188 260.070312 111.390625 268.453125 112.441406 286.03125 C 112.460938 286.347656 112.21875 286.617188 111.902344 286.636719 C 111.890625 286.636719 111.878906 286.636719 111.867188 286.636719 " fill-opacity="1" fill-rule="nonzero"/><path fill="#3ca152" d="M 93.230469 260.253906 C 93.089844 260.253906 92.945312 260.199219 92.832031 260.09375 C 92.605469 259.875 92.597656 259.511719 92.820312 259.28125 C 94.859375 257.171875 95.980469 254.390625 95.980469 251.453125 C 95.980469 249.484375 95.464844 247.542969 94.488281 245.84375 C 94.328125 245.570312 94.421875 245.21875 94.699219 245.058594 C 94.972656 244.902344 95.324219 244.996094 95.480469 245.273438 C 96.558594 247.144531 97.128906 249.28125 97.128906 251.453125 C 97.128906 254.6875 95.890625 257.753906 93.644531 260.078125 C 93.53125 260.195312 93.382812 260.253906 93.230469 260.253906 " fill-opacity="1" fill-rule="nonzero"/><path fill="#3ca152" d="M 112.953125 260.292969 C 112.808594 260.292969 112.667969 260.238281 112.554688 260.132812 C 112.328125 259.910156 112.320312 259.546875 112.539062 259.320312 C 115.132812 256.632812 116.5625 253.09375 116.5625 249.359375 C 116.5625 246.847656 115.90625 244.378906 114.664062 242.21875 C 114.503906 241.941406 114.597656 241.589844 114.875 241.433594 C 115.148438 241.273438 115.5 241.371094 115.65625 241.644531 C 117 243.980469 117.710938 246.648438 117.710938 249.359375 C 117.710938 253.394531 116.167969 257.214844 113.367188 260.117188 C 113.253906 260.234375 113.105469 260.292969 112.953125 260.292969 " fill-opacity="1" fill-rule="nonzero"/><path fill="#ffffff" d="M 109.132812 188.394531 C 109.050781 187.472656 104.617188 185.550781 103.613281 184.378906 C 102.609375 183.210938 102.777344 181.453125 102.191406 179.863281 C 101.609375 178.273438 99.40625 176.339844 99.40625 176.339844 C 87.105469 161.472656 73.242188 177.90625 73.242188 177.90625 C 70.308594 182.003906 71.359375 188.03125 72.820312 191.453125 C 75.648438 198.082031 83.417969 202.746094 83.417969 202.746094 C 83.5 203.082031 83.570312 203.414062 83.628906 203.738281 C 84.734375 209.964844 79.714844 218.730469 73.566406 220.21875 C 73.507812 220.230469 73.457031 220.246094 73.398438 220.261719 C 77.382812 225.007812 83.351562 228.03125 90.035156 228.03125 C 95.527344 228.03125 100.527344 225.976562 104.347656 222.617188 C 102.46875 222.015625 100.710938 221.382812 99.25 220.398438 C 93.867188 216.769531 97.675781 205.117188 99.015625 204.03125 C 100.351562 202.941406 106.628906 204.800781 108 203.019531 C 110.019531 200.394531 107.042969 192.574219 107.042969 191.820312 C 107.042969 191.464844 107.535156 190.878906 108.039062 190.269531 C 108.597656 189.589844 109.175781 188.875 109.132812 188.394531 " fill-opacity="1" fill-rule="nonzero"/><path fill="#000000" d="M 108.574219 188.5 Z M 74.429688 220.566406 C 78.4375 224.957031 84.074219 227.457031 90.035156 227.457031 C 94.816406 227.457031 99.445312 225.824219 103.1875 222.839844 C 101.753906 222.351562 100.226562 221.746094 98.929688 220.875 C 97.082031 219.628906 96.03125 217.363281 95.898438 214.328125 C 95.6875 209.667969 97.613281 204.429688 98.652344 203.582031 C 99.417969 202.960938 101.015625 203.0625 102.867188 203.171875 C 104.691406 203.285156 106.964844 203.421875 107.542969 202.671875 C 108.949219 200.84375 107.464844 195.585938 106.828125 193.34375 C 106.574219 192.433594 106.46875 192.054688 106.46875 191.820312 C 106.46875 191.292969 106.878906 190.769531 107.554688 189.953125 L 107.597656 189.902344 C 107.878906 189.558594 108.527344 188.773438 108.558594 188.476562 C 108.34375 188.113281 106.960938 187.292969 106.039062 186.742188 C 104.832031 186.027344 103.691406 185.347656 103.179688 184.753906 C 102.457031 183.910156 102.261719 182.839844 102.074219 181.808594 C 101.96875 181.226562 101.859375 180.621094 101.65625 180.0625 C 101.125 178.628906 99.046875 176.785156 99.027344 176.769531 C 99.003906 176.746094 98.984375 176.726562 98.964844 176.703125 C 95.675781 172.730469 91.984375 170.707031 87.984375 170.6875 C 87.964844 170.6875 87.945312 170.6875 87.925781 170.6875 C 80.34375 170.6875 74.035156 177.871094 73.695312 178.261719 C 70.792969 182.335938 72.113281 188.328125 73.347656 191.230469 C 76.070312 197.609375 83.636719 202.207031 83.714844 202.253906 C 83.847656 202.332031 83.941406 202.460938 83.976562 202.613281 C 84.058594 202.949219 84.128906 203.292969 84.191406 203.636719 C 85.355469 210.175781 80.417969 218.570312 74.429688 220.566406 Z M 90.035156 228.605469 C 83.4375 228.605469 77.210938 225.699219 72.957031 220.628906 C 72.832031 220.476562 72.792969 220.269531 72.851562 220.082031 C 72.914062 219.894531 73.070312 219.75 73.261719 219.703125 L 73.433594 219.660156 C 79.117188 218.285156 84.15625 210.003906 83.0625 203.835938 C 83.019531 203.59375 82.96875 203.351562 82.914062 203.109375 C 81.617188 202.296875 74.933594 197.867188 72.292969 191.679688 C 70.957031 188.550781 69.558594 182.0625 72.777344 177.570312 C 72.785156 177.558594 72.796875 177.546875 72.804688 177.535156 C 73.082031 177.207031 79.644531 169.539062 87.925781 169.539062 C 87.949219 169.539062 87.96875 169.539062 87.988281 169.539062 C 92.332031 169.558594 96.3125 171.714844 99.820312 175.9375 C 100.121094 176.207031 102.136719 178.054688 102.730469 179.664062 C 102.972656 180.316406 103.089844 180.972656 103.203125 181.605469 C 103.378906 182.566406 103.53125 183.398438 104.050781 184.007812 C 104.4375 184.460938 105.597656 185.148438 106.625 185.753906 C 108.601562 186.929688 109.636719 187.578125 109.703125 188.339844 C 109.765625 189.019531 109.238281 189.71875 108.480469 190.632812 L 108.441406 190.683594 C 108.125 191.0625 107.652344 191.636719 107.617188 191.839844 C 107.628906 191.945312 107.785156 192.496094 107.933594 193.03125 C 108.730469 195.847656 110.210938 201.089844 108.453125 203.371094 C 107.503906 204.605469 105.113281 204.460938 102.796875 204.320312 C 101.460938 204.238281 99.792969 204.136719 99.378906 204.476562 C 98.730469 205 96.84375 209.8125 97.042969 214.273438 C 97.164062 216.972656 98.015625 218.871094 99.574219 219.921875 C 100.898438 220.816406 102.507812 221.425781 104.523438 222.070312 C 104.722656 222.132812 104.867188 222.296875 104.910156 222.5 C 104.953125 222.703125 104.882812 222.910156 104.726562 223.046875 C 100.652344 226.632812 95.433594 228.605469 90.035156 228.605469 " fill-opacity="1" fill-rule="nonzero"/><path fill="#000000" d="M 33.570312 181.449219 C 33.570312 170.570312 33.714844 160.804688 42.953125 156.472656 C 46.449219 154.832031 51.695312 152.179688 55.8125 152.179688 C 70.808594 152.179688 82.96875 164.335938 82.96875 179.332031 C 82.96875 194.332031 70.808594 206.488281 55.8125 206.488281 C 48.851562 206.488281 44.757812 202.457031 39.953125 198.148438 C 34.40625 193.179688 33.570312 189.484375 33.570312 181.449219 " fill-opacity="1" fill-rule="nonzero"/><path fill="#000000" d="M 100.777344 174.636719 C 89.492188 162.285156 79.09375 169.910156 74.839844 174.160156 C 73.105469 175.894531 71.753906 177.992188 71.066406 180.34375 C 69.722656 184.960938 71.007812 189 72.210938 191.824219 C 74.5625 197.335938 80.175781 201.554688 82.402344 203.070312 C 82.949219 203.441406 83.679688 203.382812 84.171875 202.9375 C 85.476562 201.746094 86.570312 200.609375 87.492188 199.527344 C 87.929688 199.011719 87.800781 198.234375 87.21875 197.890625 C 87.058594 197.796875 86.902344 197.695312 86.75 197.582031 C 84.707031 196.066406 84.125 193.386719 85.449219 191.597656 C 86.777344 189.808594 89.507812 189.585938 91.554688 191.101562 C 91.695312 191.207031 91.828125 191.316406 91.957031 191.433594 C 92.976562 187.707031 92.621094 184.644531 94.015625 181.78125 C 95.992188 177.71875 99.550781 177.121094 101.261719 177.078125 C 101.980469 176.21875 100.777344 174.636719 100.777344 174.636719 " fill-opacity="1" fill-rule="nonzero"/><path fill="#ffffff" d="M 167.90625 298.65625 C 167.90625 298.65625 154.113281 294.347656 152.773438 294.5625 C 151.433594 294.773438 149.742188 297.167969 146.359375 298.859375 C 142.976562 300.550781 140.441406 301.535156 141.144531 303.015625 C 141.773438 304.332031 147.96875 304.144531 152.402344 302.453125 C 153.296875 302.109375 154.316406 302.394531 154.921875 303.132812 C 156.40625 304.941406 163.230469 308.390625 169.414062 308.582031 L 167.90625 298.65625 " fill-opacity="1" fill-rule="nonzero"/><path fill="#000000" d="M 153.1875 301.734375 C 154.011719 301.734375 154.816406 302.101562 155.367188 302.769531 C 156.730469 304.429688 163.027344 307.566406 168.742188 307.972656 L 167.394531 299.097656 C 160.921875 297.085938 153.714844 295.023438 152.859375 295.128906 C 152.382812 295.203125 151.675781 295.789062 150.859375 296.464844 C 149.789062 297.351562 148.457031 298.453125 146.617188 299.371094 C 146.203125 299.582031 145.800781 299.777344 145.414062 299.96875 C 142.855469 301.21875 141.308594 302.023438 141.664062 302.769531 C 142.035156 303.492188 147.484375 303.710938 152.199219 301.917969 C 152.519531 301.792969 152.855469 301.734375 153.1875 301.734375 Z M 169.414062 309.15625 C 169.410156 309.15625 169.402344 309.15625 169.394531 309.15625 C 162.960938 308.953125 155.980469 305.328125 154.480469 303.5 C 154.023438 302.941406 153.269531 302.738281 152.609375 302.988281 C 148.652344 304.496094 141.566406 305.234375 140.628906 303.261719 C 139.765625 301.453125 141.921875 300.394531 144.90625 298.933594 C 145.289062 298.75 145.691406 298.550781 146.105469 298.34375 C 147.824219 297.484375 149.101562 296.429688 150.125 295.582031 C 151.152344 294.734375 151.890625 294.117188 152.683594 293.996094 C 154.054688 293.785156 164.8125 297.089844 168.078125 298.109375 C 168.285156 298.175781 168.441406 298.351562 168.472656 298.570312 L 169.984375 308.496094 C 170.007812 308.664062 169.957031 308.835938 169.84375 308.964844 C 169.734375 309.085938 169.578125 309.15625 169.414062 309.15625 " fill-opacity="1" fill-rule="nonzero"/><path fill="#000000" d="M 318.285156 233.382812 C 307.632812 217.71875 273.074219 210.800781 273.042969 210.789062 C 270.445312 212.53125 254.296875 213.632812 251.238281 212.203125 C 250.9375 212.375 222.570312 220.679688 214.089844 232.148438 C 206.5625 242.328125 208.464844 276.109375 201.1875 282.382812 C 194.359375 288.269531 167.578125 297.160156 167.578125 297.160156 L 169.527344 311.253906 C 169.527344 311.253906 208.441406 307.542969 211.167969 307 C 213.890625 306.453125 223.699219 304.273438 225.878906 295.921875 C 226.503906 293.519531 227.417969 288.609375 228.398438 282.835938 L 234.726562 328.082031 L 235.226562 337.128906 C 235.3125 338.671875 236.363281 339.996094 237.851562 340.40625 C 248.058594 343.21875 264.746094 343.027344 276.441406 341.863281 C 280.0625 341.503906 283.59375 340.542969 286.902344 339.035156 L 292.796875 336.355469 C 294.121094 335.757812 295.011719 334.480469 295.121094 333.035156 L 300.539062 262.269531 C 300.539062 262.269531 301.773438 265.488281 303.570312 270.386719 C 310.796875 290.152344 322.242188 239.199219 318.285156 233.382812 " fill-opacity="1" fill-rule="nonzero"/><path fill="#3ca152" d="M 228.851562 287.902344 C 228.558594 287.902344 228.308594 287.679688 228.28125 287.378906 C 227.550781 278.945312 226.050781 271.507812 224.3125 262.894531 C 223.808594 260.394531 223.285156 257.8125 222.757812 255.0625 C 222.695312 254.75 222.898438 254.449219 223.210938 254.386719 C 223.523438 254.328125 223.824219 254.53125 223.882812 254.84375 C 224.414062 257.589844 224.933594 260.171875 225.4375 262.667969 C 227.183594 271.316406 228.691406 278.78125 229.425781 287.28125 C 229.453125 287.597656 229.21875 287.875 228.902344 287.902344 C 228.886719 287.902344 228.871094 287.902344 228.851562 287.902344 " fill-opacity="1" fill-rule="nonzero"/><path fill="#3ca152" d="M 258.066406 272.851562 C 257.832031 272.851562 257.613281 272.707031 257.527344 272.476562 L 250.9375 254.523438 C 250.828125 254.226562 250.980469 253.894531 251.277344 253.785156 C 251.574219 253.675781 251.902344 253.828125 252.015625 254.125 L 258.605469 272.082031 C 258.714844 272.378906 258.558594 272.707031 258.261719 272.816406 C 258.195312 272.839844 258.132812 272.851562 258.066406 272.851562 " fill-opacity="1" fill-rule="nonzero"/><path fill="#000000" d="M 246.605469 177.644531 L 246.609375 177.644531 Z M 246.269531 172.65625 C 245.945312 172.65625 245.515625 172.847656 245.054688 173.210938 C 244.3125 173.792969 243.59375 174.726562 243.03125 175.828125 C 242.472656 176.929688 242.144531 178.058594 242.109375 179.003906 C 242.082031 179.773438 242.261719 180.332031 242.585938 180.496094 C 243.226562 180.820312 244.867188 179.792969 246.09375 177.382812 C 246.65625 176.28125 246.980469 175.152344 247.015625 174.207031 C 247.042969 173.4375 246.867188 172.878906 246.539062 172.714844 C 246.460938 172.671875 246.371094 172.65625 246.269531 172.65625 Z M 242.851562 181.703125 C 242.574219 181.703125 242.308594 181.644531 242.066406 181.519531 C 241.308594 181.132812 240.917969 180.226562 240.964844 178.964844 C 241.003906 177.855469 241.375 176.554688 242.011719 175.304688 C 242.644531 174.058594 243.472656 172.992188 244.347656 172.304688 C 245.339844 171.527344 246.304688 171.304688 247.0625 171.691406 C 247.816406 172.074219 248.210938 172.984375 248.164062 174.246094 C 248.125 175.355469 247.753906 176.652344 247.117188 177.90625 C 245.933594 180.234375 244.230469 181.703125 242.851562 181.703125 " fill-opacity="1" fill-rule="nonzero"/><path fill="#ffffff" d="M 260.675781 218.351562 C 263.84375 218.351562 266.886719 217.839844 269.738281 216.910156 C 272.316406 216.070312 274.742188 214.894531 276.957031 213.414062 C 267.335938 210.039062 270.722656 195.394531 270.722656 195.394531 C 277.988281 179.394531 272.339844 169.203125 263.757812 167.082031 C 251.570312 164.070312 250.027344 171.148438 250.027344 171.148438 C 249.105469 173.050781 246.949219 177.480469 246.117188 177.992188 C 245.09375 178.617188 242.652344 179.242188 242.253906 179.753906 C 241.855469 180.265625 242.085938 181.910156 243.617188 183.332031 C 243.617188 183.332031 239.183594 192.59375 240.664062 195.378906 C 242.140625 198.164062 252.652344 200.492188 252.652344 200.492188 C 252.652344 200.492188 255.125 211.742188 248.289062 215.597656 C 250.886719 216.808594 253.6875 217.660156 256.632812 218.066406 C 257.953125 218.25 259.304688 218.351562 260.675781 218.351562 " fill-opacity="1" fill-rule="nonzero"/><path fill="#000000" d="M 249.488281 215.503906 C 251.808594 216.484375 254.230469 217.15625 256.710938 217.496094 C 258.050781 217.683594 259.382812 217.777344 260.675781 217.777344 C 263.6875 217.777344 266.675781 217.300781 269.5625 216.363281 C 271.734375 215.65625 273.804688 214.703125 275.71875 213.523438 C 267.015625 209.367188 270.132812 195.414062 270.164062 195.265625 C 270.171875 195.230469 270.1875 195.195312 270.203125 195.160156 C 273.871094 187.074219 274.476562 179.703125 271.90625 174.394531 C 270.234375 170.945312 267.289062 168.542969 263.621094 167.636719 C 259.082031 166.515625 255.429688 166.703125 253.058594 168.179688 C 251.003906 169.460938 250.59375 171.253906 250.589844 171.269531 C 250.578125 171.316406 250.5625 171.359375 250.542969 171.402344 C 248.277344 176.066406 247.125 178.050781 246.417969 178.480469 C 245.914062 178.789062 245.140625 179.082031 244.398438 179.359375 C 243.789062 179.589844 242.871094 179.933594 242.703125 180.109375 C 242.550781 180.332031 242.648438 181.652344 244.007812 182.910156 C 244.191406 183.082031 244.246094 183.351562 244.136719 183.578125 C 242.9375 186.085938 240.070312 193.035156 241.171875 195.109375 C 242.28125 197.203125 249.921875 199.300781 252.777344 199.929688 C 252.996094 199.980469 253.164062 200.152344 253.214844 200.367188 C 253.3125 200.824219 255.484375 211.074219 249.488281 215.503906 Z M 260.675781 218.925781 C 259.332031 218.925781 257.949219 218.828125 256.554688 218.636719 C 253.617188 218.230469 250.753906 217.382812 248.050781 216.117188 C 247.855469 216.023438 247.726562 215.835938 247.71875 215.617188 C 247.707031 215.402344 247.820312 215.203125 248.007812 215.097656 C 253.734375 211.867188 252.492188 202.867188 252.160156 200.96875 C 250.058594 200.480469 241.597656 198.367188 240.15625 195.648438 C 238.710938 192.929688 242.027344 185.394531 242.925781 183.453125 C 241.527344 181.976562 241.195312 180.179688 241.800781 179.398438 C 242.105469 179.007812 242.796875 178.734375 243.996094 178.285156 C 244.6875 178.023438 245.40625 177.753906 245.820312 177.5 C 246.140625 177.296875 247.035156 175.996094 249.484375 170.949219 C 249.59375 170.542969 250.210938 168.601562 252.453125 167.207031 C 255.132812 165.539062 258.980469 165.308594 263.894531 166.523438 C 267.90625 167.515625 271.117188 170.132812 272.941406 173.898438 C 275.65625 179.503906 275.0625 187.199219 271.273438 195.578125 C 271.066406 196.527344 268.40625 209.804688 277.144531 212.871094 C 277.347656 212.945312 277.496094 213.125 277.523438 213.339844 C 277.550781 213.554688 277.453125 213.769531 277.273438 213.890625 C 275.019531 215.398438 272.542969 216.597656 269.914062 217.453125 C 266.917969 218.429688 263.808594 218.925781 260.675781 218.925781 " fill-opacity="1" fill-rule="nonzero"/><path fill="#000000" d="M 270.589844 162.707031 C 267.527344 161.824219 263.9375 162.003906 262.464844 161.355469 C 260.089844 160.3125 260.390625 157.5 256.964844 156.925781 C 253.953125 156.417969 251.085938 156.738281 249.351562 158.929688 C 249.066406 159.296875 248.804688 159.710938 248.582031 160.183594 C 245.625 166.542969 248.652344 169.996094 250.027344 171.148438 C 250.027344 171.148438 258.890625 176.390625 260.378906 177.804688 C 261.765625 179.128906 263.28125 182.125 261.964844 186.15625 C 261.796875 186.667969 261.984375 187.230469 262.429688 187.535156 L 262.453125 187.546875 C 262.984375 187.914062 263.707031 187.816406 264.117188 187.320312 C 265.40625 185.765625 268.199219 182.777344 270 183.679688 C 272.195312 184.773438 272.390625 190.769531 267.667969 191.375 C 266.808594 191.484375 266.308594 192.382812 266.65625 193.175781 C 267.199219 194.417969 268.34375 195.785156 270.722656 195.398438 C 270.722656 195.398438 281.285156 189.164062 283.269531 179.914062 C 285.257812 170.671875 274.664062 163.886719 270.589844 162.707031 " fill-opacity="1" fill-rule="nonzero"/><path fill="#000000" d="M 252.582031 175.101562 C 251.425781 175.101562 249.953125 176.273438 249.066406 178.023438 C 247.992188 180.132812 248.097656 182.429688 249.292969 183.035156 C 249.832031 183.308594 250.550781 183.207031 251.308594 182.746094 C 252.152344 182.226562 252.921875 181.347656 253.472656 180.265625 C 254.023438 179.183594 254.28125 178.042969 254.199219 177.054688 C 254.125 176.167969 253.789062 175.527344 253.246094 175.253906 C 253.042969 175.148438 252.820312 175.101562 252.582031 175.101562 Z M 249.949219 184.335938 C 249.53125 184.335938 249.136719 184.246094 248.769531 184.058594 C 246.960938 183.136719 246.640625 180.257812 248.042969 177.503906 C 249.441406 174.746094 251.957031 173.308594 253.765625 174.230469 C 254.675781 174.691406 255.238281 175.664062 255.34375 176.960938 C 255.441406 178.15625 255.140625 179.515625 254.496094 180.785156 C 253.851562 182.054688 252.929688 183.097656 251.90625 183.722656 C 251.238281 184.128906 250.574219 184.335938 249.949219 184.335938 " fill-opacity="1" fill-rule="nonzero"/><path fill="#000000" d="M 248.648438 177.96875 C 248.429688 177.96875 248.21875 177.84375 248.125 177.632812 C 248.113281 177.613281 247.765625 176.898438 247.210938 176.914062 C 246.894531 176.9375 246.625 176.679688 246.613281 176.363281 C 246.597656 176.046875 246.84375 175.777344 247.160156 175.765625 C 248.238281 175.726562 248.929688 176.621094 249.171875 177.160156 C 249.300781 177.449219 249.171875 177.789062 248.882812 177.921875 C 248.804688 177.953125 248.726562 177.96875 248.648438 177.96875 " fill-opacity="1" fill-rule="nonzero"/><path fill="#000000" d="M 264.992188 183.757812 C 264.910156 183.757812 264.828125 183.738281 264.75 183.703125 L 254.511719 178.984375 C 254.222656 178.851562 254.097656 178.507812 254.230469 178.222656 C 254.363281 177.933594 254.703125 177.808594 254.992188 177.941406 L 265.230469 182.660156 C 265.519531 182.792969 265.644531 183.136719 265.511719 183.421875 C 265.414062 183.632812 265.207031 183.757812 264.992188 183.757812 " fill-opacity="1" fill-rule="nonzero"/><path fill="#ffffff" d="M 266.5625 298.4375 L 298.324219 261.195312 C 299.132812 260.246094 300.558594 260.132812 301.507812 260.941406 L 350.195312 302.46875 C 351.144531 303.277344 351.257812 304.699219 350.449219 305.652344 L 318.683594 342.894531 C 317.875 343.839844 316.449219 343.953125 315.5 343.148438 L 266.8125 301.617188 C 265.863281 300.8125 265.75 299.386719 266.5625 298.4375 " fill-opacity="1" fill-rule="nonzero"/><path fill="#000000" d="M 266.5625 298.4375 L 266.566406 298.4375 Z M 300.046875 260.976562 C 300.003906 260.976562 299.957031 260.976562 299.910156 260.980469 C 299.460938 261.015625 299.054688 261.222656 298.765625 261.566406 L 267 298.808594 C 266.707031 299.152344 266.566406 299.585938 266.601562 300.035156 C 266.636719 300.480469 266.84375 300.890625 267.183594 301.183594 L 315.875 342.707031 C 316.21875 343 316.648438 343.136719 317.097656 343.105469 C 317.546875 343.070312 317.957031 342.863281 318.246094 342.519531 L 350.015625 305.277344 C 350.613281 304.570312 350.53125 303.507812 349.824219 302.90625 L 301.136719 261.378906 C 300.828125 261.117188 300.445312 260.976562 300.046875 260.976562 Z M 316.960938 344.257812 C 316.289062 344.257812 315.644531 344.023438 315.128906 343.582031 L 266.4375 302.054688 C 265.867188 301.566406 265.515625 300.878906 265.453125 300.125 C 265.398438 299.371094 265.636719 298.640625 266.125 298.066406 L 297.890625 260.820312 C 298.378906 260.246094 299.066406 259.894531 299.820312 259.835938 C 300.574219 259.773438 301.308594 260.011719 301.878906 260.503906 L 350.570312 302.03125 C 351.757812 303.042969 351.898438 304.835938 350.886719 306.023438 L 319.121094 343.265625 C 318.628906 343.839844 317.945312 344.191406 317.191406 344.25 C 317.113281 344.257812 317.039062 344.257812 316.960938 344.257812 " fill-opacity="1" fill-rule="nonzero"/><path fill="#3ca152" d="M 317.878906 336.480469 L 343.988281 305.867188 L 297.898438 266.558594 L 271.789062 297.167969 L 317.878906 336.480469 " fill-opacity="1" fill-rule="nonzero"/><path fill="#ffffff" d="M 273.222656 286.425781 L 287.519531 269.667969 C 288.507812 268.507812 290.246094 268.367188 291.40625 269.355469 L 295.242188 272.628906 L 277.367188 293.589844 L 273.53125 290.316406 C 272.371094 289.328125 272.234375 287.585938 273.222656 286.425781 " fill-opacity="1" fill-rule="nonzero"/><path fill="#ffffff" d="M 275.695312 275.597656 C 275.203125 275.179688 275.148438 274.441406 275.566406 273.949219 C 275.988281 273.457031 276.726562 273.398438 277.214844 273.820312 C 277.707031 274.238281 277.765625 274.976562 277.34375 275.464844 C 276.925781 275.957031 276.1875 276.015625 275.695312 275.597656 Z M 274.097656 280.476562 L 278.601562 284.320312 L 286.285156 275.308594 L 281.78125 271.46875 C 279.292969 269.347656 275.558594 269.644531 273.433594 272.132812 C 271.3125 274.617188 271.609375 278.355469 274.097656 280.476562 " fill-opacity="1" fill-rule="nonzero"/><path fill="#ffffff" d="M 283.089844 301.808594 L 304.261719 276.984375 L 302.203125 275.230469 L 281.035156 300.050781 L 283.089844 301.808594 " fill-opacity="1" fill-rule="nonzero"/><path fill="#ffffff" d="M 287.308594 305.40625 L 308.480469 280.585938 L 306.421875 278.832031 L 285.25 303.652344 L 287.308594 305.40625 " fill-opacity="1" fill-rule="nonzero"/><path fill="#ffffff" d="M 291.53125 309.003906 L 312.699219 284.183594 L 310.640625 282.429688 L 289.472656 307.25 L 291.53125 309.003906 " fill-opacity="1" fill-rule="nonzero"/><path fill="#ffffff" d="M 312.058594 329.703125 C 312.058594 329.703125 300.429688 342.8125 293.097656 340.972656 C 285.773438 339.136719 287.402344 333.847656 287.402344 333.847656 L 298.660156 327.839844 C 298.660156 327.839844 288.261719 329.28125 289.429688 325.738281 C 290.027344 323.917969 290.925781 324.011719 293.285156 323.972656 C 299.402344 323.878906 310.742188 323.25 310.742188 323.25 L 312.058594 329.703125 " fill-opacity="1" fill-rule="nonzero"/><path fill="#000000" d="M 287.902344 334.230469 C 287.808594 334.734375 287.664062 336.046875 288.410156 337.351562 C 289.226562 338.785156 290.851562 339.816406 293.242188 340.417969 C 299.648438 342.027344 309.910156 331.191406 311.4375 329.53125 L 310.277344 323.851562 C 308.023438 323.972656 298.625 324.464844 293.296875 324.550781 L 292.917969 324.554688 C 290.769531 324.582031 290.402344 324.625 289.976562 325.917969 C 289.839844 326.324219 289.949219 326.527344 290.054688 326.65625 C 291.035156 327.828125 295.808594 327.65625 298.582031 327.273438 C 298.859375 327.234375 299.121094 327.398438 299.210938 327.664062 C 299.296875 327.929688 299.179688 328.214844 298.929688 328.347656 Z M 294.582031 341.722656 C 294.023438 341.722656 293.484375 341.664062 292.960938 341.53125 C 290.246094 340.851562 288.375 339.625 287.398438 337.898438 C 286.21875 335.804688 286.828125 333.761719 286.855469 333.675781 C 286.898438 333.53125 286.996094 333.410156 287.132812 333.339844 L 295.886719 328.671875 C 293.464844 328.792969 290.25 328.679688 289.175781 327.390625 C 288.882812 327.039062 288.59375 326.4375 288.886719 325.558594 C 289.578125 323.449219 290.832031 323.433594 292.902344 323.40625 L 293.277344 323.398438 C 299.3125 323.304688 310.601562 322.683594 310.710938 322.675781 C 311 322.664062 311.246094 322.855469 311.304688 323.136719 L 312.621094 329.585938 C 312.65625 329.761719 312.605469 329.949219 312.488281 330.082031 C 312.035156 330.589844 302.070312 341.722656 294.582031 341.722656 " fill-opacity="1" fill-rule="nonzero"/><path fill="#ffffff" d="M 299.648438 335.929688 C 299.648438 335.929688 296.992188 338.160156 291.304688 340.390625 L 299.648438 335.929688 " fill-opacity="1" fill-rule="nonzero"/><path fill="#000000" d="M 291.308594 340.960938 C 291.078125 340.960938 290.859375 340.824219 290.773438 340.597656 C 290.65625 340.300781 290.800781 339.96875 291.097656 339.855469 C 296.609375 337.691406 299.253906 335.511719 299.28125 335.488281 C 299.523438 335.285156 299.882812 335.320312 300.089844 335.558594 C 300.292969 335.804688 300.257812 336.164062 300.019531 336.371094 C 299.910156 336.464844 297.226562 338.6875 291.515625 340.925781 C 291.449219 340.949219 291.378906 340.960938 291.308594 340.960938 " fill-opacity="1" fill-rule="nonzero"/><path fill="#ffffff" d="M 297.679688 333.4375 C 297.679688 333.4375 294.191406 335.757812 288.253906 338.160156 L 297.679688 333.4375 " fill-opacity="1" fill-rule="nonzero"/><path fill="#000000" d="M 288.253906 338.734375 C 288.027344 338.734375 287.8125 338.597656 287.71875 338.375 C 287.605469 338.078125 287.746094 337.746094 288.039062 337.625 C 293.855469 335.273438 297.328125 332.984375 297.363281 332.957031 C 297.628906 332.785156 297.984375 332.855469 298.160156 333.121094 C 298.335938 333.382812 298.261719 333.738281 298 333.914062 C 297.851562 334.011719 294.394531 336.292969 288.46875 338.691406 C 288.398438 338.71875 288.324219 338.734375 288.253906 338.734375 " fill-opacity="1" fill-rule="nonzero"/><path fill="#000000" d="M 293.496094 221.664062 C 301.09375 221.792969 310.738281 224.679688 315.566406 230.550781 C 328.421875 246.171875 349.683594 278.503906 347.847656 297.734375 C 345.34375 323.992188 311.832031 332.570312 311.832031 332.570312 L 308.082031 321.210938 C 338.257812 294.515625 301.148438 258.1875 301.148438 258.1875 L 291.070312 221.621094 L 293.496094 221.664062 " fill-opacity="1" fill-rule="nonzero"/></svg>