<svg xmlns="http://www.w3.org/2000/svg" xmlns:xlink="http://www.w3.org/1999/xlink" width="100" zoomAndPan="magnify" viewBox="0 0 75 74.999997" height="100" preserveAspectRatio="xMidYMid meet" version="1.0"><defs><clipPath id="8f6ae0d91a"><path d="M 6 5.144531 L 70 5.144531 L 70 69 L 6 69 Z M 6 5.144531 " clip-rule="nonzero"/></clipPath></defs><g clip-path="url(#8f6ae0d91a)"><path fill="#caddff" d="M 44.140625 5.160156 C 42.078125 5.15625 23.285156 5.441406 13.015625 20.984375 C 7.550781 29.257812 3.882812 42.789062 9.242188 50.160156 C 10.824219 52.335938 11.652344 51.855469 20.109375 57.011719 C 31.722656 64.082031 31.667969 65.902344 36.472656 67.523438 C 42.730469 69.628906 51.972656 69.625 58.898438 64.449219 C 66.757812 58.582031 67.917969 48.828125 69.082031 39.058594 C 70.222656 29.46875 71.382812 19.753906 65.304688 12.601562 C 59.007812 5.183594 48.886719 5.167969 44.140625 5.160156 " fill-opacity="1" fill-rule="nonzero"/></g><path fill="#99b9ff" d="M 59.75 58.144531 L 67.664062 58.144531 C 68.320312 58.144531 68.851562 57.621094 68.851562 56.976562 L 68.851562 14.863281 C 68.851562 14.144531 68.257812 13.5625 67.527344 13.5625 L 47.476562 13.5625 L 59.75 58.144531 " fill-opacity="1" fill-rule="nonzero"/><path fill="#99b9ff" d="M 68.851562 47.125 L 68.851562 14.488281 C 68.851562 14.394531 68.84375 14.304688 68.824219 14.21875 L 68.851562 47.125 " fill-opacity="1" fill-rule="nonzero"/><path fill="#5479f7" d="M 67.664062 58.257812 L 59.75 58.257812 C 59.6875 58.257812 59.636719 58.207031 59.636719 58.144531 C 59.636719 58.082031 59.6875 58.03125 59.75 58.03125 L 67.664062 58.03125 C 68.257812 58.03125 68.738281 57.554688 68.738281 56.972656 L 68.738281 14.738281 C 68.738281 14.082031 68.195312 13.546875 67.527344 13.546875 L 47.476562 13.546875 C 47.414062 13.546875 47.363281 13.496094 47.363281 13.433594 C 47.363281 13.371094 47.414062 13.316406 47.476562 13.316406 L 67.527344 13.316406 C 68.324219 13.316406 68.96875 13.957031 68.96875 14.738281 L 68.96875 56.972656 C 68.96875 57.683594 68.382812 58.257812 67.664062 58.257812 " fill-opacity="1" fill-rule="nonzero"/><path fill="#99b9ff" d="M 68.824219 14.21875 C 68.699219 13.621094 68.167969 13.175781 67.527344 13.175781 L 47.476562 13.175781 L 68.824219 14.21875 " fill-opacity="1" fill-rule="nonzero"/><path fill="#ffffff" d="M 59.496094 60.070312 C 59.410156 60.496094 59.035156 60.800781 58.597656 60.800781 L 12.363281 60.800781 C 11.785156 60.800781 11.355469 60.28125 11.464844 59.71875 L 20.660156 13.894531 C 20.742188 13.46875 21.121094 13.164062 21.554688 13.164062 L 67.792969 13.164062 C 68.367188 13.164062 68.800781 13.683594 68.6875 14.246094 L 59.496094 60.070312 " fill-opacity="1" fill-rule="nonzero"/><path fill="#000000" d="M 63.152344 41.957031 C 63.144531 41.957031 63.136719 41.957031 63.128906 41.953125 C 63.066406 41.941406 63.027344 41.878906 63.039062 41.816406 L 68.574219 14.222656 C 68.621094 13.988281 68.5625 13.75 68.410156 13.566406 C 68.257812 13.382812 68.03125 13.277344 67.792969 13.277344 L 21.554688 13.277344 C 21.175781 13.277344 20.847656 13.546875 20.773438 13.917969 L 17.566406 28.878906 C 17.550781 28.941406 17.492188 28.980469 17.429688 28.964844 C 17.367188 28.953125 17.324219 28.890625 17.339844 28.828125 L 20.546875 13.871094 C 20.640625 13.394531 21.066406 13.046875 21.554688 13.046875 L 67.792969 13.046875 C 68.101562 13.046875 68.390625 13.183594 68.589844 13.421875 C 68.785156 13.65625 68.863281 13.96875 68.800781 14.269531 L 63.265625 41.863281 C 63.253906 41.917969 63.207031 41.957031 63.152344 41.957031 " fill-opacity="1" fill-rule="nonzero"/><path fill="#caddff" d="M 18.679688 42.386719 L 19.648438 37.339844 L 25.007812 37.339844 L 24.039062 42.386719 L 18.679688 42.386719 " fill-opacity="1" fill-rule="nonzero"/><path fill="#caddff" d="M 24.710938 42.386719 L 25.675781 37.339844 L 31.039062 37.339844 L 30.070312 42.386719 L 24.710938 42.386719 " fill-opacity="1" fill-rule="nonzero"/><path fill="#caddff" d="M 30.738281 42.386719 L 31.707031 37.339844 L 37.066406 37.339844 L 36.101562 42.386719 L 30.738281 42.386719 " fill-opacity="1" fill-rule="nonzero"/><path fill="#caddff" d="M 36.769531 42.386719 L 37.738281 37.339844 L 43.097656 37.339844 L 42.128906 42.386719 L 36.769531 42.386719 " fill-opacity="1" fill-rule="nonzero"/><path fill="#caddff" d="M 42.800781 42.386719 L 43.769531 37.339844 L 49.128906 37.339844 L 48.160156 42.386719 L 42.800781 42.386719 " fill-opacity="1" fill-rule="nonzero"/><path fill="#99b9ff" d="M 48.832031 42.386719 L 49.796875 37.339844 L 55.160156 37.339844 L 54.191406 42.386719 L 48.832031 42.386719 " fill-opacity="1" fill-rule="nonzero"/><path fill="#99b9ff" d="M 54.859375 42.386719 L 55.828125 37.339844 L 61.1875 37.339844 L 60.222656 42.386719 L 54.859375 42.386719 " fill-opacity="1" fill-rule="nonzero"/><path fill="#caddff" d="M 17.605469 48.027344 L 18.574219 42.980469 L 23.933594 42.980469 L 22.96875 48.027344 L 17.605469 48.027344 " fill-opacity="1" fill-rule="nonzero"/><path fill="#caddff" d="M 23.636719 48.027344 L 24.605469 42.980469 L 29.964844 42.980469 L 28.996094 48.027344 L 23.636719 48.027344 " fill-opacity="1" fill-rule="nonzero"/><path fill="#caddff" d="M 29.667969 48.027344 L 30.636719 42.980469 L 35.996094 42.980469 L 35.027344 48.027344 L 29.667969 48.027344 " fill-opacity="1" fill-rule="nonzero"/><path fill="#caddff" d="M 35.699219 48.027344 L 36.664062 42.980469 L 42.027344 42.980469 L 41.058594 48.027344 L 35.699219 48.027344 " fill-opacity="1" fill-rule="nonzero"/><path fill="#caddff" d="M 41.726562 48.027344 L 42.695312 42.980469 L 48.054688 42.980469 L 47.089844 48.027344 L 41.726562 48.027344 " fill-opacity="1" fill-rule="nonzero"/><path fill="#99b9ff" d="M 47.757812 48.027344 L 48.726562 42.980469 L 54.085938 42.980469 L 53.117188 48.027344 L 47.757812 48.027344 " fill-opacity="1" fill-rule="nonzero"/><path fill="#99b9ff" d="M 53.789062 48.027344 L 54.757812 42.980469 L 60.117188 42.980469 L 59.148438 48.027344 L 53.789062 48.027344 " fill-opacity="1" fill-rule="nonzero"/><path fill="#caddff" d="M 20.824219 31.105469 L 21.792969 26.058594 L 27.152344 26.058594 L 26.183594 31.105469 L 20.824219 31.105469 " fill-opacity="1" fill-rule="nonzero"/><path fill="#caddff" d="M 26.855469 31.101562 L 27.824219 26.054688 L 33.183594 26.054688 L 32.214844 31.101562 L 26.855469 31.101562 " fill-opacity="1" fill-rule="nonzero"/><path fill="#caddff" d="M 32.882812 31.105469 L 33.851562 26.058594 L 39.210938 26.058594 L 38.242188 31.105469 L 32.882812 31.105469 " fill-opacity="1" fill-rule="nonzero"/><path fill="#caddff" d="M 38.914062 31.105469 L 39.882812 26.058594 L 45.242188 26.058594 L 44.273438 31.105469 L 38.914062 31.105469 " fill-opacity="1" fill-rule="nonzero"/><path fill="#caddff" d="M 44.945312 31.105469 L 45.914062 26.058594 L 51.273438 26.058594 L 50.304688 31.105469 L 44.945312 31.105469 " fill-opacity="1" fill-rule="nonzero"/><path fill="#99b9ff" d="M 50.976562 31.105469 L 51.941406 26.058594 L 57.304688 26.058594 L 56.335938 31.105469 L 50.976562 31.105469 " fill-opacity="1" fill-rule="nonzero"/><path fill="#99b9ff" d="M 57.003906 31.105469 L 57.972656 26.058594 L 63.332031 26.058594 L 62.363281 31.105469 L 57.003906 31.105469 " fill-opacity="1" fill-rule="nonzero"/><path fill="#caddff" d="M 19.75 36.746094 L 20.71875 31.699219 L 26.078125 31.699219 L 25.113281 36.746094 L 19.75 36.746094 " fill-opacity="1" fill-rule="nonzero"/><path fill="#caddff" d="M 25.78125 36.746094 L 26.75 31.699219 L 32.109375 31.699219 L 31.140625 36.746094 L 25.78125 36.746094 " fill-opacity="1" fill-rule="nonzero"/><path fill="#caddff" d="M 31.8125 36.746094 L 32.78125 31.699219 L 38.140625 31.699219 L 37.171875 36.746094 L 31.8125 36.746094 " fill-opacity="1" fill-rule="nonzero"/><path fill="#caddff" d="M 37.84375 36.746094 L 38.808594 31.699219 L 44.171875 31.699219 L 43.203125 36.746094 L 37.84375 36.746094 " fill-opacity="1" fill-rule="nonzero"/><path fill="#caddff" d="M 43.871094 36.746094 L 44.839844 31.699219 L 50.199219 31.699219 L 49.234375 36.746094 L 43.871094 36.746094 " fill-opacity="1" fill-rule="nonzero"/><path fill="#99b9ff" d="M 55.859375 36.746094 L 56.828125 31.699219 L 62.1875 31.699219 L 61.222656 36.746094 L 55.859375 36.746094 " fill-opacity="1" fill-rule="nonzero"/><path fill="#99b9ff" d="M 49.902344 36.746094 L 50.871094 31.699219 L 56.230469 31.699219 L 55.261719 36.746094 L 49.902344 36.746094 " fill-opacity="1" fill-rule="nonzero"/><path fill="#000000" d="M 30.417969 13.1875 C 30.351562 13.1875 30.300781 13.136719 30.300781 13.074219 C 30.300781 12.222656 30.023438 11.421875 29.5 10.753906 C 29.457031 10.703125 29.46875 10.628906 29.519531 10.589844 C 29.570312 10.550781 29.640625 10.5625 29.679688 10.613281 C 30.238281 11.320312 30.53125 12.171875 30.53125 13.074219 C 30.53125 13.136719 30.480469 13.1875 30.417969 13.1875 " fill-opacity="1" fill-rule="nonzero"/><path fill="#000000" d="M 26.496094 17.082031 C 24.269531 17.082031 22.457031 15.28125 22.457031 13.074219 C 22.457031 10.863281 24.269531 9.066406 26.496094 9.066406 C 27.339844 9.066406 28.148438 9.320312 28.832031 9.804688 C 28.882812 9.839844 28.894531 9.914062 28.859375 9.964844 C 28.820312 10.015625 28.75 10.027344 28.699219 9.992188 C 28.050781 9.535156 27.289062 9.296875 26.496094 9.296875 C 24.398438 9.296875 22.691406 10.988281 22.691406 13.074219 C 22.691406 15.15625 24.398438 16.851562 26.496094 16.851562 C 26.558594 16.851562 26.613281 16.902344 26.613281 16.964844 C 26.613281 17.03125 26.558594 17.082031 26.496094 17.082031 " fill-opacity="1" fill-rule="nonzero"/><path fill="#000000" d="M 35.667969 13.1875 C 35.605469 13.1875 35.554688 13.136719 35.554688 13.074219 C 35.554688 12.203125 35.265625 11.386719 34.714844 10.707031 C 34.675781 10.660156 34.683594 10.585938 34.734375 10.546875 C 34.785156 10.507812 34.855469 10.515625 34.898438 10.5625 C 35.46875 11.273438 35.785156 12.164062 35.785156 13.074219 C 35.785156 13.136719 35.734375 13.1875 35.667969 13.1875 " fill-opacity="1" fill-rule="nonzero"/><path fill="#000000" d="M 31.75 17.082031 C 29.523438 17.082031 27.710938 15.28125 27.710938 13.074219 C 27.710938 10.863281 29.523438 9.066406 31.75 9.066406 C 32.546875 9.066406 33.316406 9.296875 33.976562 9.730469 C 34.03125 9.765625 34.042969 9.835938 34.007812 9.890625 C 33.972656 9.945312 33.902344 9.957031 33.847656 9.921875 C 33.226562 9.511719 32.5 9.296875 31.75 9.296875 C 29.652344 9.296875 27.945312 10.988281 27.945312 13.074219 C 27.945312 15.15625 29.652344 16.851562 31.75 16.851562 C 31.8125 16.851562 31.863281 16.902344 31.863281 16.964844 C 31.863281 17.03125 31.8125 17.082031 31.75 17.082031 " fill-opacity="1" fill-rule="nonzero"/><path fill="#000000" d="M 40.921875 13.1875 C 40.859375 13.1875 40.804688 13.136719 40.804688 13.074219 C 40.804688 12.199219 40.5 11.351562 39.945312 10.675781 C 39.902344 10.628906 39.910156 10.554688 39.960938 10.515625 C 40.007812 10.472656 40.082031 10.480469 40.121094 10.53125 C 40.714844 11.246094 41.039062 12.148438 41.039062 13.074219 C 41.039062 13.136719 40.988281 13.1875 40.921875 13.1875 " fill-opacity="1" fill-rule="nonzero"/><path fill="#000000" d="M 37 17.082031 C 34.777344 17.082031 32.964844 15.28125 32.964844 13.074219 C 32.964844 10.863281 34.777344 9.066406 37 9.066406 C 37.832031 9.066406 38.628906 9.3125 39.308594 9.785156 C 39.359375 9.820312 39.375 9.890625 39.335938 9.945312 C 39.300781 9.996094 39.226562 10.007812 39.175781 9.972656 C 38.535156 9.53125 37.785156 9.296875 37 9.296875 C 34.902344 9.296875 33.195312 10.988281 33.195312 13.074219 C 33.195312 15.15625 34.902344 16.851562 37 16.851562 C 37.066406 16.851562 37.117188 16.902344 37.117188 16.964844 C 37.117188 17.03125 37.066406 17.082031 37 17.082031 " fill-opacity="1" fill-rule="nonzero"/><path fill="#000000" d="M 46.175781 13.1875 C 46.113281 13.1875 46.058594 13.136719 46.058594 13.074219 C 46.058594 12.1875 45.746094 11.328125 45.175781 10.652344 C 45.132812 10.601562 45.140625 10.53125 45.1875 10.488281 C 45.238281 10.449219 45.3125 10.453125 45.351562 10.503906 C 45.957031 11.222656 46.292969 12.136719 46.292969 13.074219 C 46.292969 13.136719 46.238281 13.1875 46.175781 13.1875 " fill-opacity="1" fill-rule="nonzero"/><path fill="#000000" d="M 42.253906 17.082031 C 40.027344 17.082031 38.21875 15.28125 38.21875 13.074219 C 38.21875 10.863281 40.027344 9.066406 42.253906 9.066406 C 43.0625 9.066406 43.84375 9.300781 44.511719 9.75 C 44.566406 9.785156 44.578125 9.855469 44.542969 9.910156 C 44.507812 9.960938 44.433594 9.976562 44.382812 9.941406 C 43.753906 9.519531 43.015625 9.296875 42.253906 9.296875 C 40.15625 9.296875 38.449219 10.988281 38.449219 13.074219 C 38.449219 15.15625 40.15625 16.851562 42.253906 16.851562 C 42.320312 16.851562 42.371094 16.902344 42.371094 16.964844 C 42.371094 17.03125 42.320312 17.082031 42.253906 17.082031 " fill-opacity="1" fill-rule="nonzero"/><path fill="#000000" d="M 51.429688 13.1875 C 51.363281 13.1875 51.3125 13.136719 51.3125 13.074219 C 51.3125 12.210938 51.027344 11.398438 50.488281 10.726562 C 50.449219 10.675781 50.457031 10.605469 50.507812 10.566406 C 50.558594 10.523438 50.628906 10.53125 50.671875 10.582031 C 51.242188 11.296875 51.542969 12.160156 51.542969 13.074219 C 51.542969 13.136719 51.492188 13.1875 51.429688 13.1875 " fill-opacity="1" fill-rule="nonzero"/><path fill="#000000" d="M 47.507812 17.082031 C 45.28125 17.082031 43.46875 15.28125 43.46875 13.074219 C 43.46875 10.863281 45.28125 9.066406 47.507812 9.066406 C 48.3125 9.066406 49.089844 9.300781 49.757812 9.746094 C 49.808594 9.78125 49.824219 9.851562 49.789062 9.90625 C 49.753906 9.957031 49.679688 9.972656 49.628906 9.9375 C 49 9.515625 48.265625 9.296875 47.507812 9.296875 C 45.410156 9.296875 43.703125 10.988281 43.703125 13.074219 C 43.703125 15.15625 45.410156 16.851562 47.507812 16.851562 C 47.570312 16.851562 47.625 16.902344 47.625 16.964844 C 47.625 17.03125 47.570312 17.082031 47.507812 17.082031 " fill-opacity="1" fill-rule="nonzero"/><path fill="#000000" d="M 56.683594 13.1875 C 56.617188 13.1875 56.566406 13.136719 56.566406 13.074219 C 56.566406 12.214844 56.285156 11.40625 55.75 10.734375 C 55.710938 10.6875 55.71875 10.613281 55.769531 10.574219 C 55.820312 10.535156 55.894531 10.542969 55.933594 10.59375 C 56.5 11.304688 56.796875 12.164062 56.796875 13.074219 C 56.796875 13.136719 56.746094 13.1875 56.683594 13.1875 " fill-opacity="1" fill-rule="nonzero"/><path fill="#000000" d="M 52.761719 17.082031 C 50.535156 17.082031 48.722656 15.28125 48.722656 13.074219 C 48.722656 10.863281 50.535156 9.066406 52.761719 9.066406 C 53.546875 9.066406 54.3125 9.289062 54.964844 9.714844 C 55.019531 9.75 55.035156 9.824219 55 9.875 C 54.964844 9.929688 54.894531 9.945312 54.839844 9.910156 C 54.222656 9.507812 53.503906 9.296875 52.761719 9.296875 C 50.664062 9.296875 48.957031 10.988281 48.957031 13.074219 C 48.957031 15.15625 50.664062 16.851562 52.761719 16.851562 C 52.824219 16.851562 52.875 16.902344 52.875 16.964844 C 52.875 17.03125 52.824219 17.082031 52.761719 17.082031 " fill-opacity="1" fill-rule="nonzero"/><path fill="#000000" d="M 61.933594 13.1875 C 61.871094 13.1875 61.820312 13.136719 61.820312 13.074219 C 61.820312 12.207031 61.515625 11.359375 60.964844 10.6875 C 60.925781 10.636719 60.929688 10.566406 60.980469 10.527344 C 61.03125 10.484375 61.101562 10.492188 61.144531 10.542969 C 61.726562 11.253906 62.050781 12.152344 62.050781 13.074219 C 62.050781 13.136719 62 13.1875 61.933594 13.1875 " fill-opacity="1" fill-rule="nonzero"/><path fill="#000000" d="M 58.015625 17.082031 C 55.789062 17.082031 53.976562 15.28125 53.976562 13.074219 C 53.976562 10.863281 55.789062 9.066406 58.015625 9.066406 C 58.796875 9.066406 59.558594 9.289062 60.210938 9.710938 C 60.265625 9.746094 60.28125 9.816406 60.246094 9.871094 C 60.210938 9.921875 60.140625 9.9375 60.085938 9.902344 C 59.46875 9.507812 58.753906 9.296875 58.015625 9.296875 C 55.914062 9.296875 54.207031 10.988281 54.207031 13.074219 C 54.207031 15.15625 55.914062 16.851562 58.015625 16.851562 C 58.078125 16.851562 58.128906 16.902344 58.128906 16.964844 C 58.128906 17.03125 58.078125 17.082031 58.015625 17.082031 " fill-opacity="1" fill-rule="nonzero"/><path fill="#000000" d="M 63.265625 17.082031 C 61.039062 17.082031 59.230469 15.28125 59.230469 13.074219 C 59.230469 10.863281 61.039062 9.066406 63.265625 9.066406 C 65.492188 9.066406 67.304688 10.863281 67.304688 13.074219 C 67.304688 13.136719 67.25 13.1875 67.1875 13.1875 C 67.125 13.1875 67.070312 13.136719 67.070312 13.074219 C 67.070312 10.992188 65.363281 9.296875 63.265625 9.296875 C 61.167969 9.296875 59.460938 10.992188 59.460938 13.074219 C 59.460938 15.15625 61.167969 16.851562 63.265625 16.851562 C 63.332031 16.851562 63.382812 16.902344 63.382812 16.964844 C 63.382812 17.03125 63.332031 17.082031 63.265625 17.082031 " fill-opacity="1" fill-rule="nonzero"/><path fill="#99b9ff" d="M 26.570312 17.792969 C 26.335938 17.792969 26.109375 17.695312 25.949219 17.523438 C 25.90625 17.472656 25.910156 17.402344 25.957031 17.359375 C 26.003906 17.316406 26.078125 17.320312 26.121094 17.367188 C 26.234375 17.492188 26.398438 17.5625 26.570312 17.5625 C 26.910156 17.5625 27.183594 17.289062 27.183594 16.957031 C 27.183594 16.621094 26.910156 16.347656 26.570312 16.347656 C 26.375 16.347656 26.191406 16.441406 26.078125 16.597656 C 26.039062 16.648438 25.964844 16.660156 25.914062 16.621094 C 25.863281 16.585938 25.851562 16.511719 25.890625 16.460938 C 26.046875 16.246094 26.304688 16.117188 26.570312 16.117188 C 27.035156 16.117188 27.414062 16.492188 27.414062 16.957031 C 27.414062 17.417969 27.035156 17.792969 26.570312 17.792969 " fill-opacity="1" fill-rule="nonzero"/><path fill="#99b9ff" d="M 31.734375 17.792969 C 31.496094 17.792969 31.269531 17.695312 31.113281 17.519531 C 31.070312 17.472656 31.070312 17.402344 31.117188 17.359375 C 31.167969 17.316406 31.238281 17.320312 31.28125 17.367188 C 31.398438 17.492188 31.5625 17.5625 31.734375 17.5625 C 32.070312 17.5625 32.34375 17.289062 32.34375 16.957031 C 32.34375 16.621094 32.070312 16.347656 31.734375 16.347656 C 31.539062 16.347656 31.355469 16.441406 31.238281 16.597656 C 31.203125 16.648438 31.128906 16.660156 31.078125 16.621094 C 31.027344 16.585938 31.015625 16.511719 31.050781 16.460938 C 31.210938 16.246094 31.464844 16.117188 31.734375 16.117188 C 32.199219 16.117188 32.578125 16.492188 32.578125 16.957031 C 32.578125 17.417969 32.199219 17.792969 31.734375 17.792969 " fill-opacity="1" fill-rule="nonzero"/><path fill="#99b9ff" d="M 36.894531 17.792969 C 36.660156 17.792969 36.433594 17.695312 36.273438 17.523438 C 36.230469 17.472656 36.234375 17.402344 36.28125 17.359375 C 36.328125 17.316406 36.402344 17.320312 36.445312 17.367188 C 36.558594 17.492188 36.726562 17.5625 36.894531 17.5625 C 37.234375 17.5625 37.507812 17.289062 37.507812 16.957031 C 37.507812 16.621094 37.234375 16.347656 36.894531 16.347656 C 36.703125 16.347656 36.515625 16.441406 36.402344 16.597656 C 36.363281 16.648438 36.292969 16.660156 36.238281 16.621094 C 36.1875 16.585938 36.175781 16.511719 36.214844 16.460938 C 36.371094 16.246094 36.628906 16.117188 36.894531 16.117188 C 37.359375 16.117188 37.738281 16.492188 37.738281 16.957031 C 37.738281 17.417969 37.359375 17.792969 36.894531 17.792969 " fill-opacity="1" fill-rule="nonzero"/><path fill="#99b9ff" d="M 42.207031 17.792969 C 41.96875 17.792969 41.742188 17.695312 41.585938 17.523438 C 41.542969 17.472656 41.542969 17.402344 41.589844 17.359375 C 41.640625 17.316406 41.710938 17.320312 41.753906 17.367188 C 41.871094 17.492188 42.035156 17.5625 42.207031 17.5625 C 42.542969 17.5625 42.816406 17.289062 42.816406 16.957031 C 42.816406 16.621094 42.542969 16.347656 42.207031 16.347656 C 42.011719 16.347656 41.828125 16.441406 41.710938 16.597656 C 41.675781 16.648438 41.601562 16.660156 41.550781 16.621094 C 41.5 16.585938 41.488281 16.511719 41.523438 16.460938 C 41.683594 16.246094 41.9375 16.117188 42.207031 16.117188 C 42.671875 16.117188 43.050781 16.492188 43.050781 16.957031 C 43.050781 17.417969 42.671875 17.792969 42.207031 17.792969 " fill-opacity="1" fill-rule="nonzero"/><path fill="#99b9ff" d="M 47.421875 17.792969 C 47.1875 17.792969 46.960938 17.695312 46.800781 17.523438 C 46.757812 17.472656 46.761719 17.402344 46.808594 17.359375 C 46.855469 17.316406 46.929688 17.320312 46.972656 17.367188 C 47.085938 17.492188 47.253906 17.5625 47.421875 17.5625 C 47.761719 17.5625 48.035156 17.289062 48.035156 16.957031 C 48.035156 16.621094 47.761719 16.347656 47.421875 16.347656 C 47.230469 16.347656 47.042969 16.441406 46.929688 16.597656 C 46.890625 16.648438 46.816406 16.660156 46.765625 16.621094 C 46.714844 16.585938 46.703125 16.511719 46.742188 16.460938 C 46.898438 16.246094 47.15625 16.117188 47.421875 16.117188 C 47.886719 16.117188 48.265625 16.492188 48.265625 16.957031 C 48.265625 17.417969 47.886719 17.792969 47.421875 17.792969 " fill-opacity="1" fill-rule="nonzero"/><path fill="#99b9ff" d="M 52.890625 17.792969 C 52.652344 17.792969 52.425781 17.695312 52.265625 17.523438 C 52.222656 17.472656 52.226562 17.402344 52.273438 17.359375 C 52.320312 17.316406 52.394531 17.320312 52.4375 17.367188 C 52.554688 17.492188 52.71875 17.5625 52.890625 17.5625 C 53.226562 17.5625 53.5 17.289062 53.5 16.957031 C 53.5 16.621094 53.226562 16.347656 52.890625 16.347656 C 52.695312 16.347656 52.511719 16.441406 52.394531 16.597656 C 52.355469 16.648438 52.285156 16.660156 52.234375 16.621094 C 52.179688 16.585938 52.167969 16.511719 52.207031 16.460938 C 52.367188 16.246094 52.621094 16.117188 52.890625 16.117188 C 53.355469 16.117188 53.730469 16.492188 53.730469 16.957031 C 53.730469 17.417969 53.355469 17.792969 52.890625 17.792969 " fill-opacity="1" fill-rule="nonzero"/><path fill="#99b9ff" d="M 58.050781 17.792969 C 57.816406 17.792969 57.589844 17.695312 57.429688 17.523438 C 57.386719 17.472656 57.390625 17.402344 57.4375 17.359375 C 57.484375 17.316406 57.558594 17.320312 57.601562 17.367188 C 57.714844 17.492188 57.878906 17.5625 58.050781 17.5625 C 58.386719 17.5625 58.664062 17.289062 58.664062 16.957031 C 58.664062 16.621094 58.386719 16.347656 58.050781 16.347656 C 57.855469 16.347656 57.671875 16.441406 57.558594 16.597656 C 57.519531 16.648438 57.445312 16.660156 57.394531 16.621094 C 57.34375 16.585938 57.332031 16.511719 57.371094 16.460938 C 57.527344 16.246094 57.78125 16.117188 58.050781 16.117188 C 58.515625 16.117188 58.894531 16.492188 58.894531 16.957031 C 58.894531 17.417969 58.515625 17.792969 58.050781 17.792969 " fill-opacity="1" fill-rule="nonzero"/><path fill="#99b9ff" d="M 63.214844 17.792969 C 62.976562 17.792969 62.75 17.695312 62.59375 17.519531 C 62.550781 17.472656 62.550781 17.402344 62.601562 17.359375 C 62.644531 17.316406 62.71875 17.320312 62.761719 17.367188 C 62.878906 17.492188 63.042969 17.5625 63.214844 17.5625 C 63.550781 17.5625 63.824219 17.289062 63.824219 16.953125 C 63.824219 16.621094 63.550781 16.347656 63.214844 16.347656 C 63.019531 16.347656 62.835938 16.441406 62.71875 16.597656 C 62.683594 16.648438 62.609375 16.660156 62.558594 16.621094 C 62.507812 16.585938 62.496094 16.511719 62.53125 16.460938 C 62.691406 16.246094 62.945312 16.117188 63.214844 16.117188 C 63.679688 16.117188 64.058594 16.492188 64.058594 16.953125 C 64.058594 17.417969 63.679688 17.792969 63.214844 17.792969 " fill-opacity="1" fill-rule="nonzero"/><path fill="#5479f7" d="M 40.769531 35.324219 C 40.734375 35.324219 40.699219 35.324219 40.664062 35.316406 C 40.464844 35.277344 40.300781 35.140625 40.234375 34.949219 L 39.640625 33.414062 C 39.5625 33.214844 39.664062 32.996094 39.863281 32.917969 C 40.0625 32.84375 40.285156 32.941406 40.363281 33.140625 L 40.8125 34.304688 L 42.210938 32.089844 C 42.324219 31.910156 42.5625 31.855469 42.742188 31.96875 C 42.921875 32.082031 42.976562 32.320312 42.863281 32.5 L 41.222656 35.101562 L 41.207031 35.121094 C 41.097656 35.25 40.9375 35.324219 40.769531 35.324219 " fill-opacity="1" fill-rule="nonzero"/><path fill="#000000" d="M 9.398438 22.984375 C 9.382812 22.984375 9.367188 22.984375 9.355469 22.976562 C 9.292969 22.953125 9.265625 22.886719 9.289062 22.828125 C 11.074219 18.285156 14.148438 14.386719 18.175781 11.558594 C 18.332031 11.453125 18.488281 11.34375 18.644531 11.238281 C 18.699219 11.203125 18.769531 11.21875 18.804688 11.269531 C 18.839844 11.324219 18.828125 11.394531 18.773438 11.429688 C 18.617188 11.535156 18.460938 11.640625 18.3125 11.746094 C 14.316406 14.550781 11.273438 18.410156 9.503906 22.910156 C 9.488281 22.957031 9.441406 22.984375 9.398438 22.984375 " fill-opacity="1" fill-rule="nonzero"/><path fill="#000000" d="M 9.160156 23.617188 C 9.144531 23.617188 9.132812 23.613281 9.121094 23.609375 C 9.058594 23.589844 9.027344 23.523438 9.050781 23.464844 C 9.125 23.253906 9.207031 23.039062 9.289062 22.828125 C 9.3125 22.769531 9.378906 22.738281 9.4375 22.761719 C 9.5 22.785156 9.527344 22.851562 9.503906 22.910156 C 9.421875 23.121094 9.34375 23.332031 9.265625 23.539062 C 9.25 23.589844 9.207031 23.617188 9.160156 23.617188 " fill-opacity="1" fill-rule="nonzero"/><path fill="#000000" d="M 7.683594 22.746094 C 7.671875 22.746094 7.660156 22.746094 7.648438 22.738281 C 7.585938 22.71875 7.554688 22.652344 7.574219 22.59375 C 8.546875 19.773438 10.121094 17.101562 12.253906 14.65625 C 14.265625 12.355469 16.773438 10.246094 19.707031 8.386719 C 19.761719 8.351562 19.832031 8.367188 19.867188 8.421875 C 19.902344 8.476562 19.886719 8.546875 19.832031 8.582031 C 13.816406 12.386719 9.65625 17.257812 7.792969 22.667969 C 7.777344 22.714844 7.734375 22.746094 7.683594 22.746094 " fill-opacity="1" fill-rule="nonzero"/><path fill="#000000" d="M 8.648438 24.296875 L 8.984375 25.070312 L 9.402344 24.511719 Z M 8.957031 25.414062 C 8.949219 25.414062 8.945312 25.410156 8.941406 25.410156 C 8.902344 25.40625 8.867188 25.378906 8.847656 25.34375 L 8.335938 24.164062 C 8.320312 24.121094 8.328125 24.074219 8.355469 24.042969 C 8.386719 24.007812 8.433594 23.996094 8.476562 24.007812 L 9.625 24.335938 C 9.664062 24.347656 9.691406 24.375 9.703125 24.410156 C 9.714844 24.445312 9.710938 24.484375 9.6875 24.515625 L 9.046875 25.367188 C 9.027344 25.394531 8.992188 25.414062 8.957031 25.414062 " fill-opacity="1" fill-rule="nonzero"/><path fill="#5479f7" d="M 11.988281 55.238281 L 11.734375 58.097656 C 11.582031 59.847656 10.925781 61.515625 9.84375 62.90625 C 8.9375 64.066406 8.3125 65.394531 7.984375 66.789062 C 7.796875 67.601562 8.421875 68.378906 9.261719 68.378906 L 24.300781 68.378906 L 24.441406 68.347656 L 25.371094 68.308594 C 25.449219 68.308594 25.472656 68.089844 25.464844 68.015625 C 25.378906 67.027344 24.847656 61.089844 24.726562 59.507812 C 24.597656 57.785156 25.578125 48.902344 24.5625 46.699219 C 23.816406 45.09375 22.042969 44.628906 20.90625 44.269531 C 20.046875 45.019531 19.363281 45.636719 18.132812 45.636719 C 16.628906 45.636719 15.410156 44.851562 14.515625 43.792969 C 13.457031 44.050781 12.464844 44.464844 11.800781 44.738281 C 10.246094 45.386719 9.269531 46.957031 9.425781 48.621094 C 9.710938 51.671875 11.988281 55.238281 11.988281 55.238281 " fill-opacity="1" fill-rule="nonzero"/><path fill="#ffffff" d="M 27.078125 59.535156 C 27.078125 59.535156 29.027344 58.957031 30.335938 59.394531 C 30.335938 59.394531 30.492188 60.226562 31.046875 60.621094 C 31.601562 61.015625 32.996094 61.257812 33.222656 62.0625 C 33.453125 62.867188 30.605469 63.488281 29.625 63.039062 C 28.644531 62.585938 27.789062 61.539062 26.835938 61.539062 C 25.882812 61.539062 27.078125 59.535156 27.078125 59.535156 " fill-opacity="1" fill-rule="nonzero"/><path fill="#000000" d="M 27.15625 59.632812 C 26.851562 60.152344 26.453125 61.039062 26.621094 61.332031 C 26.644531 61.371094 26.691406 61.425781 26.835938 61.425781 C 27.464844 61.425781 28.023438 61.832031 28.617188 62.261719 C 28.957031 62.507812 29.3125 62.765625 29.671875 62.933594 C 30.390625 63.261719 32.316406 62.96875 32.945312 62.4375 C 33.089844 62.316406 33.144531 62.203125 33.113281 62.09375 C 32.972656 61.605469 32.320312 61.328125 31.738281 61.089844 C 31.445312 60.964844 31.171875 60.851562 30.980469 60.714844 C 30.484375 60.359375 30.289062 59.699219 30.238281 59.480469 C 29.085938 59.132812 27.441406 59.554688 27.15625 59.632812 Z M 30.5625 63.304688 C 30.171875 63.304688 29.820312 63.253906 29.574219 63.140625 C 29.191406 62.964844 28.828125 62.703125 28.480469 62.445312 C 27.917969 62.039062 27.390625 61.65625 26.835938 61.65625 C 26.59375 61.65625 26.476562 61.539062 26.421875 61.445312 C 26.125 60.933594 26.890625 59.625 26.976562 59.476562 C 26.992188 59.449219 27.015625 59.433594 27.046875 59.425781 C 27.125 59.398438 29.042969 58.839844 30.375 59.285156 C 30.414062 59.296875 30.441406 59.332031 30.449219 59.371094 C 30.453125 59.378906 30.605469 60.164062 31.117188 60.527344 C 31.285156 60.648438 31.550781 60.761719 31.828125 60.875 C 32.457031 61.136719 33.167969 61.433594 33.335938 62.03125 C 33.375 62.171875 33.367188 62.386719 33.097656 62.613281 C 32.601562 63.03125 31.472656 63.304688 30.5625 63.304688 " fill-opacity="1" fill-rule="nonzero"/><path fill="#5479f7" d="M 14.484375 48.40625 L 16.457031 53.636719 C 16.863281 54.71875 17.722656 55.570312 18.808594 55.980469 L 27.234375 59.132812 L 26.882812 62.078125 C 26.882812 62.078125 15.6875 60.464844 13.816406 58.945312 C 12.0625 57.519531 10.085938 51.253906 10.085938 51.253906 L 14.484375 48.40625 " fill-opacity="1" fill-rule="nonzero"/><path fill="#caddff" d="M 24.359375 61.9375 C 24.351562 61.9375 24.34375 61.9375 24.335938 61.933594 C 24.042969 61.875 23.738281 61.8125 23.421875 61.746094 C 19.84375 61.015625 14.945312 60.011719 13.742188 59.035156 C 13.347656 58.714844 12.84375 58.089844 12.355469 57.324219 C 12.320312 57.269531 12.335938 57.199219 12.390625 57.164062 C 12.445312 57.132812 12.515625 57.148438 12.550781 57.203125 C 13.027344 57.949219 13.515625 58.550781 13.886719 58.855469 C 15.046875 59.796875 19.914062 60.792969 23.46875 61.523438 C 23.785156 61.585938 24.089844 61.648438 24.382812 61.710938 C 24.445312 61.722656 24.488281 61.785156 24.472656 61.847656 C 24.460938 61.898438 24.414062 61.9375 24.359375 61.9375 " fill-opacity="1" fill-rule="nonzero"/><path fill="#caddff" d="M 24.164062 57.953125 C 24.148438 57.953125 24.136719 57.953125 24.125 57.945312 L 18.769531 56.085938 C 17.648438 55.667969 16.765625 54.789062 16.347656 53.675781 L 14.375 48.449219 C 14.351562 48.386719 14.382812 48.324219 14.445312 48.300781 C 14.503906 48.277344 14.570312 48.308594 14.59375 48.367188 L 16.5625 53.59375 C 16.960938 54.644531 17.792969 55.476562 18.851562 55.871094 L 24.199219 57.730469 C 24.261719 57.75 24.292969 57.816406 24.273438 57.875 C 24.253906 57.921875 24.210938 57.953125 24.164062 57.953125 " fill-opacity="1" fill-rule="nonzero"/><path fill="#caddff" d="M 24.273438 67.753906 C 24.222656 67.753906 24.175781 67.71875 24.164062 67.667969 L 24.152344 67.632812 C 23.566406 65.417969 23.015625 63.332031 22.75 61.582031 C 22.738281 61.519531 22.785156 61.457031 22.847656 61.449219 C 22.910156 61.441406 22.96875 61.484375 22.980469 61.546875 C 23.242188 63.285156 23.792969 65.367188 24.378906 67.574219 L 24.386719 67.609375 C 24.402344 67.667969 24.367188 67.734375 24.304688 67.75 C 24.292969 67.75 24.285156 67.753906 24.273438 67.753906 " fill-opacity="1" fill-rule="nonzero"/><path fill="#caddff" d="M 22.359375 57.265625 C 22.300781 57.265625 22.25 57.21875 22.246094 57.160156 C 22.03125 53.59375 22.425781 51.9375 22.441406 51.871094 C 22.457031 51.808594 22.519531 51.769531 22.582031 51.785156 C 22.644531 51.800781 22.683594 51.863281 22.667969 51.925781 C 22.664062 51.941406 22.265625 53.621094 22.476562 57.144531 C 22.480469 57.207031 22.433594 57.261719 22.367188 57.265625 C 22.367188 57.265625 22.363281 57.265625 22.359375 57.265625 " fill-opacity="1" fill-rule="nonzero"/><path fill="#caddff" d="M 18.597656 51.976562 C 18.570312 51.976562 18.539062 51.96875 18.515625 51.945312 C 18.472656 51.902344 18.46875 51.828125 18.515625 51.78125 C 18.925781 51.359375 19.152344 50.800781 19.152344 50.214844 C 19.152344 49.820312 19.046875 49.429688 18.851562 49.089844 C 18.820312 49.035156 18.839844 48.964844 18.894531 48.933594 C 18.949219 48.898438 19.019531 48.917969 19.050781 48.972656 C 19.269531 49.351562 19.386719 49.777344 19.386719 50.214844 C 19.386719 50.863281 19.136719 51.476562 18.679688 51.941406 C 18.660156 51.964844 18.628906 51.976562 18.597656 51.976562 " fill-opacity="1" fill-rule="nonzero"/><path fill="#caddff" d="M 22.582031 51.984375 C 22.550781 51.984375 22.523438 51.976562 22.5 51.953125 C 22.453125 51.910156 22.453125 51.835938 22.496094 51.789062 C 23.019531 51.25 23.308594 50.542969 23.308594 49.792969 C 23.308594 49.289062 23.175781 48.796875 22.925781 48.363281 C 22.894531 48.308594 22.914062 48.238281 22.96875 48.203125 C 23.023438 48.171875 23.09375 48.191406 23.125 48.246094 C 23.398438 48.714844 23.539062 49.25 23.539062 49.792969 C 23.539062 50.601562 23.230469 51.367188 22.664062 51.949219 C 22.640625 51.972656 22.609375 51.984375 22.582031 51.984375 " fill-opacity="1" fill-rule="nonzero"/><path fill="#ffffff" d="M 21.808594 37.570312 C 21.792969 37.386719 20.898438 37.003906 20.695312 36.769531 C 20.492188 36.53125 20.527344 36.179688 20.40625 35.863281 C 20.289062 35.542969 19.84375 35.15625 19.84375 35.15625 C 17.359375 32.175781 14.5625 35.46875 14.5625 35.46875 C 13.96875 36.292969 14.179688 37.5 14.476562 38.1875 C 15.046875 39.515625 16.617188 40.449219 16.617188 40.449219 C 16.632812 40.515625 16.648438 40.582031 16.660156 40.648438 C 16.882812 41.898438 15.867188 43.652344 14.625 43.953125 C 14.617188 43.953125 14.605469 43.957031 14.59375 43.960938 C 15.398438 44.910156 16.601562 45.519531 17.953125 45.519531 C 19.0625 45.519531 20.070312 45.105469 20.84375 44.433594 C 20.464844 44.3125 20.109375 44.183594 19.8125 43.988281 C 18.726562 43.261719 19.496094 40.925781 19.765625 40.707031 C 20.035156 40.488281 21.304688 40.863281 21.578125 40.503906 C 21.988281 39.976562 21.386719 38.410156 21.386719 38.257812 C 21.386719 38.1875 21.484375 38.070312 21.585938 37.949219 C 21.699219 37.8125 21.816406 37.667969 21.808594 37.570312 " fill-opacity="1" fill-rule="nonzero"/><path fill="#000000" d="M 21.695312 37.59375 Z M 14.800781 44.023438 C 15.609375 44.902344 16.75 45.402344 17.953125 45.402344 C 18.917969 45.402344 19.851562 45.074219 20.609375 44.476562 C 20.320312 44.378906 20.011719 44.257812 19.75 44.082031 C 19.375 43.832031 19.164062 43.378906 19.136719 42.769531 C 19.09375 41.835938 19.480469 40.789062 19.691406 40.617188 C 19.847656 40.492188 20.171875 40.511719 20.542969 40.535156 C 20.914062 40.558594 21.371094 40.585938 21.488281 40.433594 C 21.773438 40.070312 21.472656 39.015625 21.34375 38.566406 C 21.292969 38.382812 21.269531 38.304688 21.269531 38.257812 C 21.269531 38.152344 21.355469 38.046875 21.488281 37.882812 L 21.5 37.875 C 21.554688 37.804688 21.6875 37.648438 21.691406 37.589844 C 21.648438 37.515625 21.371094 37.351562 21.183594 37.242188 C 20.941406 37.097656 20.710938 36.960938 20.605469 36.84375 C 20.460938 36.671875 20.421875 36.460938 20.382812 36.253906 C 20.363281 36.136719 20.339844 36.015625 20.296875 35.902344 C 20.191406 35.613281 19.773438 35.246094 19.769531 35.242188 C 19.761719 35.238281 19.757812 35.234375 19.753906 35.230469 C 19.09375 34.433594 18.347656 34.027344 17.539062 34.023438 C 17.535156 34.023438 17.53125 34.023438 17.527344 34.023438 C 15.996094 34.023438 14.722656 35.460938 14.652344 35.539062 C 14.066406 36.359375 14.332031 37.558594 14.582031 38.140625 C 15.132812 39.417969 16.660156 40.339844 16.675781 40.351562 C 16.703125 40.367188 16.722656 40.394531 16.730469 40.421875 C 16.746094 40.488281 16.761719 40.558594 16.773438 40.628906 C 17.007812 41.9375 16.011719 43.621094 14.800781 44.023438 Z M 17.953125 45.632812 C 16.621094 45.632812 15.363281 45.050781 14.503906 44.035156 C 14.476562 44.003906 14.46875 43.960938 14.484375 43.925781 C 14.496094 43.886719 14.527344 43.859375 14.566406 43.847656 L 14.601562 43.839844 C 15.746094 43.566406 16.765625 41.90625 16.542969 40.667969 C 16.535156 40.621094 16.527344 40.570312 16.515625 40.523438 C 16.253906 40.359375 14.902344 39.472656 14.371094 38.230469 C 14.101562 37.605469 13.816406 36.304688 14.46875 35.402344 C 14.46875 35.398438 14.472656 35.398438 14.472656 35.394531 C 14.527344 35.328125 15.855469 33.792969 17.527344 33.792969 C 17.53125 33.792969 17.535156 33.792969 17.539062 33.792969 C 18.417969 33.796875 19.21875 34.230469 19.929688 35.074219 C 19.988281 35.128906 20.394531 35.5 20.515625 35.824219 C 20.566406 35.953125 20.589844 36.085938 20.613281 36.210938 C 20.648438 36.402344 20.675781 36.570312 20.78125 36.691406 C 20.859375 36.785156 21.09375 36.921875 21.300781 37.042969 C 21.703125 37.277344 21.910156 37.410156 21.925781 37.5625 C 21.9375 37.699219 21.828125 37.835938 21.675781 38.019531 L 21.667969 38.03125 C 21.605469 38.109375 21.511719 38.222656 21.503906 38.261719 C 21.503906 38.285156 21.535156 38.394531 21.566406 38.5 C 21.726562 39.066406 22.027344 40.117188 21.671875 40.574219 C 21.480469 40.820312 20.996094 40.792969 20.53125 40.765625 C 20.257812 40.75 19.921875 40.726562 19.839844 40.796875 C 19.707031 40.902344 19.328125 41.867188 19.367188 42.761719 C 19.390625 43.300781 19.5625 43.683594 19.878906 43.894531 C 20.144531 44.070312 20.472656 44.195312 20.878906 44.324219 C 20.917969 44.335938 20.949219 44.367188 20.957031 44.410156 C 20.964844 44.449219 20.949219 44.492188 20.917969 44.519531 C 20.097656 45.238281 19.042969 45.632812 17.953125 45.632812 " fill-opacity="1" fill-rule="nonzero"/><path fill="#000000" d="M 6.550781 36.179688 C 6.550781 34 6.578125 32.042969 8.445312 31.171875 C 9.152344 30.84375 10.210938 30.3125 11.042969 30.3125 C 14.070312 30.3125 16.527344 32.75 16.527344 35.757812 C 16.527344 38.761719 14.070312 41.199219 11.042969 41.199219 C 9.636719 41.199219 8.808594 40.390625 7.839844 39.527344 C 6.71875 38.53125 6.550781 37.792969 6.550781 36.179688 " fill-opacity="1" fill-rule="nonzero"/><path fill="#000000" d="M 20.121094 34.8125 C 17.84375 32.339844 15.742188 33.867188 14.882812 34.71875 C 14.535156 35.066406 14.261719 35.488281 14.121094 35.957031 C 13.851562 36.882812 14.109375 37.695312 14.355469 38.257812 C 14.828125 39.363281 15.960938 40.210938 16.410156 40.515625 C 16.523438 40.589844 16.667969 40.578125 16.769531 40.488281 C 17.03125 40.25 17.253906 40.023438 17.4375 39.804688 C 17.527344 39.699219 17.5 39.542969 17.382812 39.476562 C 17.351562 39.457031 17.320312 39.4375 17.289062 39.414062 C 16.875 39.109375 16.757812 38.574219 17.027344 38.214844 C 17.292969 37.855469 17.847656 37.8125 18.257812 38.113281 C 18.289062 38.136719 18.316406 38.160156 18.339844 38.183594 C 18.546875 37.433594 18.476562 36.820312 18.753906 36.246094 C 19.15625 35.433594 19.875 35.3125 20.21875 35.304688 C 20.363281 35.132812 20.121094 34.8125 20.121094 34.8125 " fill-opacity="1" fill-rule="nonzero"/><path fill="#ffffff" d="M 33.675781 59.675781 C 33.675781 59.675781 30.890625 58.8125 30.621094 58.855469 C 30.351562 58.898438 30.007812 59.378906 29.324219 59.71875 C 28.644531 60.054688 28.132812 60.253906 28.273438 60.550781 C 28.398438 60.8125 29.652344 60.777344 30.546875 60.4375 C 30.726562 60.367188 30.933594 60.425781 31.054688 60.574219 C 31.355469 60.9375 32.734375 61.628906 33.980469 61.667969 L 33.675781 59.675781 " fill-opacity="1" fill-rule="nonzero"/><path fill="#000000" d="M 30.703125 60.292969 C 30.871094 60.292969 31.035156 60.367188 31.144531 60.5 C 31.421875 60.832031 32.691406 61.460938 33.84375 61.542969 L 33.574219 59.765625 C 32.265625 59.359375 30.8125 58.949219 30.636719 58.96875 C 30.542969 58.984375 30.398438 59.101562 30.234375 59.238281 C 30.019531 59.414062 29.75 59.636719 29.378906 59.820312 C 29.292969 59.863281 29.210938 59.902344 29.136719 59.9375 C 28.617188 60.191406 28.304688 60.351562 28.378906 60.5 C 28.453125 60.644531 29.554688 60.691406 30.503906 60.328125 C 30.570312 60.304688 30.636719 60.292969 30.703125 60.292969 Z M 33.980469 61.78125 C 33.980469 61.78125 33.980469 61.78125 33.976562 61.78125 C 32.679688 61.742188 31.269531 61.011719 30.964844 60.648438 C 30.875 60.535156 30.722656 60.496094 30.585938 60.542969 C 29.789062 60.847656 28.359375 60.996094 28.167969 60.601562 C 27.996094 60.238281 28.429688 60.023438 29.03125 59.730469 C 29.109375 59.695312 29.191406 59.65625 29.273438 59.613281 C 29.621094 59.441406 29.878906 59.230469 30.085938 59.058594 C 30.292969 58.890625 30.441406 58.765625 30.601562 58.742188 C 30.878906 58.699219 33.050781 59.363281 33.710938 59.566406 C 33.753906 59.578125 33.785156 59.617188 33.792969 59.660156 L 34.097656 61.648438 C 34.101562 61.683594 34.089844 61.71875 34.066406 61.742188 C 34.046875 61.765625 34.015625 61.78125 33.980469 61.78125 " fill-opacity="1" fill-rule="nonzero"/><path fill="#000000" d="M 64.042969 46.589844 C 61.890625 43.453125 54.914062 42.0625 54.90625 42.0625 C 54.382812 42.410156 51.121094 42.632812 50.503906 42.34375 C 50.441406 42.378906 44.714844 44.042969 43.003906 46.34375 C 41.484375 48.382812 41.867188 55.15625 40.398438 56.414062 C 39.019531 57.59375 33.609375 59.375 33.609375 59.375 L 34.003906 62.203125 C 34.003906 62.203125 41.863281 61.457031 42.414062 61.347656 C 42.960938 61.238281 44.941406 60.800781 45.382812 59.128906 C 45.507812 58.644531 45.695312 57.660156 45.890625 56.503906 L 47.167969 65.574219 L 47.269531 67.390625 C 47.289062 67.699219 47.5 67.964844 47.800781 68.046875 C 49.863281 68.609375 53.230469 68.570312 55.59375 68.339844 C 56.324219 68.265625 57.039062 68.074219 57.707031 67.769531 L 58.894531 67.234375 C 59.164062 67.113281 59.34375 66.859375 59.367188 66.566406 L 60.457031 52.382812 C 60.457031 52.382812 60.707031 53.027344 61.070312 54.007812 C 62.53125 57.972656 64.839844 47.757812 64.042969 46.589844 " fill-opacity="1" fill-rule="nonzero"/><path fill="#caddff" d="M 45.984375 57.519531 C 45.925781 57.519531 45.875 57.476562 45.867188 57.414062 C 45.722656 55.726562 45.417969 54.234375 45.066406 52.507812 C 44.964844 52.007812 44.859375 51.488281 44.753906 50.9375 C 44.742188 50.875 44.78125 50.8125 44.84375 50.800781 C 44.90625 50.789062 44.96875 50.832031 44.980469 50.894531 C 45.085938 51.445312 45.191406 51.960938 45.292969 52.460938 C 45.648438 54.195312 45.949219 55.691406 46.097656 57.394531 C 46.105469 57.457031 46.058594 57.515625 45.992188 57.519531 C 45.992188 57.519531 45.988281 57.519531 45.984375 57.519531 " fill-opacity="1" fill-rule="nonzero"/><path fill="#caddff" d="M 51.882812 54.503906 C 51.835938 54.503906 51.789062 54.472656 51.773438 54.425781 L 50.441406 50.828125 C 50.421875 50.769531 50.453125 50.703125 50.511719 50.679688 C 50.570312 50.660156 50.636719 50.691406 50.660156 50.75 L 51.992188 54.347656 C 52.011719 54.410156 51.984375 54.472656 51.921875 54.496094 C 51.910156 54.5 51.894531 54.503906 51.882812 54.503906 " fill-opacity="1" fill-rule="nonzero"/><path fill="#000000" d="M 49.566406 35.417969 L 49.570312 35.417969 Z M 49.5 34.417969 C 49.433594 34.417969 49.347656 34.457031 49.253906 34.527344 C 49.105469 34.644531 48.960938 34.832031 48.847656 35.054688 C 48.734375 35.273438 48.667969 35.5 48.660156 35.691406 C 48.65625 35.84375 48.691406 35.957031 48.757812 35.988281 C 48.886719 36.054688 49.21875 35.847656 49.464844 35.363281 C 49.578125 35.144531 49.644531 34.917969 49.652344 34.726562 C 49.65625 34.574219 49.621094 34.460938 49.554688 34.429688 C 49.539062 34.421875 49.519531 34.417969 49.5 34.417969 Z M 48.8125 36.230469 C 48.753906 36.230469 48.699219 36.21875 48.652344 36.195312 C 48.5 36.117188 48.421875 35.933594 48.429688 35.683594 C 48.4375 35.460938 48.511719 35.199219 48.640625 34.949219 C 48.769531 34.699219 48.9375 34.484375 49.113281 34.347656 C 49.3125 34.191406 49.507812 34.148438 49.660156 34.222656 C 49.8125 34.300781 49.890625 34.484375 49.882812 34.738281 C 49.875 34.957031 49.800781 35.21875 49.671875 35.46875 C 49.433594 35.9375 49.089844 36.230469 48.8125 36.230469 " fill-opacity="1" fill-rule="nonzero"/><path fill="#ffffff" d="M 52.410156 43.578125 C 53.050781 43.578125 53.664062 43.476562 54.238281 43.289062 C 54.761719 43.121094 55.25 42.886719 55.695312 42.589844 C 53.753906 41.910156 54.4375 38.976562 54.4375 38.976562 C 55.90625 35.769531 54.765625 33.726562 53.03125 33.300781 C 50.570312 32.695312 50.257812 34.117188 50.257812 34.117188 C 50.074219 34.496094 49.636719 35.386719 49.46875 35.488281 C 49.261719 35.613281 48.769531 35.738281 48.691406 35.839844 C 48.609375 35.941406 48.65625 36.273438 48.964844 36.558594 C 48.964844 36.558594 48.070312 38.414062 48.367188 38.972656 C 48.667969 39.53125 50.789062 39.996094 50.789062 39.996094 C 50.789062 39.996094 51.289062 42.253906 49.910156 43.027344 C 50.433594 43.269531 51 43.441406 51.59375 43.519531 C 51.859375 43.558594 52.132812 43.578125 52.410156 43.578125 " fill-opacity="1" fill-rule="nonzero"/><path fill="#000000" d="M 50.152344 43.007812 C 50.617188 43.203125 51.109375 43.339844 51.609375 43.40625 C 51.878906 43.445312 52.148438 43.460938 52.410156 43.460938 C 53.019531 43.460938 53.621094 43.367188 54.203125 43.179688 C 54.644531 43.039062 55.058594 42.847656 55.445312 42.609375 C 53.691406 41.777344 54.320312 38.980469 54.324219 38.949219 C 54.328125 38.941406 54.332031 38.9375 54.332031 38.929688 C 55.074219 37.308594 55.195312 35.832031 54.675781 34.765625 C 54.339844 34.074219 53.746094 33.59375 53.003906 33.410156 C 52.085938 33.1875 51.351562 33.222656 50.871094 33.519531 C 50.457031 33.777344 50.375 34.136719 50.371094 34.140625 C 50.371094 34.148438 50.367188 34.15625 50.363281 34.164062 C 49.90625 35.101562 49.671875 35.5 49.53125 35.585938 C 49.429688 35.648438 49.273438 35.707031 49.121094 35.761719 C 49 35.808594 48.816406 35.875 48.78125 35.910156 C 48.75 35.957031 48.769531 36.222656 49.042969 36.472656 C 49.082031 36.507812 49.089844 36.5625 49.070312 36.605469 C 48.828125 37.109375 48.25 38.503906 48.472656 38.917969 C 48.695312 39.339844 50.238281 39.757812 50.816406 39.886719 C 50.859375 39.894531 50.894531 39.929688 50.902344 39.972656 C 50.921875 40.0625 51.359375 42.117188 50.152344 43.007812 Z M 52.410156 43.691406 C 52.136719 43.691406 51.859375 43.671875 51.578125 43.636719 C 50.984375 43.554688 50.40625 43.382812 49.859375 43.128906 C 49.820312 43.113281 49.792969 43.074219 49.792969 43.03125 C 49.792969 42.988281 49.8125 42.945312 49.851562 42.925781 C 51.007812 42.277344 50.757812 40.472656 50.691406 40.09375 C 50.265625 39.996094 48.558594 39.570312 48.265625 39.027344 C 47.972656 38.480469 48.644531 36.972656 48.824219 36.582031 C 48.542969 36.285156 48.476562 35.925781 48.597656 35.769531 C 48.660156 35.691406 48.800781 35.636719 49.042969 35.546875 C 49.179688 35.492188 49.324219 35.4375 49.410156 35.386719 C 49.472656 35.347656 49.65625 35.085938 50.148438 34.074219 C 50.171875 33.992188 50.296875 33.605469 50.75 33.324219 C 51.289062 32.992188 52.066406 32.945312 53.058594 33.1875 C 53.871094 33.386719 54.519531 33.910156 54.886719 34.667969 C 55.433594 35.789062 55.316406 37.332031 54.550781 39.011719 C 54.507812 39.203125 53.96875 41.863281 55.734375 42.480469 C 55.777344 42.492188 55.804688 42.53125 55.8125 42.574219 C 55.816406 42.617188 55.796875 42.660156 55.761719 42.683594 C 55.304688 42.984375 54.804688 43.226562 54.273438 43.398438 C 53.671875 43.59375 53.042969 43.691406 52.410156 43.691406 " fill-opacity="1" fill-rule="nonzero"/><path fill="#000000" d="M 54.410156 32.421875 C 53.792969 32.246094 53.066406 32.28125 52.769531 32.152344 C 52.292969 31.941406 52.351562 31.378906 51.660156 31.265625 C 51.050781 31.160156 50.472656 31.226562 50.121094 31.664062 C 50.066406 31.738281 50.011719 31.820312 49.96875 31.917969 C 49.371094 33.191406 49.980469 33.882812 50.257812 34.117188 C 50.257812 34.117188 52.050781 35.167969 52.347656 35.449219 C 52.628906 35.714844 52.933594 36.316406 52.667969 37.125 C 52.636719 37.226562 52.671875 37.339844 52.765625 37.398438 L 52.769531 37.402344 C 52.875 37.476562 53.023438 37.457031 53.105469 37.355469 C 53.363281 37.046875 53.929688 36.445312 54.292969 36.628906 C 54.734375 36.847656 54.773438 38.046875 53.820312 38.167969 C 53.648438 38.191406 53.546875 38.371094 53.617188 38.53125 C 53.726562 38.78125 53.957031 39.054688 54.4375 38.976562 C 54.4375 38.976562 56.570312 37.726562 56.972656 35.871094 C 57.375 34.019531 55.234375 32.660156 54.410156 32.421875 " fill-opacity="1" fill-rule="nonzero"/><path fill="#000000" d="M 50.777344 34.90625 C 50.542969 34.90625 50.246094 35.144531 50.066406 35.492188 C 49.847656 35.917969 49.871094 36.375 50.109375 36.496094 C 50.21875 36.554688 50.363281 36.53125 50.519531 36.441406 C 50.6875 36.335938 50.84375 36.160156 50.957031 35.941406 C 51.066406 35.726562 51.117188 35.496094 51.101562 35.300781 C 51.085938 35.121094 51.019531 34.992188 50.910156 34.9375 C 50.867188 34.917969 50.824219 34.90625 50.777344 34.90625 Z M 50.242188 36.757812 C 50.160156 36.757812 50.078125 36.742188 50.003906 36.703125 C 49.640625 36.519531 49.574219 35.941406 49.859375 35.390625 C 50.140625 34.835938 50.648438 34.546875 51.015625 34.734375 C 51.199219 34.824219 51.3125 35.019531 51.332031 35.28125 C 51.351562 35.519531 51.292969 35.792969 51.160156 36.046875 C 51.03125 36.300781 50.847656 36.511719 50.640625 36.636719 C 50.503906 36.71875 50.371094 36.757812 50.242188 36.757812 " fill-opacity="1" fill-rule="nonzero"/><path fill="#000000" d="M 49.980469 35.484375 C 49.9375 35.484375 49.894531 35.457031 49.875 35.414062 C 49.875 35.410156 49.800781 35.269531 49.691406 35.269531 C 49.625 35.277344 49.570312 35.222656 49.570312 35.160156 C 49.566406 35.097656 49.617188 35.042969 49.679688 35.042969 C 49.898438 35.03125 50.039062 35.210938 50.085938 35.320312 C 50.113281 35.378906 50.085938 35.445312 50.027344 35.472656 C 50.011719 35.480469 49.996094 35.484375 49.980469 35.484375 " fill-opacity="1" fill-rule="nonzero"/><path fill="#000000" d="M 53.28125 36.644531 C 53.265625 36.644531 53.25 36.640625 53.234375 36.632812 L 51.164062 35.6875 C 51.105469 35.660156 51.082031 35.589844 51.109375 35.535156 C 51.132812 35.476562 51.203125 35.449219 51.261719 35.476562 L 53.328125 36.421875 C 53.386719 36.449219 53.414062 36.519531 53.386719 36.574219 C 53.367188 36.617188 53.324219 36.644531 53.28125 36.644531 " fill-opacity="1" fill-rule="nonzero"/><path fill="#ffffff" d="M 53.597656 59.632812 L 60.011719 52.167969 C 60.175781 51.976562 60.460938 51.953125 60.65625 52.117188 L 70.484375 60.441406 C 70.675781 60.601562 70.699219 60.886719 70.535156 61.078125 L 64.121094 68.542969 C 63.960938 68.734375 63.671875 68.757812 63.480469 68.59375 L 53.648438 60.269531 C 53.457031 60.109375 53.433594 59.824219 53.597656 59.632812 " fill-opacity="1" fill-rule="nonzero"/><path fill="#000000" d="M 53.597656 59.632812 Z M 60.359375 52.121094 C 60.351562 52.121094 60.339844 52.121094 60.332031 52.125 C 60.242188 52.128906 60.160156 52.171875 60.101562 52.242188 L 53.6875 59.707031 C 53.628906 59.777344 53.597656 59.863281 53.605469 59.953125 C 53.613281 60.042969 53.65625 60.125 53.722656 60.183594 L 63.554688 68.507812 C 63.625 68.566406 63.710938 68.59375 63.804688 68.585938 C 63.894531 68.578125 63.976562 68.539062 64.035156 68.46875 L 70.449219 61.003906 C 70.570312 60.863281 70.554688 60.648438 70.410156 60.527344 L 60.578125 52.203125 C 60.519531 52.152344 60.441406 52.121094 60.359375 52.121094 Z M 63.773438 68.816406 C 63.640625 68.816406 63.507812 68.769531 63.40625 68.683594 L 53.574219 60.359375 C 53.457031 60.257812 53.386719 60.121094 53.375 59.96875 C 53.363281 59.820312 53.410156 59.671875 53.511719 59.558594 L 59.925781 52.089844 C 60.023438 51.976562 60.160156 51.90625 60.3125 51.894531 C 60.464844 51.882812 60.613281 51.929688 60.730469 52.027344 L 70.5625 60.351562 C 70.800781 60.554688 70.832031 60.914062 70.625 61.152344 L 64.210938 68.617188 C 64.113281 68.734375 63.972656 68.804688 63.820312 68.816406 C 63.804688 68.816406 63.789062 68.816406 63.773438 68.816406 " fill-opacity="1" fill-rule="nonzero"/><path fill="#99b9ff" d="M 63.960938 67.257812 L 69.234375 61.121094 L 59.925781 53.242188 L 54.652344 59.378906 L 63.960938 67.257812 " fill-opacity="1" fill-rule="nonzero"/><path fill="#ffffff" d="M 54.941406 57.226562 L 57.828125 53.863281 C 58.03125 53.632812 58.382812 53.605469 58.613281 53.800781 L 59.390625 54.457031 L 55.78125 58.660156 L 55.003906 58.003906 C 54.769531 57.804688 54.742188 57.457031 54.941406 57.226562 " fill-opacity="1" fill-rule="nonzero"/><path fill="#ffffff" d="M 55.441406 55.054688 C 55.34375 54.96875 55.332031 54.820312 55.417969 54.722656 C 55.5 54.625 55.648438 54.613281 55.75 54.695312 C 55.847656 54.78125 55.859375 54.929688 55.777344 55.027344 C 55.691406 55.125 55.542969 55.136719 55.441406 55.054688 Z M 55.121094 56.03125 L 56.03125 56.800781 L 57.582031 54.996094 L 56.671875 54.226562 C 56.167969 53.800781 55.414062 53.859375 54.984375 54.359375 C 54.558594 54.859375 54.617188 55.605469 55.121094 56.03125 " fill-opacity="1" fill-rule="nonzero"/><path fill="#ffffff" d="M 56.9375 60.308594 L 61.210938 55.332031 L 60.792969 54.980469 L 56.519531 59.957031 L 56.9375 60.308594 " fill-opacity="1" fill-rule="nonzero"/><path fill="#ffffff" d="M 57.789062 61.027344 L 62.0625 56.054688 L 61.648438 55.703125 L 57.371094 60.675781 L 57.789062 61.027344 " fill-opacity="1" fill-rule="nonzero"/><path fill="#ffffff" d="M 58.640625 61.75 L 62.914062 56.773438 L 62.5 56.421875 L 58.222656 61.398438 L 58.640625 61.75 " fill-opacity="1" fill-rule="nonzero"/><path fill="#ffffff" d="M 62.785156 65.898438 C 62.785156 65.898438 60.4375 68.527344 58.957031 68.160156 C 57.476562 67.792969 57.804688 66.730469 57.804688 66.730469 L 60.078125 65.527344 C 60.078125 65.527344 57.980469 65.816406 58.214844 65.105469 C 58.335938 64.738281 58.519531 64.757812 58.996094 64.75 C 60.230469 64.734375 62.519531 64.605469 62.519531 64.605469 L 62.785156 65.898438 " fill-opacity="1" fill-rule="nonzero"/><path fill="#000000" d="M 57.90625 66.808594 C 57.886719 66.910156 57.859375 67.171875 58.011719 67.433594 C 58.175781 67.722656 58.503906 67.925781 58.984375 68.046875 C 60.28125 68.371094 62.351562 66.199219 62.660156 65.867188 L 62.425781 64.726562 C 61.96875 64.75 60.074219 64.851562 58.996094 64.867188 L 58.921875 64.867188 C 58.488281 64.875 58.410156 64.882812 58.324219 65.140625 C 58.300781 65.222656 58.320312 65.261719 58.34375 65.289062 C 58.539062 65.523438 59.503906 65.488281 60.0625 65.414062 C 60.121094 65.40625 60.171875 65.4375 60.191406 65.492188 C 60.207031 65.542969 60.183594 65.601562 60.132812 65.628906 Z M 59.253906 68.308594 C 59.144531 68.308594 59.035156 68.296875 58.929688 68.269531 C 58.378906 68.132812 58.003906 67.890625 57.804688 67.542969 C 57.566406 67.125 57.691406 66.714844 57.695312 66.695312 C 57.703125 66.667969 57.726562 66.644531 57.75 66.628906 L 59.519531 65.691406 C 59.03125 65.71875 58.382812 65.695312 58.164062 65.4375 C 58.105469 65.367188 58.046875 65.246094 58.105469 65.070312 C 58.246094 64.644531 58.5 64.644531 58.917969 64.636719 L 58.992188 64.636719 C 60.210938 64.617188 62.492188 64.492188 62.511719 64.492188 C 62.570312 64.488281 62.621094 64.527344 62.632812 64.582031 L 62.898438 65.875 C 62.90625 65.910156 62.894531 65.949219 62.871094 65.976562 C 62.78125 66.078125 60.769531 68.308594 59.253906 68.308594 " fill-opacity="1" fill-rule="nonzero"/><path fill="#ffffff" d="M 60.277344 67.148438 C 60.277344 67.148438 59.742188 67.59375 58.59375 68.042969 L 60.277344 67.148438 " fill-opacity="1" fill-rule="nonzero"/><path fill="#000000" d="M 58.59375 68.15625 C 58.546875 68.15625 58.503906 68.128906 58.488281 68.085938 C 58.464844 68.023438 58.492188 67.957031 58.550781 67.933594 C 59.664062 67.5 60.199219 67.0625 60.203125 67.058594 C 60.253906 67.019531 60.328125 67.027344 60.367188 67.074219 C 60.410156 67.121094 60.402344 67.195312 60.355469 67.238281 C 60.332031 67.253906 59.789062 67.699219 58.636719 68.148438 C 58.625 68.15625 58.609375 68.15625 58.59375 68.15625 " fill-opacity="1" fill-rule="nonzero"/><path fill="#ffffff" d="M 59.882812 66.648438 C 59.882812 66.648438 59.175781 67.113281 57.976562 67.59375 L 59.882812 66.648438 " fill-opacity="1" fill-rule="nonzero"/><path fill="#000000" d="M 57.980469 67.710938 C 57.933594 67.710938 57.890625 67.683594 57.871094 67.636719 C 57.847656 67.578125 57.875 67.511719 57.933594 67.488281 C 59.109375 67.015625 59.8125 66.558594 59.816406 66.550781 C 59.871094 66.519531 59.941406 66.53125 59.976562 66.585938 C 60.015625 66.636719 60 66.710938 59.945312 66.746094 C 59.917969 66.761719 59.21875 67.222656 58.023438 67.703125 C 58.007812 67.707031 57.992188 67.710938 57.980469 67.710938 " fill-opacity="1" fill-rule="nonzero"/><path fill="#000000" d="M 59.035156 44.242188 C 60.570312 44.269531 62.519531 44.847656 63.492188 46.023438 C 66.089844 49.15625 70.382812 55.636719 70.011719 59.492188 C 69.507812 64.753906 62.738281 66.476562 62.738281 66.476562 L 61.980469 64.199219 C 68.074219 58.847656 60.582031 51.5625 60.582031 51.5625 L 58.546875 44.234375 L 59.035156 44.242188 " fill-opacity="1" fill-rule="nonzero"/></svg>