<svg xmlns="http://www.w3.org/2000/svg" xmlns:xlink="http://www.w3.org/1999/xlink" width="100" zoomAndPan="magnify" viewBox="0 0 75 74.999997" height="100" preserveAspectRatio="xMidYMid meet" version="1.0"><path fill="#ffffff" d="M 63.113281 18.105469 L 62.953125 18.445312 C 62.84375 18.667969 62.746094 18.898438 62.617188 19.113281 C 62.492188 19.324219 62.378906 19.542969 62.238281 19.75 C 62.101562 19.957031 61.960938 20.15625 61.820312 20.359375 C 61.910156 20.128906 62.003906 19.902344 62.097656 19.675781 C 62.1875 19.453125 62.253906 19.214844 62.332031 18.988281 C 62.417969 18.761719 62.472656 18.523438 62.535156 18.292969 L 62.628906 17.945312 L 62.703125 17.59375 C 62.894531 16.65625 63.023438 15.710938 63.015625 14.765625 C 63.019531 13.824219 62.933594 12.890625 62.742188 11.992188 C 62.550781 11.097656 62.25 10.234375 61.820312 9.476562 C 61.703125 9.292969 61.601562 9.097656 61.472656 8.925781 C 61.339844 8.761719 61.226562 8.585938 61.074219 8.425781 C 60.78125 8.09375 60.472656 7.777344 60.136719 7.503906 C 59.464844 6.953125 58.722656 6.519531 57.90625 6.246094 C 57.085938 5.96875 56.207031 5.8125 55.296875 5.746094 C 54.390625 5.671875 53.441406 5.675781 52.5 5.714844 L 51.832031 5.757812 L 51.136719 5.84375 C 50.671875 5.894531 50.199219 5.984375 49.726562 6.046875 L 48.304688 6.285156 L 46.875 6.546875 L 41.140625 7.628906 C 37.308594 8.339844 33.457031 9.054688 29.550781 9.476562 C 33.269531 8.21875 37.003906 7.078125 40.78125 6.054688 C 42.667969 5.542969 44.566406 5.0625 46.484375 4.632812 C 47.445312 4.414062 48.414062 4.226562 49.386719 4.039062 C 49.882812 3.960938 50.367188 3.871094 50.871094 3.808594 L 51.628906 3.710938 L 52.421875 3.652344 C 53.429688 3.617188 54.4375 3.617188 55.472656 3.714844 C 56.507812 3.820312 57.5625 4.019531 58.582031 4.410156 C 59.597656 4.800781 60.554688 5.398438 61.34375 6.140625 C 61.742188 6.507812 62.097656 6.914062 62.421875 7.332031 C 62.585938 7.542969 62.730469 7.789062 62.882812 8.015625 C 63.027344 8.246094 63.136719 8.496094 63.265625 8.734375 C 63.722656 9.714844 63.972656 10.75 64.085938 11.78125 C 64.195312 12.8125 64.164062 13.839844 64.023438 14.84375 C 63.878906 15.847656 63.617188 16.828125 63.25 17.757812 Z M 18.539062 4.414062 C 17.667969 4.789062 16.882812 5.277344 16.21875 5.867188 C 15.558594 6.457031 15.003906 7.132812 14.589844 7.90625 C 14.496094 8.105469 14.386719 8.292969 14.296875 8.492188 C 14.214844 8.699219 14.121094 8.898438 14.046875 9.105469 C 13.980469 9.316406 13.898438 9.523438 13.835938 9.730469 C 13.785156 9.945312 13.722656 10.152344 13.679688 10.367188 C 13.3125 12.074219 13.53125 13.898438 13.972656 15.761719 C 14.402344 17.632812 15.039062 19.523438 15.445312 21.515625 C 14.257812 19.875 13.214844 18.164062 12.433594 16.253906 C 12.046875 15.300781 11.738281 14.289062 11.582031 13.222656 C 11.53125 12.957031 11.515625 12.683594 11.496094 12.414062 C 11.46875 12.144531 11.480469 11.867188 11.476562 11.589844 C 11.484375 11.039062 11.554688 10.488281 11.660156 9.941406 C 11.894531 8.855469 12.316406 7.832031 12.914062 6.894531 C 13.511719 5.960938 14.324219 5.148438 15.253906 4.5625 C 16.183594 3.96875 17.21875 3.59375 18.257812 3.4375 C 19.296875 3.28125 20.339844 3.300781 21.332031 3.503906 C 20.347656 3.75 19.40625 4.027344 18.539062 4.414062 Z M 63.558594 5.847656 C 60.804688 2.371094 57.214844 1.875 52.742188 2.023438 C 48.273438 2.171875 33.902344 5.886719 25.992188 7.605469 C 25.992188 7.605469 31.074219 5.238281 32.144531 4.664062 C 33.214844 4.089844 32.414062 3.785156 30.921875 3.328125 C 29.433594 2.867188 23.96875 1.949219 19.992188 2.027344 C 16.019531 2.105469 12.195312 3.671875 10.4375 8.027344 C 8.679688 12.382812 10.246094 16.511719 12.65625 21.898438 C 15.0625 27.285156 16.019531 30 15.902344 33.441406 C 15.789062 36.878906 15.042969 40.453125 15.042969 43.71875 C 15.042969 46.988281 15.902344 55.871094 17.394531 62.347656 C 17.394531 62.347656 17.507812 64.640625 19.972656 68.882812 C 22.4375 73.121094 25.933594 70.03125 26.738281 68.539062 C 27.539062 67.050781 28.570312 54.496094 30.808594 47.445312 C 33.042969 40.394531 38.546875 40.910156 41.757812 42.574219 C 44.964844 44.234375 48.0625 48.707031 48.40625 51.285156 C 48.75 53.867188 48.308594 59.386719 48.460938 63.171875 C 48.617188 66.953125 49.722656 70.316406 51.597656 68.253906 C 53.46875 66.191406 55.035156 62.867188 57.328125 55.988281 C 59.621094 49.109375 59.753906 36.496094 59.640625 32.175781 C 59.527344 27.851562 60.902344 24.804688 63.558594 20.273438 C 66.214844 15.746094 66.308594 9.328125 63.558594 5.847656 " fill-opacity="1" fill-rule="nonzero"/></svg>